<?xml version="1.0" encoding="utf-8"?>
<!-- Generator: Adobe Illustrator 23.0.1, SVG Export Plug-In . SVG Version: 6.00 Build 0)  -->
<svg version="1.1" id="Layer_1" xmlns="http://www.w3.org/2000/svg" xmlns:xlink="http://www.w3.org/1999/xlink" x="0px" y="0px"
	 viewBox="0 0 174 50" style="enable-background:new 0 0 174 50;" xml:space="preserve">
<style type="text/css">
	.st0{fill:#D5162E;}
</style>
<g>
	<path class="st0" d="M9.1,23L9.1,23c-0.1,0.5,0.5,0.8,0.9,0.5c1.5-1.2,3-1.8,4.6-1.8c1.5,0,2.8,0.5,4.1,1.4
		c0.3,0.2,0.3,0.6,0.1,0.9L16,27.6c-0.2,0.3-0.6,0.3-0.9,0.1c-0.9-0.6-1.7-0.9-2.6-0.9c-0.7,0-1.3,0.1-1.8,0.4
		c-0.5,0.3-1,0.7-1.4,1.3c-0.4,0.6-0.7,1.4-1,2.3c-0.3,0.9-0.5,2.1-0.6,3.4L6.5,45.4c0,0.3-0.3,0.6-0.6,0.6l-4.2,0
		c-0.4,0-0.7-0.3-0.6-0.7L3.6,23c0-0.3,0.3-0.6,0.6-0.6l4.3,0C8.9,22.4,9.2,22.7,9.1,23z"/>
	<path class="st0" d="M26.4,36.1c-0.4,0-0.7,0.3-0.6,0.7c0.1,1.4,0.7,2.6,1.8,3.6c1.2,1.1,2.8,1.7,4.7,1.7c2.4,0,4.3-0.8,5.6-2.5
		c0.2-0.2,0.5-0.3,0.8-0.1l3,1.6c0.3,0.2,0.4,0.6,0.2,1c-1.3,1.6-2.6,2.8-4,3.5c-1.5,0.8-3.4,1.2-5.7,1.2c-3.6,0-6.6-1.1-8.7-3.2
		c-2.2-2.1-3.3-5-3.3-8.6c0-3.8,1.2-6.9,3.5-9.5c2.4-2.5,5.3-3.8,9-3.8c3.5,0,6.3,1.1,8.3,3.4c2.1,2.3,3.1,5.3,3.1,9.2
		c0,0.3,0,0.8,0,1.3c0,0.3-0.3,0.6-0.6,0.6L26.4,36.1z M37.6,31.6c0.4,0,0.7-0.4,0.6-0.8c-0.7-3.1-2.7-4.7-5.9-4.7
		c-3,0-5,1.6-6.1,4.6c-0.1,0.4,0.2,0.8,0.6,0.8L37.6,31.6z"/>
	<path class="st0" d="M77.1,4.2l-4.9,41c0,0.3-0.3,0.6-0.6,0.6l-4.2,0c-0.4,0-0.7-0.3-0.6-0.7l0-0.2c0.1-0.6-0.6-0.9-1-0.6
		c-0.9,0.7-1.7,1.2-2.3,1.5c-1,0.4-2.2,0.6-3.6,0.6c-3.3,0-6-1.1-8.1-3.2c-2.1-2.2-3.2-5-3.2-8.5c0-3.7,1.1-6.8,3.4-9.2
		c2.3-2.5,5.2-3.7,8.7-3.7c1.8,0,3.3,0.3,4.5,0.9c1,0.5,2,1.3,3.1,2.3c0.4,0.4,1,0.1,1.1-0.4l2.4-20.4c0-0.3,0.3-0.6,0.6-0.6l4.2,0
		C76.8,3.5,77.1,3.8,77.1,4.2z M68.2,32.9c0-2-0.6-3.6-1.9-4.8c-1.2-1.2-2.9-1.8-4.9-1.8c-2.2,0-4,0.8-5.4,2.4
		c-1.4,1.6-2.1,3.7-2.1,6.1c0,2.1,0.6,3.8,1.8,5c1.2,1.2,2.8,1.9,4.9,1.9c2.1,0,3.9-0.9,5.3-2.6C67.4,37.5,68.2,35.4,68.2,32.9z"/>
	<path class="st0" d="M98,4.1l-2.2,18.7c-0.1,0.5,0.5,0.9,1,0.6c1-0.6,1.8-1.1,2.6-1.4c1.1-0.4,2.3-0.6,3.6-0.6
		c3.2,0,5.8,1.1,7.9,3.3c2.1,2.2,3.1,5,3.2,8.3c0,3.7-1.2,6.8-3.5,9.3c-2.4,2.5-5.3,3.8-8.7,3.8c-2.8,0-5.3-0.9-7.5-2.8
		c-0.4-0.3-1-0.1-1,0.4l-0.2,1.4c0,0.3-0.3,0.6-0.6,0.6l-4.3,0c-0.4,0-0.7-0.3-0.6-0.7l4.9-41c0-0.3,0.3-0.6,0.6-0.6l4.2,0
		C97.7,3.4,98,3.7,98,4.1z M108.5,33.2c0-2.1-0.6-3.8-1.9-5.1c-1.3-1.3-2.9-2-4.9-2c-2.2,0-4,0.8-5.4,2.4c-1.4,1.6-2.1,3.6-2.1,6.1
		c0,2.1,0.6,3.8,1.8,5c1.2,1.3,2.8,1.9,4.8,1.9c2.1,0,4-0.8,5.4-2.4C107.8,37.5,108.5,35.5,108.5,33.2z"/>
	<path class="st0" d="M126.9,27.6l-2.1,17.3c0,0.3-0.3,0.6-0.6,0.6l-4.2,0c-0.4,0-0.7-0.3-0.6-0.7l2-17c0-0.4-0.2-0.7-0.6-0.7
		l-1.7,0c-0.4,0-0.7-0.3-0.6-0.7l0.5-3.9c0-0.3,0.3-0.6,0.6-0.6l2,0c0.3,0,0.6-0.2,0.6-0.6l1.2-9.8c0-0.3,0.3-0.6,0.6-0.6l4.2,0
		c0.4,0,0.7,0.3,0.6,0.7l-1.1,9.5c0,0.4,0.2,0.7,0.6,0.7l3.7,0c0.4,0,0.7,0.3,0.6,0.7l-0.5,3.9c0,0.3-0.3,0.6-0.6,0.6l-4,0
		C127.2,27.1,127,27.3,126.9,27.6z"/>
	<path class="st0" d="M143.8,27.6l-2.1,17.3c0,0.3-0.3,0.6-0.6,0.6l-4.2,0c-0.4,0-0.7-0.3-0.6-0.7l2-17c0-0.4-0.2-0.7-0.6-0.7
		l-1.7,0c-0.4,0-0.7-0.3-0.6-0.7l0.5-3.9c0-0.3,0.3-0.6,0.6-0.6l2,0c0.3,0,0.6-0.2,0.6-0.6l1.2-9.8c0-0.3,0.3-0.6,0.6-0.6l4.2,0
		c0.4,0,0.7,0.3,0.6,0.7l-1.1,9.5c0,0.4,0.2,0.7,0.6,0.7l3.7,0c0.4,0,0.7,0.3,0.6,0.7l-0.5,3.9c0,0.3-0.3,0.6-0.6,0.6l-4,0
		C144.1,27,143.8,27.2,143.8,27.6z"/>
	<path class="st0" d="M159,22.5L159,22.5c-0.1,0.5,0.5,0.9,1,0.6c1.8-1.3,3.6-1.9,5.5-1.9c2.3,0,4.1,0.6,5.5,1.9c1.4,1.3,2,3,2,5.2
		c0,1.2-0.1,2.6-0.3,4.3l-1.5,12.1c0,0.3-0.3,0.6-0.6,0.6l-4.2,0c-0.4,0-0.7-0.3-0.6-0.7l1.6-13.1c0.1-0.5,0.1-1,0.1-1.4
		c0-0.4,0-0.8,0-1.1c0-2.1-1.2-3.2-3.5-3.2c-1.4,0-2.6,0.4-3.6,1.3c-0.8,0.7-1.4,1.5-1.8,2.5c-0.2,0.5-0.4,1.1-0.5,1.8
		c-0.1,0.7-0.3,1.6-0.4,2.5l-1.3,10.8c0,0.3-0.3,0.6-0.6,0.6l-4.2,0c-0.4,0-0.7-0.3-0.6-0.7l2.7-22.3c0-0.3,0.3-0.6,0.6-0.6l4.2,0
		C158.8,21.8,159.1,22.2,159,22.5z"/>
</g>
</svg>
