<?xml version="1.0" encoding="utf-8"?>
<!-- Generator: Adobe Illustrator 23.1.1, SVG Export Plug-In . SVG Version: 6.00 Build 0)  -->
<svg version="1.1" id="레이어_1" xmlns="http://www.w3.org/2000/svg" xmlns:xlink="http://www.w3.org/1999/xlink" x="0px"
	 y="0px" viewBox="0 0 833 833" style="enable-background:new 0 0 833 833;" xml:space="preserve">
<style type="text/css">
	.st0{opacity:0.95;}
	.st1{fill:#FFFFFF;}
</style>
<title>piment</title>
<g class="st0">
	<path class="st1" d="M77.16,357.06c-12.16-0.14-24.32,0.52-36.4,1.99c-11.37,1.39-21.67,3.42-30.88,6.08l-7.24,2.19l-0.68,103.4
		l20.38,0.17l0.25-33.97c8.39,1.84,16.88,3.19,25.42,4.04c9.48,0.97,19,1.46,28.53,1.45c12.17,0.17,24.35-0.47,36.44-1.9
		c11.37-1.44,21.71-3.46,30.86-6.09l0.51-68.36c-9.17-2.8-19.45-4.98-30.84-6.53C101.46,357.93,89.32,357.11,77.16,357.06z
		 M123.52,418.28c-7.28,1.37-14.62,2.34-22.01,2.88c-7.86,0.67-16.13,0.9-24.84,0.87c-9.71-0.03-19.42-0.62-29.06-1.78
		c-8.37-0.97-16.68-2.42-24.88-4.36L23,382.88c8.19-1.91,16.5-3.27,24.88-4.07c9.69-0.97,19.42-1.43,29.15-1.36
		c8.68,0.08,16.94,0.52,24.78,1.2c7.38,0.69,14.72,1.77,21.99,3.22L123.52,418.28z"/>
	<polygon class="st1" points="167.29,472.36 187.69,472.5 188.51,358.31 168.06,358.17 	"/>
	<polygon class="st1" points="285.85,401.46 232.09,357.69 211.65,357.54 210.89,472.08 231.28,472.26 231.91,385.18 276.98,422.03 
		294.4,422.17 339.99,385.9 339.36,472.99 359.79,473.13 360.6,358.53 340.16,358.4 	"/>
	<path class="st1" d="M491.56,451.94c-11.25,1.29-22.56,1.88-33.88,1.77c-9.71-0.03-19.42-0.6-29.07-1.71
		c-9.2-1.19-17.52-2.6-24.92-4.42l0.15-23.39l77.53,0.51l0.17-20.35l-77.57-0.53l0.15-18.62c8.24-1.8,16.57-3.13,24.96-3.99
		c9.66-1.03,19.37-1.49,29.08-1.36c11.35,0.04,22.68,0.82,33.92,2.35c2.86,0.4,5.58,0.86,8.25,1.38v-20.7
		c-2.92-0.48-5.92-0.94-9.05-1.33c-23.01-2.65-46.24-2.65-69.25,0c-10.41,1.21-20.7,3.24-30.78,6.09l-7.28,2.15l-0.59,93.08
		l7.16,2.1c9.15,2.92,19.39,5.12,30.76,6.72c12.02,1.59,24.12,2.4,36.24,2.42c11.01,0.14,22.02-0.4,32.96-1.61
		c9.62-1.03,19.17-2.7,28.57-5.01l0.19-21.16C511.39,448.75,502.16,450.6,491.56,451.94z"/>
	<path class="st1" d="M668.04,447.74l-107.41-87.83l-20.52-0.18l-0.81,114.54l20.5,0.14l0.6-87.05c0.12,0.15,1.71,1.46,4.87,4.02
		c3.16,2.56,7.28,5.92,12.28,10.01c5,4.09,10.77,8.81,17.29,14.08c6.42,5.22,12.98,10.59,19.66,16.1
		c15.7,12.87,33.49,27.42,53.37,43.64l20.38,0.16l0.81-114.62l-20.42-0.14L668.04,447.74z"/>
	<path class="st1" d="M801.77,363.75c-10.91-1.31-21.89-1.99-32.88-2.04c-11-0.14-21.99,0.39-32.92,1.59
		c-9.54,1.06-19.02,2.67-28.37,4.82l-0.16,21.18c7.58-2.12,15.28-3.76,23.07-4.9c9.3-1.29,18.66-2.02,28.04-2.19l-0.64,93.62
		l20.43,0.16l0.67-93.62c9.39,0.28,18.76,1.14,28.04,2.57c7.75,1.22,15.42,2.96,22.94,5.21l0.16-21.16
		C820.79,366.69,811.32,364.94,801.77,363.75z"/>
</g>
</svg>
