<?xml version="1.0" encoding="utf-8"?>
<!-- Generator: Adobe Illustrator 23.0.2, SVG Export Plug-In . SVG Version: 6.00 Build 0)  -->
<svg version="1.1" id="레이어_1" xmlns="http://www.w3.org/2000/svg" xmlns:xlink="http://www.w3.org/1999/xlink" x="0px"
	 y="0px" viewBox="0 0 200 200" style="enable-background:new 0 0 200 200;" xml:space="preserve">
<style type="text/css">
	.st0{display:none;}
	.st1{fill:#FFFFFF;}
	.st2{display:inline;fill:#FFFFFF;}
	.st3{display:inline;}
	.st4{fill:#FFFFFF;stroke:#231F20;stroke-miterlimit:10;}
</style>
<g id="레이어_3">
	<rect x="-36" y="8" class="st0" width="266" height="154"/>
	<g id="g5" transform="scale(0.58823529,0.58823529)">
		<path id="path7" class="st1" d="M168.98,68.68c0,0-100.67,0-125.84,5.96c-13.51,3.34-24.64,13.35-28.35,25.75
			C8.17,123.04,8.17,170,8.17,170s0,47.2,6.62,69.61c3.71,12.4,14.57,22.18,28.35,25.51c25.43,6.2,125.84,6.2,125.84,6.2
			s100.68,0,125.84-5.96c13.78-3.34,24.64-13.12,28.35-25.51c6.62-22.65,6.62-69.61,6.62-69.61s0.26-47.2-6.62-69.85
			c-3.71-12.4-14.57-22.18-28.35-25.51C269.65,68.68,168.98,68.68,168.98,68.68z M136.92,126.61L220.64,170l-83.72,43.39V126.61z"/>
	</g>
</g>
<g id="레이어_2" class="st0">
</g>
<g class="st0">
	<path class="st2" d="M139.74,103.32c-0.18,0-0.37-0.02-0.56-0.06l-0.15-0.08c-0.5-0.41-0.76-0.84-0.79-1.33
		c-0.06-0.92,0.7-1.72,1.66-2.74c0.37-0.39,0.77-0.82,1.16-1.29l0.14-0.35c-0.1-0.34-0.85-0.88-3.82-1.47l-0.71-0.14
		c-2.56-0.52-4.59-0.93-7.45-0.93c-4.56,0-9.18,0.06-13.66,0.11c-4.48,0.05-9.11,0.11-13.67,0.11c-2.23,0-4.51,0.19-6.71,0.37
		c-2.24,0.18-4.57,0.37-6.89,0.37c-1.02,0-2.04-0.01-3.06-0.01c-3.23-0.02-6.58-0.05-9.82,0.16c-0.27,0.02-0.61,0.06-0.98,0.1
		c-2.14,0.23-3.82,0.34-4.26-0.63c-0.34-0.75,0.29-1.64,0.8-2.24c0.81-0.96,1.78-1.68,2.71-2.37c1.3-0.95,2.52-1.85,3.29-3.34
		c0.48-0.91,0.24-1.34,0.17-1.48c-0.98-1.8-6.99-1.57-9.55-1.47c-0.53,0.02-0.97,0.04-1.27,0.04c-0.19,0-0.53,0.02-0.95,0.05
		c-3.6,0.25-5.73,0.17-6.02-1c-0.25-1.02,0.64-1.95,1.6-2.94c0.81-0.85,1.73-1.81,1.67-2.63c-0.03-0.42-0.33-0.85-0.9-1.27
		c-0.93-0.69-3.44-0.46-5.1-0.31c-0.54,0.05-1.02,0.09-1.4,0.1c-1.55,0.05-3.05,0.26-4.5,0.46c-0.78,0.11-1.56,0.21-2.35,0.3
		c-2.38,0.25-4.89,0.27-7.31,0.29c-1.79,0.01-3.64,0.03-5.45,0.13c-2.02,0.12-3.85,0.47-5.78,0.84c-0.64,0.12-1.29,0.25-1.96,0.36
		c-1.39,0.24-2.79,0.27-4.15,0.31c-0.89,0.02-1.82,0.04-2.73,0.12c-1.06,0.09-1.98,0.5-2.96,0.94c-0.97,0.43-1.98,0.88-3.12,0.98
		l-0.32,0.03c-0.95,0.1-2.38,0.24-3.19-0.07c-1.24-0.48-1.69-1.7-2.09-2.78c-0.09-0.24-0.18-0.49-0.28-0.73
		c-0.08-0.19-0.17-0.43-0.28-0.7c-0.36-0.91-1.3-3.33-1.9-3.33H6.87c-0.16,0-0.44,0.32-0.73,1.18c-0.39,1.16-0.72,2.66-0.99,3.99
		c-0.08,0.38-0.2,0.79-0.32,1.21c-0.17,0.58-0.35,1.18-0.39,1.69l-0.8-0.08c0.05-0.61,0.24-1.26,0.43-1.89
		c0.12-0.39,0.23-0.77,0.3-1.12c0.28-1.35,0.62-2.9,1.02-4.1c0.39-1.17,0.87-1.74,1.47-1.76l0.02,0c1.05,0,1.85,1.83,2.64,3.87
		c0.1,0.26,0.19,0.49,0.27,0.68c0.1,0.25,0.2,0.51,0.3,0.76c0.38,1.04,0.71,1.93,1.61,2.28c0.64,0.25,2.02,0.11,2.85,0.03l0.32-0.03
		c1.02-0.1,1.93-0.5,2.89-0.92c0.99-0.44,2.01-0.89,3.19-1c0.93-0.08,1.87-0.1,2.77-0.13c1.33-0.03,2.71-0.06,4.05-0.3
		c0.66-0.12,1.3-0.24,1.94-0.36c1.95-0.37,3.8-0.73,5.87-0.85c1.83-0.11,3.69-0.12,5.49-0.14c2.4-0.02,4.89-0.04,7.24-0.29
		c0.78-0.08,1.56-0.19,2.33-0.29c1.47-0.2,2.99-0.41,4.58-0.46c0.36-0.01,0.83-0.05,1.36-0.1c1.98-0.18,4.45-0.4,5.61,0.46
		c0.79,0.59,1.19,1.22,1.25,1.93c0.09,1.25-0.93,2.32-1.92,3.35c-0.7,0.73-1.49,1.55-1.37,2.06c0.06,0.26,0.83,0.65,5.19,0.34
		c0.45-0.03,0.8-0.06,1-0.06c0.3,0,0.73-0.02,1.25-0.04c4.38-0.16,9.14-0.17,10.26,1.9c0.36,0.67,0.31,1.47-0.16,2.38
		c-0.87,1.66-2.23,2.67-3.54,3.63c-0.9,0.66-1.83,1.35-2.57,2.23c-0.79,0.94-0.67,1.23-0.67,1.24c0.23,0.5,2.49,0.25,3.46,0.14
		c0.38-0.04,0.73-0.08,1.01-0.1c3.27-0.21,6.62-0.19,9.87-0.17C86.27,95,87.29,95,88.3,95c2.29,0,4.6-0.19,6.83-0.37
		c2.22-0.18,4.51-0.37,6.77-0.37c4.56,0,9.19-0.06,13.66-0.11c4.48-0.05,9.11-0.11,13.67-0.11c2.93,0,4.98,0.42,7.59,0.95l0.71,0.14
		c2.43,0.49,4.12,1.03,4.43,2.06c0.09,0.29,0.1,0.73-0.31,1.24c-0.4,0.48-0.81,0.92-1.2,1.33c-0.75,0.79-1.45,1.53-1.42,2.04
		c0.01,0.19,0.14,0.4,0.39,0.61c0.55,0.1,1.11-0.09,1.7-0.28c0.42-0.14,0.85-0.28,1.3-0.32c1.11-0.12,2.22-0.14,3.26-0.15
		c1.61-0.02,3.23-0.01,4.85-0.01l2.42,0.01c1.95,0,3.69-0.27,5.54-0.56c0.73-0.11,1.47-0.23,2.23-0.33c2.34-0.3,4.71-0.29,7.04-0.3
		h0.42c2.46,0,4.98-0.07,7.41-0.15c2.46-0.07,5-0.15,7.51-0.15h6.58c0.37,0,0.72-0.01,1.06-0.02c1.92-0.05,3.57-0.08,5.24,1.45
		l-0.51,0.69c-1.44-1.32-2.81-1.29-4.71-1.25c-0.34,0.01-0.7,0.02-1.07,0.02h-6.58c-2.5,0-5.04,0.08-7.49,0.15
		c-2.44,0.07-4.97,0.15-7.44,0.15h-0.42c-2.4,0-4.66,0-6.95,0.29c-0.75,0.1-1.49,0.21-2.21,0.32c-1.88,0.29-3.65,0.57-5.65,0.57
		l-2.42-0.01c-1.61-0.01-3.23-0.01-4.85,0.01c-1.02,0.01-2.12,0.03-3.19,0.15c-0.38,0.04-0.75,0.16-1.15,0.29
		C140.83,103.15,140.3,103.32,139.74,103.32z"/>
	<path class="st2" d="M62.54,68.4c-0.51,0-1.02-0.1-1.47-0.29c-1.23-0.52-1.58-1.34-1.66-1.93c-0.14-1.07,0.47-2.31,1.63-3.32
		c1-0.87,2.64-1.67,3.97-1.07l-0.15,0.41c1.11,1.19,1.39,2.74,0.76,4.32C65.12,67.79,63.82,68.4,62.54,68.4z M64,62.48
		c-0.75,0-1.66,0.39-2.46,1.09c-0.91,0.79-1.43,1.76-1.34,2.49c0.07,0.52,0.46,0.93,1.15,1.23c1.24,0.53,3.02,0.17,3.53-1.12
		c0.69-1.74-0.1-2.92-0.88-3.61l0.05-0.08L64,62.48z"/>
	<path class="st2" d="M184.47,116.21l-0.34-0.01c-0.29-0.03-0.7-0.1-0.96-0.43c-0.29-0.38-0.25-0.88-0.2-1.51l0.02-0.26
		c0.01-0.15,0.02-0.33,0.02-0.51c0.03-0.8,0.07-1.79,0.45-2.39l0.65,0.51c-0.25,0.39-0.28,1.27-0.3,1.92
		c-0.01,0.2-0.02,0.38-0.03,0.55l-0.02,0.27c-0.03,0.37-0.06,0.76,0.02,0.86c0.02,0.02,0.09,0.1,0.41,0.12
		c0.83,0.07,1.7-0.21,2.54-0.48c0.43-0.14,0.87-0.28,1.32-0.38c-0.17-0.68,0.07-1.69,0.31-2.75c0.15-0.66,0.47-2.02,0.29-2.22
		c-0.39-0.33-1.91,0.21-2.49,0.41c-0.18,0.06-0.33,0.11-0.43,0.15c-0.35,0.11-0.7,0.29-1.07,0.48c-0.48,0.24-0.97,0.5-1.49,0.59
		l-0.13-0.88c0.41-0.07,0.84-0.29,1.28-0.52c0.39-0.2,0.78-0.4,1.2-0.53c0.1-0.03,0.24-0.08,0.4-0.14c1.26-0.45,2.54-0.83,3.21-0.27
		c0.62,0.52,0.34,1.74,0.01,3.15c-0.19,0.81-0.48,2.05-0.29,2.37c0.2,0.04,0.39,0.26,0.38,0.49c-0.01,0.23-0.14,0.43-0.34,0.44
		c-0.61,0.03-1.25,0.24-1.93,0.46C186.15,115.95,185.32,116.21,184.47,116.21z"/>
	<path class="st2" d="M135.35,90.54l-0.13-0.88c0.66-0.12,1.57-0.89,2.2-1.87c0.43-0.67,0.67-1.32,0.69-1.86
		c-0.35-0.05-0.82-0.03-1.27,0c-1.02,0.05-2.08,0.1-2.59-0.55l0.6-0.58c0.26,0.33,1.2,0.29,1.95,0.25c0.67-0.03,1.31-0.06,1.8,0.1
		c0.15,0.05,0.26,0.18,0.29,0.35c0.12,0.82-0.17,1.81-0.82,2.81C137.31,89.51,136.24,90.38,135.35,90.54z"/>
	<path class="st2" d="M140.8,90.14c-0.72-0.03-1.45-0.56-2.09-1.02c-0.25-0.18-0.49-0.35-0.71-0.48l0.38-0.78
		c0.24,0.14,0.5,0.33,0.77,0.53c0.55,0.4,1.18,0.86,1.68,0.88L140.8,90.14z"/>
</g>
<g class="st0">
	<path class="st2" d="M66.65,137.03c0,0.23-0.06,0.41-0.19,0.55c-0.13,0.14-0.29,0.21-0.5,0.21h-2.47c-0.2,0-0.37-0.07-0.5-0.21
		c-0.13-0.14-0.2-0.33-0.2-0.55v-2.75h0.87v2.67h2.12v-2.59l-2.71-3.62c-0.19-0.25-0.28-0.53-0.28-0.83v-2.2
		c0-0.23,0.07-0.41,0.2-0.55c0.13-0.14,0.3-0.21,0.5-0.21h2.47c0.2,0,0.37,0.07,0.5,0.21c0.13,0.14,0.19,0.33,0.19,0.55v2.52h-0.87
		v-2.44h-2.12v2.29l2.72,3.62c0.18,0.24,0.27,0.51,0.27,0.81V137.03z"/>
	<path class="st2" d="M76.54,137.8h-3.22v-10.85h3.18v0.85h-2.31v4.05h2.1v0.87h-2.1v4.23h2.35V137.8z"/>
	<path class="st2" d="M87.16,137.03c0,0.23-0.07,0.41-0.2,0.55c-0.13,0.14-0.3,0.21-0.5,0.21h-2.74c-0.2,0-0.37-0.07-0.5-0.21
		c-0.13-0.14-0.19-0.33-0.19-0.55v-9.31c0-0.23,0.06-0.41,0.19-0.55c0.13-0.14,0.3-0.21,0.5-0.21h2.74c0.2,0,0.37,0.07,0.5,0.21
		c0.13,0.14,0.2,0.33,0.2,0.55V137.03z M86.29,136.94v-9.14h-2.4v9.14H86.29z"/>
	<path class="st2" d="M97.92,137.03c0,0.23-0.07,0.41-0.2,0.55c-0.13,0.14-0.3,0.21-0.5,0.21h-2.67c-0.2,0-0.37-0.07-0.5-0.21
		c-0.13-0.14-0.19-0.33-0.19-0.55v-10.08h0.87v10h2.32v-10h0.87V137.03z"/>
	<path class="st2" d="M107.75,137.8h-3.13v-10.85h0.87v10h2.26V137.8z"/>
	<path class="st2" d="M114.99,137.8h-0.87v-10.85h0.87V137.8z"/>
	<path class="st2" d="M125.57,137.03c0,0.23-0.06,0.41-0.19,0.55c-0.13,0.14-0.29,0.21-0.5,0.21h-2.47c-0.21,0-0.37-0.07-0.5-0.21
		c-0.13-0.14-0.2-0.33-0.2-0.55v-2.75h0.87v2.67h2.12v-2.59l-2.71-3.62c-0.19-0.25-0.28-0.53-0.28-0.83v-2.2
		c0-0.23,0.07-0.41,0.2-0.55c0.13-0.14,0.3-0.21,0.5-0.21h2.47c0.21,0,0.37,0.07,0.5,0.21c0.13,0.14,0.19,0.33,0.19,0.55v2.52h-0.87
		v-2.44h-2.12v2.29l2.72,3.62c0.18,0.24,0.27,0.51,0.27,0.81V137.03z"/>
	<path class="st2" d="M137.09,137.8h-0.82v-6.87c0-0.1,0.03-0.38,0.09-0.85l-1.6,6.7h-0.18l-1.6-6.7c0.06,0.47,0.09,0.76,0.09,0.85
		v6.87h-0.82v-10.85h0.81l1.59,7.06c0.01,0.04,0.02,0.14,0.02,0.31c0-0.07,0.01-0.17,0.03-0.31l1.59-7.06h0.81V137.8z"/>
</g>
<g class="st0">
	<path class="st2" d="M151.91,68.9c-17.41-7.85-36.87-5.53-51.69,4.43C85.4,63.37,65.94,61.05,48.52,68.9
		c-26.57,12-38.48,43.35-26.71,70.1c2.29,6.08,16.13,36.01,70.91,52.86c0.76,0.23,1.52,0.45,2.29,0.69l5.21,1.53l5.2-1.53
		c0.77-0.23,1.53-0.45,2.29-0.69c54.77-16.84,68.63-46.78,70.92-52.86C190.39,112.25,178.49,80.9,151.91,68.9z M34.04,134.06
		c-9.11-20.19-0.29-44.02,19.9-53.14c11.98-5.41,25.22-4.41,35.93,1.51c-3.29,3.74-6.1,8.01-8.3,12.75
		c-2.93,5.49-15.07,32.89,3.8,80.2C42.34,158.8,34.04,134.06,34.04,134.06z M166.4,134.06c0,0-8.3,24.75-51.36,41.32
		c-4.13,1.6-8.57,3.12-13.34,4.52c-0.51-1.09-1.01-2.19-1.48-3.26c-21.98-49.6-6.86-75.55-6.86-75.55
		c1.77-3.93,4.09-7.43,6.86-10.46c2.99-3.32,6.5-6.08,10.35-8.21c10.69-5.92,23.95-6.92,35.92-1.51
		C166.69,90.04,175.51,113.87,166.4,134.06z"/>
	<g class="st3">
		<g>
			<path class="st1" d="M1.89,44.98c6.68-6.08,10.22-8.82,17.54-13.68c3.99-2.65,7.06-3.41,9.12-2.53c2.05,0.88,3.1,3.24,3.1,7
				c0,3.86-1.14,7.47-3.38,10.91c-2.24,3.44-5.64,6.51-10.05,9.51c-2.4,1.63-3.58,2.48-5.92,4.24c0,5.68,0,8.52,0,14.2
				c-4.28,3.23-6.37,4.96-10.41,8.63C1.89,70.49,1.89,57.73,1.89,44.98z M12.3,52.66c1.04-0.79,1.57-1.18,2.63-1.94
				c2.08-1.5,3.57-2.89,4.43-4.25c0.86-1.36,1.29-2.65,1.29-3.89c0-1.2-0.38-1.98-1.12-2.32c-0.75-0.34-2.15,0.17-4.17,1.62
				c-1.23,0.88-1.84,1.33-3.06,2.25C12.3,47.54,12.3,49.24,12.3,52.66z"/>
			<path class="st1" d="M37.7,20.98c11.02-4.66,20.98-7.99,32.59-10.9c0,3.27,0,4.9,0,8.17c-8.39,1.74-12.54,2.92-20.65,5.89
				c0,2.43,0,3.65,0,6.08c7.52-2.76,11.37-3.88,19.13-5.57c0,3.12,0,4.68,0,7.8c-7.76,1.69-11.61,2.81-19.13,5.57
				c0,3.02,0,4.53,0,7.54c8.34-3.07,12.62-4.27,21.25-6.02c0,3.47,0,5.2,0,8.67c-11.46,2.32-22.63,6.03-33.2,11.02
				C37.7,46.49,37.7,33.73,37.7,20.98z"/>
			<path class="st1" d="M102.87,39.02c-5.77-0.12-8.66-0.03-14.42,0.42c-0.8,2.59-1.2,3.89-2,6.49c-5.17,0.48-7.75,0.83-12.87,1.77
				c5.03-13.45,10.15-26.86,15.35-40.24c5.53-0.42,8.31-0.5,13.85-0.39c5.22,13.1,10.35,26.22,15.42,39.38
				c-5.29-0.67-7.95-0.88-13.27-1.06C104.1,42.84,103.69,41.56,102.87,39.02z M100.23,30.72c-1.82-5.51-2.72-8.24-4.54-13.69
				c-1.8,5.55-2.69,8.34-4.49,13.95C94.81,30.76,96.62,30.71,100.23,30.72z"/>
			<path class="st1" d="M147.89,37.74c4.26,2.73,6.36,4.19,10.52,7.26c-0.7,2.6-1.8,4.55-3.31,5.88c-1.51,1.33-3.4,2.06-5.67,2.23
				c-2.27,0.17-5.18-0.32-8.74-1.36c-4.33-1.26-7.91-2.69-10.69-4.48c-2.78-1.79-5.2-4.34-7.24-7.71s-3.06-7.39-3.06-12.14
				c0-6.33,1.8-10.98,5.38-13.76c3.57-2.78,8.62-3.48,15.04-1.65c5.02,1.44,8.9,3.8,11.71,6.82c2.81,3.02,4.87,6.89,6.21,11.51
				c-4.19-0.89-6.32-1.25-10.61-1.8c-0.38-1.29-0.77-2.28-1.18-2.96c-0.68-1.13-1.52-2.1-2.51-2.9c-0.99-0.8-2.1-1.38-3.33-1.73
				c-2.79-0.8-4.94-0.24-6.44,1.53c-1.12,1.33-1.7,3.71-1.7,7.14c0,4.24,0.68,7.3,2.03,9.2c1.35,1.9,3.25,3.16,5.68,3.86
				c2.36,0.67,4.12,0.6,5.32-0.28S147.36,39.97,147.89,37.74z"/>
			<path class="st1" d="M164.17,21.94c4.67,2.29,6.96,3.55,11.45,6.28c0,5.36,0,8.03,0,13.39c4.91,2.99,7.31,4.61,11.96,8.13
				c0-5.36,0-8.03,0-13.39c4.28,3.23,6.37,4.96,10.41,8.63c0,12.75,0,25.51,0,38.26c-4.04-3.68-6.13-5.4-10.41-8.63
				c0-6.19,0-9.29,0-15.48c-4.66-3.51-7.06-5.14-11.96-8.13c0,6.19,0,9.29,0,15.48c-4.49-2.73-6.79-3.99-11.45-6.28
				C164.17,47.44,164.17,34.69,164.17,21.94z"/>
		</g>
	</g>
</g>
<g class="st0">
	<g class="st3">
		<path class="st4" d="M186.58,175.21l-5.17-4.92c-0.03-0.02-0.08-0.05-0.13-0.05c-0.06,0-0.1,0.02-0.14,0.05l-4.56,4.92
			c-0.96-0.8-6.64-5.39-11.89-6.19c0.16-0.21,0.37-0.47,0.51-0.65c0.5-0.69,0.71-1.01,0.72-1.02c0.02-0.02,0.04-0.06,0.04-0.11
			v-18.97c0-0.04-0.01-0.08-0.05-0.11c-0.28-0.36-1.03-1.41-1.05-2.04c0.94-0.17,6.23-1.24,11.13-4.17c0.73,0.26,6,2.12,11.36,3.87
			v20.34c0,0.68,0.83,2.45,2.88,2.78c1.17,0.18,1.85,0.29,2.22,0.35L186.58,175.21z M173.34,164.96c0,0.08,0.04,0.15,0.12,0.18
			c0.03,0.01,3.41,1.28,5.8,3.14c0.06,0.05,0.13,0.05,0.2,0.03c0.07-0.03,0.11-0.1,0.11-0.17v-18.79c0-0.08-0.05-0.16-0.13-0.19
			c-2.62-0.93-5.53-2.03-5.77-2.26c-0.06-0.07-0.13-0.08-0.21-0.07c-0.08,0.03-0.12,0.11-0.12,0.19V164.96z M162.55,169.35
			c-3.91,2.39-5.54,4.79-6.05,5.69c-0.45-0.92-1.91-3.32-5.78-5.69h1.78c0.1,0,0.19-0.08,0.19-0.19v-19.82
			c0-0.07-0.03-0.12-0.08-0.16l-2.72-2.01c-0.06-0.05-0.14-0.05-0.21-0.02l-3.53,2.01c-0.06,0.03-0.1,0.1-0.1,0.17v19.82
			c0,0.11,0.09,0.19,0.19,0.19h1.77c-3.93,2.41-5.56,4.83-6.06,5.71c-0.49-0.88-2.12-3.31-6.06-5.72l1.77,0.01
			c0.06,0,0.11-0.02,0.14-0.06c0.04-0.03,0.06-0.08,0.06-0.13v-19.66c0-1.08-0.95-3.2-3.12-3.65l6.08-3.74
			c0.65,0.38,4.29,2.59,4.87,3.55c0.02,0.03,0.06,0.05,0.09,0.06c0.15,0.07,1.53,0.47,7.03-3.17l0.85-0.6
			c0.75,0.47,5.21,3.23,7.68,4.19c0.06,0.02,0.08,0.08,0.08,0.2c0,0.56-0.61,1.71-0.85,2.13c-0.01,0.02-0.02,0.05-0.02,0.08
			l0.01,20.61c0,0.11,0.1,0.19,0.2,0.19H162.55z M132.71,169.25c-1.76,0.35-7.76,1.78-11.57,5.95c-0.81-0.91-5.04-5.16-13.86-6.19
			c0.11-0.19,0.28-0.47,0.49-0.73c1.2-1.5,1.6-1.74,1.61-1.75c0.06-0.03,0.1-0.1,0.1-0.17v-18.07c0-0.04-0.01-0.08-0.04-0.11
			c-0.29-0.36-1.02-1.4-1.05-2.02c1.11-0.09,7.45-0.75,11.56-4.17c0.96,0.44,7.91,3.49,12.61,4.12c-0.41,0.42-1.12,1.26-1.12,2.03
			v18.64C131.42,167.11,131.77,168.52,132.71,169.25 M116.71,165.8c0,0.05,0.02,0.09,0.06,0.13c0.05,0.05,1.19,1.29,6.64,2.37
			c0.06,0.01,0.11,0,0.15-0.03c0.05-0.03,0.07-0.09,0.07-0.15v-18.75c0-0.07-0.05-0.15-0.11-0.17c-4.16-1.73-6.42-2.52-6.69-2.33
			c-0.06,0.04-0.11,0.12-0.11,0.19V165.8z M107.34,146.29c-0.27,0.87-0.91,2.21-2.38,2.84c-1.77,0.75-4.21,0.27-7.25-1.42
			c-0.01,0-0.03-0.01-0.06-0.02c-0.03-0.01-1.05-0.23-1.57,0.2c-0.21,0.16-0.32,0.4-0.32,0.71v20.56c0,0.11,0.08,0.19,0.19,0.19
			h1.77c-3.94,2.41-5.56,4.83-6.06,5.71c-0.5-0.87-2.12-3.29-6.04-5.71l1.76,0.01c0.05,0,0.1-0.01,0.14-0.04
			c0.03-0.04,0.05-0.09,0.05-0.14v-19.68c0-1.08-0.94-3.2-3.11-3.65l6.32-3.9c0.64,0.38,4.06,2.47,4.81,3.45v0.05
			c0,0.06,0.04,0.13,0.09,0.17c0.15,0.07,0.19,0.09,5.01-3.09l0.81-0.57C102.11,142.65,104.95,145.64,107.34,146.29 M82.23,169.25
			c-1.76,0.35-7.75,1.78-11.58,5.95c-0.81-0.91-5.04-5.16-13.86-6.19c0.11-0.19,0.27-0.46,0.5-0.73c1.18-1.5,1.59-1.74,1.61-1.75
			c0.06-0.03,0.1-0.1,0.1-0.17v-18.07c0-0.04-0.01-0.08-0.04-0.11c-0.29-0.36-1.02-1.4-1.06-2.02c1.11-0.09,7.45-0.75,11.56-4.17
			c0.96,0.44,7.92,3.49,12.61,4.12c-0.41,0.42-1.12,1.26-1.12,2.03v18.64C80.95,167.11,81.29,168.52,82.23,169.25 M66.25,165.8
			c0,0.05,0.01,0.09,0.05,0.13c0.04,0.05,1.19,1.29,6.64,2.37c0.06,0.01,0.11,0,0.16-0.03c0.04-0.03,0.06-0.09,0.06-0.15v-18.75
			c0-0.07-0.04-0.15-0.11-0.17c-4.16-1.73-6.42-2.52-6.69-2.33c-0.06,0.04-0.11,0.12-0.11,0.19V165.8z M64.94,135.35
			c-2.71,2.91-7.24,3.24-9.13,3.24c-0.66,0-1.09-0.04-1.09-0.04c-0.05-0.01-0.11,0.01-0.14,0.05c-0.04,0.03-0.06,0.09-0.06,0.14
			v36.11c0,0.07,0.03,0.13,0.08,0.17c0.06,0.03,0.12,0.03,0.18,0.01c0.02-0.01,1.23-0.55,2.03-0.81c0.06-0.03,0.13-0.03,0.19-0.03
			c0.33,0,0.55,0.3,0.55,0.59c0,0.14-0.04,0.33-0.24,0.48c-0.67,0.54-2.71,2.1-2.73,2.11c-0.05,0.03-0.07,0.09-0.07,0.15v8.68
			c0,1.62-1.62,2.93-3.62,2.93c-2,0-3.62-1.31-3.62-2.93c0-1.61,1.62-2.93,3.62-2.93c0,0,0.05,0.01,0.11,0.01
			c0.61,0,0.67-0.31,0.67-0.44v-3.85c0-0.07-0.03-0.13-0.09-0.16c-0.06-0.04-0.13-0.04-0.19,0c-6.86,3.77-15.92,3.88-16.93,3.88
			h-0.05c-16.12,0-26.94-9.78-26.94-24.35c0-7.12,3.76-14.45,10.3-20.12c6.14-5.32,14.01-8.52,21.08-8.57v0.63
			c-4.54,1.63-7.55,4.3-7.58,4.32c-8.2,7.1-9.88,12.68-9.88,18.88c0,1.06,0.06,2.22,0.16,3.52c0.77,8.98,10.08,15.07,10.17,15.14
			c0.07,0.04,0.18,0.03,0.23-0.03l2.32-2.31c0.03-0.04,0.05-0.09,0.05-0.14v-28.19c0-0.02,0-0.05-0.01-0.07l-0.75-1.98
			c11.01-2.89,18.57-10.44,19.86-11.79C56.49,134.11,63.25,135.19,64.94,135.35 M35.72,174.3c0,0.06,0.03,0.12,0.07,0.15
			c0.08,0.08,2.22,1.79,9.32,1.79c1.92,0,4.05-0.13,6.34-0.39c0.1-0.01,0.17-0.09,0.17-0.19v-37.33c0-0.06-0.03-0.13-0.09-0.16
			c-0.16-0.1-3.85-2.39-5.15-2.39c-0.18,0-0.31,0.03-0.42,0.11c-0.08,0.07-0.18,0.19-0.18,0.4v29.35l-10.02,8.53
			C35.75,174.19,35.72,174.25,35.72,174.3"/>
	</g>
	<g class="st3">
		<path class="st4" d="M130.05,26.55c-0.47-0.14-0.82-0.14-1.07,0.07c-1.14,0.87-2.15,1.4-2.96,1.47c-0.81,0.07-1.41,0.33-1.82,0.87
			l-0.8,0.74c-0.07,0.14-0.41,0.33-1.49,0.47c-0.2,0.13-0.8,0.46-0.53,0.8c0.33,0.47,0.67,1.01,0.94,1.54
			c0.27,1.15,0.07,2.36-1.01,3.49c-0.41,0.48-0.94,0.61-1.62,0.54c-0.34-0.07-0.74-0.28-0.74-0.68c0.07-0.4,0.2-0.73,0.6-1
			c0.68-0.88,0.68-1.62-0.06-2.29c-0.54-0.26-1.08-0.26-1.62,0c-1.07,0.47-1.2,1.41-0.53,2.29c0,0.27-0.07,0.6-0.2,1
			c-0.26,0.54-0.73,0.68-1.35,0.61c-0.99-0.54-1.46-1.48-1.32-3.09c0.46-0.74,0.99-1.41,1.52-1.94c-0.6-1.07-1.46-1.88-2.53-2.42
			c-1.08,0.54-1.95,1.35-2.56,2.42c0.53,0.6,1.01,1.2,1.28,1.94c0.14,0.94,0.07,1.89-0.66,2.75c-0.68,0.47-1.35,0.75-2.01,0.34
			c-0.48-0.48-0.48-1.01-0.2-1.61c0.47-0.74,0.4-1.49-0.28-2.1c-0.54-0.4-1.2-0.33-1.68,0c-0.67,0.54-0.59,1.22-0.06,2.1
			c0.06,0.33,0,0.66-0.07,0.86c-0.53,1.15-1.33,1.01-2.27,0.62c-1.67-1.62-1.61-3.3,0.33-4.91c0.41-0.54,0.2-1.15-0.54-1.27
			c-1.41-0.41-2.62-1.01-3.43-2.15c-0.8-1.68-1.87-1.68-2.67,0c-0.82,1.07-2.09,1.75-3.44,2.15c-0.74,0.13-0.95,0.74-0.61,1.2
			c2.02,1.68,2.02,3.3,0.41,4.98c-0.94,0.4-1.74,0.46-2.27-0.62c-0.14-0.26-0.14-0.53-0.07-0.93c0.54-0.81,0.61-1.54-0.06-2.02
			c-0.54-0.33-1.15-0.4-1.75,0c-0.67,0.54-0.67,1.35-0.2,2.1c0.2,0.53,0.2,1.06-0.2,1.54c-0.74,0.4-1.34,0.2-2.02-0.28
			c-0.74-0.93-0.8-1.81-0.67-2.75c0.26-0.8,0.74-1.41,1.2-2.02c-0.54-1-1.41-1.81-2.55-2.41c-1.01,0.6-1.89,1.42-2.55,2.41
			c0.61,0.61,1.15,1.21,1.54,2.02c0.2,1.54-0.26,2.55-1.27,3.03c-0.66,0.13-1.14,0-1.4-0.61c-0.07-0.33-0.13-0.66-0.13-0.93
			c0.67-0.88,0.46-1.82-0.54-2.29c-0.54-0.26-1.08-0.26-1.67,0c-0.67,0.67-0.74,1.41-0.07,2.29c0.41,0.27,0.61,0.6,0.61,0.93
			c0.06,0.46-0.33,0.67-0.74,0.74c-0.67,0.07-1.15-0.13-1.55-0.54c-1.14-1.13-1.33-2.35-1.08-3.55c0.28-0.54,0.61-1.01,1.02-1.48
			c0.26-0.34-0.34-0.74-0.61-0.8c-1.07-0.21-1.4-0.34-1.4-0.47l-0.81-0.81c-0.47-0.47-1.07-0.73-1.81-0.8
			c-0.8-0.07-1.88-0.61-3.02-1.48c-0.27-0.21-0.61-0.21-1.01-0.07c-0.34,0.34-0.4,0.67-0.27,1.01c4.17,3.69,5.56,7.99,5.91,10.21
			h48.87c0.33-2.22,1.74-6.52,5.84-10.14C130.45,27.22,130.39,26.89,130.05,26.55"/>
		<path class="st4" d="M73.38,25.88c1.28,0.33,2.56,0.74,3.63,1.4c0.75,0.2,1.48,0,2.15-0.4c2.95-2.35,6.31-4.3,10.26-5.51
			c0.61-0.2,0.94,0,0.75,0.6c-1.55,1.21-2.69,2.74-3.36,4.77c0,0.6,0.4,0.88,1.27,0.8c0.67-0.2,1.21-0.13,1.62,0.14
			c0.61,0.14,1.07-0.06,1.48-1.01c0.4-2.62,2.01-4.43,4.35-5.71c1.08-0.13,1.54,0.34,1.41,1.36c-0.88,0.92-1.54,1.93-1.82,3
			c0.07,1.01,0.61,1.35,1.49,1.08c0.53,0,0.93-0.47,1.27-1.34c0.88-1.61,3.16-1.61,4.03,0c0.33,0.87,0.75,1.34,1.21,1.34
			c0.94,0.28,1.48-0.06,1.54-1.08c-0.27-1.06-0.94-2.07-1.81-3c-0.14-1.02,0.33-1.49,1.41-1.36c2.35,1.28,3.95,3.09,4.37,5.71
			c0.33,0.94,0.88,1.15,1.4,1.01c0.47-0.27,1.01-0.34,1.68-0.14c0.87,0.08,1.27-0.2,1.27-0.8c-0.66-2.02-1.8-3.56-3.35-4.77
			c-0.2-0.6,0.15-0.81,0.75-0.6c3.96,1.2,7.31,3.15,10.27,5.51c0.67,0.4,1.4,0.6,2.13,0.4c1.07-0.67,2.29-1.07,3.63-1.4
			c0.81-0.14,1.06-0.74,0.88-1.69c-0.61-0.87-1.49-1.41-2.69-1.54c-0.46,0.07-0.88-0.06-1.2-0.4c-0.74-1.28-2.09-1.75-3.9-1.47
			c-0.88-1.02-2.09-1.21-3.35-1.15c-1.14-1.2-2.43-1.34-3.77-1.07c-1.48-0.95-2.81-1.27-3.96-0.67c-1.87-0.75-3.48-0.47-4.83,0.41
			c-0.47-1-1.14-1.76-2.22-2.16v-1.2h1.75V13.2h-1.75v-1.81h-2.96v1.81h-1.74v1.74h1.74v1.2c-1.07,0.4-1.81,1.16-2.22,2.16
			c-1.41-0.87-2.95-1.15-4.83-0.41c-1.2-0.6-2.54-0.27-3.95,0.67c-1.35-0.27-2.62-0.13-3.77,1.07c-1.34-0.06-2.48,0.14-3.35,1.15
			c-1.81-0.28-3.16,0.19-3.89,1.47c-0.33,0.34-0.74,0.47-1.22,0.4c-1.2,0.14-2.07,0.67-2.68,1.54
			C72.32,25.14,72.59,25.74,73.38,25.88 M99.97,17.08c0.94,0,1.68,0.95,1.68,2.15c0,1.21-0.74,2.23-1.68,2.23
			c-0.93,0-1.74-1.01-1.74-2.23C98.23,18.03,99.04,17.08,99.97,17.08"/>
		<path class="st4" d="M75.54,45.69h48.86v-4.58H75.54V45.69z M118.9,42.13c0.74,0,1.35,0.6,1.35,1.34c0,0.75-0.6,1.35-1.35,1.35
			c-0.74,0-1.35-0.6-1.35-1.35C117.55,42.73,118.16,42.13,118.9,42.13 M109.58,42.13c0.73,0,1.33,0.6,1.33,1.34
			c0,0.75-0.6,1.35-1.33,1.35c-0.74,0-1.36-0.6-1.36-1.35C108.22,42.73,108.84,42.13,109.58,42.13 M99.97,42.13
			c0.74,0,1.34,0.6,1.34,1.34c0,0.75-0.6,1.35-1.34,1.35c-0.73,0-1.33-0.6-1.33-1.35C98.64,42.73,99.24,42.13,99.97,42.13
			 M90.37,42.13c0.74,0,1.35,0.6,1.35,1.34c0,0.75-0.61,1.35-1.35,1.35c-0.73,0-1.35-0.6-1.35-1.35
			C89.03,42.73,89.64,42.13,90.37,42.13 M80.97,42.13c0.74,0,1.35,0.6,1.35,1.34c0,0.75-0.61,1.35-1.35,1.35
			c-0.73,0-1.33-0.6-1.33-1.35C79.64,42.73,80.24,42.13,80.97,42.13"/>
		<rect x="75.54" y="38.84" class="st4" width="48.86" height="1.21"/>
	</g>
	<g class="st3">
		<path class="st4" d="M45.89,99.52c0,11.75-6.06,21.87-21.03,21.87c-14.87,0-20.93-10.11-20.93-21.87V78.84l0.46-2l-0.46-0.27
			c0-2.37,0.18-4.65,0.73-6.74c0.55-2.19,1.29-4.19,2.48-5.92c0.92-1.64,2.11-3.19,3.49-4.46c2.02-1.73,4.5-3.1,7.44-3.92
			c1.29-0.36,2.75-0.64,4.22-0.27c0.55-0.36,1.19-0.46,1.84-0.55h0.73c14.97,0,21.03,10.11,21.03,21.87v1.37l-0.18,1.18l0.18,0.18
			h-1.38l-1.93,0.18h-2.11l-7.8-0.18h-0.83v-4.19c0-4.46-1.56-7.11-4.5-7.93c-0.64-0.27-1.29-0.36-2.11-0.27
			c-0.09-0.09-0.18-0.09-0.28-0.09h-0.09c-3.58,0-5.88,1.73-6.61,5.28c-0.18,0.73-0.28,1.64-0.37,2.64c0.09,0,0.09,0.18,0.09,0.27
			v2.64l-0.18,3.55v3.92l0.18,15.85c0,5.56,2.39,8.29,6.89,8.29c2.3,0,4.04-0.73,5.23-2.1c0.64-0.73,1.1-1.73,1.74-2.92
			c-0.09-0.55,0-1.18,0-1.91v-3.01l0.28-0.82l-0.18-0.82l-0.09-0.73h2.85l2.85,0.18l5.42-0.18l1.65,0.27l0.73-0.18l0.55-0.09V99.52z
			"/>
		<path class="st4" d="M83.99,118.66l-2.39-11.3h-8.45l-6.52,0.09l-1.84,6.92l-0.28,3.01l-0.18,1.28H49.84l0.92-3.1l1.47-6.1
			l2.66-10.93l2.85-10.75l7.99-32.89h16.89l1.56,6.38l1.74,8.84l2.48,9.75l10.1,38.81H83.99z M73.16,95.24l5.97,0.18l-2.57-12.39
			l-1.47-6.47l-0.64-3.01l-0.09-0.55l-0.18-0.55v-0.18l-1.01,4.65l-1.38,6.2l-1.47,7.11l-1.01,5.01H73.16z"/>
		<path class="st4" d="M143.85,101.44v0.27c0,3.19-0.64,6.2-1.84,8.84c-1.01,2.28-2.48,4.19-4.5,5.92
			c-1.38,1.18-2.94,2.19-4.87,3.01c-2.85,1.18-6.15,1.91-10.1,1.91c-7.44,0-12.76-2.19-16.07-5.92c-1.84-2.1-3.12-4.46-3.4-6.83
			c-0.73-1.55-1.1-3.01-1.29-4.37c-0.18-1-0.18-1.91-0.18-2.92h7.07l3.86,0.27l1.84-0.18l1.29-0.09c0,2.1,0.46,3.74,1.29,5.01
			c0.55,0.82,1.29,1.55,1.93,2.1c0.64,0.27,1.29,0.46,1.93,0.64c0.55,0.09,1.01,0.09,1.47,0.18c0.18,0,0.37,0,0.46,0.18
			c0.09-0.18,0.18-0.18,0.18-0.18c4.04,0,6.89-2.28,6.89-6.29c0-3.74-1.84-5.83-5.51-7.84c-1.19-0.73-2.57-1.28-4.13-1.64
			c-0.46-0.46-0.92-0.73-1.29-0.91c-0.18,0-0.28-0.09-0.37-0.09c-10.93-4.74-15.33-11.3-15.33-19.86c0-4.1,1.47-8.56,4.68-12.03
			c1.74-1.91,3.95-3.46,6.89-4.28c1.29-0.73,2.75-1.18,4.32-1.37c1.1-0.18,2.3-0.27,3.49-0.27c6.79,0,11.57,2.55,14.78,6.01
			c1.74,1.91,3.03,4.1,3.49,6.74c0.55,1,0.83,2.1,1.01,3.19c0.18,0.73,0.18,1.55,0.18,2.28h-13.77c0-0.73-0.09-1.46-0.28-2.1
			l-0.46-1.46c-0.37-0.55-0.73-1-1.19-1.46c-0.46-0.46-1.1-0.82-1.74-1c-0.28-0.18-0.64-0.27-1.01,0c-0.18-0.18-0.37-0.27-0.64-0.36
			h-0.37c-2.75,0-4.68,1.64-5.33,3.74c-0.18,0.46-0.28,0.91-0.46,1.46c0.18,0,0.18,0.09,0.18,0.18c0,1.09,0.09,2.1,0.55,3.01
			c0.37,0.82,1.01,1.64,1.93,2.55c0.73,0.55,1.56,1.18,2.66,1.82c1.65,1,3.76,2,6.61,3.28c1.01,0.46,2.02,0.82,2.94,1.28
			c1.19,0.55,2.39,1.18,3.21,2.19c1.19,0.64,2.3,1.37,3.31,2.19c1.56,1.28,2.75,2.73,3.67,4.37c0.64,1.18,1.1,2.37,1.1,4.01
			c0.37,0.64,0.64,1.37,0.73,2.28C143.85,99.61,143.85,100.53,143.85,101.44z"/>
		<path class="st4" d="M181.49,118.66l-2.39-11.3h-8.45l-6.52,0.09l-1.84,6.92l-0.28,3.01l-0.18,1.28h-14.51l0.92-3.1l1.47-6.1
			l2.66-10.93l2.85-10.75l7.99-32.89h16.89l1.56,6.38l1.74,8.84l2.48,9.75l10.1,38.81H181.49z M170.66,95.24l5.97,0.18l-2.57-12.39
			l-1.47-6.47l-0.64-3.01l-0.09-0.55l-0.18-0.55v-0.18l-1.01,4.65l-1.38,6.2l-1.47,7.11l-1.01,5.01H170.66z"/>
	</g>
</g>
</svg>
