<?xml version="1.0" encoding="utf-8"?>
<!-- Generator: Adobe Illustrator 23.1.1, SVG Export Plug-In . SVG Version: 6.00 Build 0)  -->
<svg version="1.1" id="레이어_1" xmlns="http://www.w3.org/2000/svg" xmlns:xlink="http://www.w3.org/1999/xlink" x="0px"
	 y="0px" viewBox="0 0 833 833" style="enable-background:new 0 0 833 833;" xml:space="preserve">
<style type="text/css">
	.st0{fill:#FFFFFF;}
</style>
<title>piment</title>
<path class="st0" d="M489.93,230.99H378.1v36.25h-63.77v130.14c0,9.63,7.73,19.93,19.21,19.93h21.33c4.48,0,10,3.58,12.19,6.09
	l2.15,2.45l2.93,3.31l2.94-3.29l2.16-2.44c2.3-2.61,7.85-6.19,12.31-6.19h21.33c11.5,0,19.23-10.3,19.23-19.93v-10.96
	c0.28,0.25,0.54,0.51,0.79,0.79l2.16,2.45l2.91,3.31l2.94-3.29l2.18-2.44c2.29-2.61,7.83-6.19,12.3-6.19h21.26
	c11.5,0,19.23-10.3,19.23-19.95V230.93L489.93,230.99z"/>
<path d="M355.48,360.02c-1.45,0.85-4.82,0.99-7.39,0.99c-1.19,0.16-2.39,0.2-3.58,0.11c0.23,1.69,1.33,3.26,4.34,3.26
	C351.87,364.37,356.07,361.95,355.48,360.02 M375.73,411.29c4.14-2.79,8.98-4.38,13.97-4.57h21.24c2.23-0.08,4.34-1,5.91-2.59
	c1.86-1.81,2.9-4.31,2.88-6.9v-16.21c-0.35,0-0.7,0-1.04,0h-21.23c-5.38-0.01-10.5-2.35-14.02-6.43c-3.29-3.73-5.14-8.52-5.2-13.5
	v-11.73h-2.53L375.73,411.29z M353.3,347.37c1.69,0,1.52-0.49,1.69-1.33c0.08-1.2-0.67-2.3-1.81-2.67c-1.45-0.59-5.9-2.53-7.47-3.05
	c-1.63-0.59-3.44,0.13-4.22,1.68c-1.52,3.5,3.37,4.57,5.42,5.07c2.11,0.32,4.25,0.4,6.38,0.24 M358.84,355.03
	c-3.23,0.41-6.49,0.57-9.75,0.49c-2.06,0-3.17-0.98-4.36-0.98c-1.19,0-2.18,0.37-1.52,2.29c0.66,1.92,1.94,2.42,4.34,2.42
	c3.37,0.06,6.73-0.31,10.01-1.08c2.53-0.84,1.81-2.16,1.2-3.14 M372.27,364.08v-14.48c-1.38-0.01-2.68-0.68-3.49-1.8
	c-1.22-1.2-1.69-3.87-2.3-5.07c-0.93-1.37-2.02-2.62-3.25-3.73c-1.36-1.58-2.81-3.07-4.36-4.46c-0.7-0.49-2.53,0.12-3.96,0.12
	s-4.46-1.94-5.55-0.85s0.47,3.75,1.68,4.95c1.56,1.45,3.48,2.45,5.56,2.9c2.27,0.49,2.16,3.26,1.68,5.42
	c4.71,1.52,5.09,5.07,3.5,7.24c0.45,0.68,0.7,1.47,0.72,2.29c0,1.34-1.2,3.14-4.1,4.57l0.24,4.1c4.5-0.81,9.05-1.21,13.62-1.2
	 M344.17,352.72c1.52,0.48,3.11,0.72,4.71,0.73c1.52,0,6.09-0.11,8.08-0.11c1.98,0,2.42-0.85,2.42-2.06s-2.32-1.92-3.86-2.15
	c-2.33-0.24-4.67-0.33-7.01-0.26c-1.36-0.13-2.69-0.44-3.96-0.94c-0.49-0.14-1.34,0.58-1.83,2.03c-0.37,1.13,0.24,2.34,1.37,2.71
	c0.05,0.02,0.1,0.03,0.16,0.04 M350.27,366.86c-0.3-0.06-0.59-0.17-0.85-0.32l-0.34,35.56c-0.18,1.17,0.12,2.36,0.82,3.31
	c0.53,0.61,1.24,1.05,2.03,1.26c0.67,0.17,1.37,0.17,2.04,0c0.62-0.15,0.96-0.35,1.02-0.56l0.14-41.32
	c-0.11,0.21-0.24,0.41-0.4,0.59c-1.11,1.26-2.83,1.81-4.46,1.43 M411.31,322.32c-1.2,0.16-2.42,0.21-3.63,0.14
	c0.23,1.66,1.33,3.25,4.33,3.25s7.25-2.41,6.63-4.33C417.2,322.21,413.82,322.32,411.31,322.32 M421.97,316.42
	c-3.23,0.4-6.49,0.56-9.75,0.47c-2.09,0-3.17-0.96-4.37-0.96s-2.15,0.35-1.45,2.3c0.7,1.95,1.94,2.41,4.36,2.41
	c3.37,0.05,6.73-0.32,10.01-1.08C423.28,318.71,422.57,317.38,421.97,316.42 M429.67,304.11c-0.94-1.36-2.03-2.61-3.25-3.72
	c-1.36-1.54-2.8-3-4.33-4.37c-0.75-0.49-2.54,0.11-4.01,0.11s-4.43-1.9-5.53-0.82c-1.1,1.08,0.5,3.73,1.68,4.94
	c1.56,1.46,3.49,2.46,5.58,2.9c2.29,0.47,2.16,3.26,1.68,5.45c4.71,1.52,5.07,5.04,3.49,7.22c0.46,0.67,0.71,1.47,0.72,2.29
	c0,1.33-1.19,3.12-4.08,4.57l0.23,4.1c4.53-0.81,9.12-1.22,13.71-1.2V311.1c-1.39-0.02-2.69-0.69-3.52-1.81
	c-1.19-1.22-1.69-3.87-2.3-5.07 M393.72,249.79c1,0.42,2.11,0.53,3.17,0.3l3.05-0.29c-0.75,0.46-1.48,0.97-2.16,1.52
	c-1.61,1.29-2.97,2.87-3.99,4.66c-1,1.74-1.53,3.71-1.52,5.71c0,6.29,2.56,11.12,10.5,12.77l0,0c4.04,0.53,8.14,0.14,12.01-1.14
	c2.74-0.79,5.29-2.13,7.5-3.93c0.83-0.69,1.58-1.49,2.21-2.38c0.39-0.56,0.63-1.22,0.69-1.9c0.07-0.54-0.06-1.08-0.37-1.52
	c-0.25-0.37-0.55-0.69-0.9-0.96c-0.28-0.23-0.6-0.4-0.94-0.52c-0.18-0.07-0.37-0.12-0.56-0.15c-1.97,2.62-4.55,4.71-7.51,6.09
	c-2.87,1.31-5.99,1.97-9.14,1.95c-1.01-0.15-2.01-0.4-2.97-0.76c-3.38-1.75-5.07-4.26-5.07-7.53c-0.02-1.77,0.56-3.5,1.65-4.91
	c1.22-1.55,2.73-2.85,4.45-3.82c2.02-1.17,4.19-2.05,6.45-2.62c2.69-0.54,5.41-0.86,8.15-0.96c4.21,0,8.38,0.83,12.27,2.44
	c1.49,0.62,2.88,1.43,4.16,2.41c1.19,0.72,2.22,1.67,3.05,2.79c0.77,1.1,1.17,2.42,1.14,3.76c0,3.64-1.9,6.39-5.7,8.26
	c-1.46,0.71-2.99,1.26-4.57,1.65c-1.13,0.18-2.25,0.43-3.35,0.76c-2.29,0.67-4.43,1.75-6.32,3.2c-1.72,1.32-3.12,3.02-4.1,4.95
	c-1.01,1.96-1.53,4.13-1.52,6.34v5.15c0.09,0.5,0.32,0.97,0.66,1.36c0.95,1.08,2.41,1.55,3.81,1.23c0.32-0.05,0.62-0.19,0.87-0.4
	v-9.14c0.31-2.57,1.73-4.88,3.89-6.32c1.73-1.23,3.72-2.06,5.81-2.44l0,0c3.11-0.56,6.11-1.63,8.88-3.15
	c4.33-2.15,7.08-6.55,7.12-11.38l0,0l0.12-15.72c-0.37-0.33-0.84-0.53-1.34-0.56c-0.66-0.08-1.33,0.03-1.92,0.34
	c-0.67,0.36-1.2,0.93-1.52,1.62c-0.43,1-0.53,2.11-0.3,3.17l0.15,1.75l-0.7-0.52c-1.71-1.18-3.57-2.14-5.53-2.85
	c-2.04-0.76-4.13-1.26-6.09-1.83c-3.22-0.86-6.55-1.23-9.87-1.1l0,0l-25.05-0.12c-0.34,0.37-0.54,0.84-0.56,1.34
	c-0.09,0.66,0.03,1.33,0.34,1.92c0.36,0.67,0.92,1.2,1.6,1.52 M489.99,233.91H381.15v127.09c0,8.21,6.54,17,16.27,17h21.24
	c5.64,0,11.84,4.18,14.45,7.15l2.15,2.44l0.73,0.82l0.73-0.82l2.18-2.42c2.62-3.05,8.85-7.16,14.48-7.16h21.24
	c9.74,0,16.29-8.79,16.29-17V233.93L489.99,233.91z M475.87,373.36c-0.4,0.05-0.8,0.07-1.2,0.08h-21.27
	c-1.97,0.02-3.93,0.35-5.81,0.98v-2.85h8.03v1.86h2.01v-1.86h3.05v1.86h2.01v-1.86h3.05v1.86h2.07v-1.86h8.08L475.87,373.36z
	 M447.59,315.83h8.03v3.05h-8.08L447.59,315.83z M455.66,328.93h-3.05v-8.06h3.05V328.93z M450.62,328.93h-3.05v-8.06h3.05V328.93z
	 M455.66,333.98h-8.08v-3.05h8.03L455.66,333.98z M455.66,339.02h-8.08v-3.05h8.03L455.66,339.02z M455.66,349.11h-3.05v-8.08h3.05
	V349.11z M450.62,349.11h-3.05v-8.08h3.05V349.11z M455.66,354.15h-8.08v-3.05h8.03L455.66,354.15z M455.66,359.19h-8.08v-3.05h8.03
	L455.66,359.19z M455.66,369.28h-3.05v-8.08h3.05V369.28z M450.62,369.28h-3.05v-8.08h3.05V369.28z M465.75,328.93h-8.08v-3.05h8.08
	V328.93z M457.67,320.87h8.08v3.05h-8.08V320.87z M465.75,339.02h-3.05v-8.06h3.05V339.02z M460.71,339.02h-3.05v-8.06h3.05V339.02z
	 M465.75,344.06h-8.08v-3.05h8.08V344.06z M465.75,349.11h-8.08v-3.05h8.08V349.11z M465.75,359.19h-3.05v-8.08h3.05V359.19z
	 M460.71,359.19h-3.05v-8.08h3.05V359.19z M465.75,364.24h-8.08v-3.05h8.08V364.24z M465.75,369.28h-8.08v-3.05h8.08V369.28z
	 M467.76,361.21h3.05v8.08h-3.05V361.21z M475.84,369.28h-3.05v-8.08h3.05V369.28z M475.84,359.19h-8.03v-3.05h8.08L475.84,359.19z
	 M475.84,354.15h-8.03v-3.05h8.08L475.84,354.15z M467.76,341.03h3.05v8.08h-3.05V341.03z M475.84,349.11h-3.05v-8.08h3.05V349.11z
	 M475.84,339.02h-8.03v-3.05h8.08L475.84,339.02z M475.84,333.98h-8.03v-3.05h8.08L475.84,333.98z M467.76,320.87h3.05v8.06h-3.05
	V320.87z M475.84,328.93h-3.05v-8.06h3.05V328.93z M475.84,318.85h-8.03v-3.05h8.08L475.84,318.85z M486.35,361.05
	c0.02,2.96-1,5.83-2.9,8.11V310.8h-7.62v2.93h-8.03v-3.05h-2.01v8.2h-3.05v-8.06h-2.01v8.06h-3.05v-8.06h-2.07v3.05h-8.08v-3.05
	h-8.69v68.29c-1.02,0.77-1.99,1.62-2.9,2.53c-3.25-3.37-10.29-8.12-17.34-8.12h-21.18c-6.64-0.26-11.84-5.79-11.7-12.43v-122.6
	h100.64L486.35,361.05z M416.49,308.9c1.66,0,1.52-0.49,1.66-1.34c0.08-1.19-0.65-2.28-1.78-2.65c-1.52-0.61-5.91-2.53-7.5-3.05
	c-1.63-0.58-3.43,0.14-4.21,1.69c-1.43,3.49,3.4,4.57,5.42,5.09c2.12,0.3,4.26,0.37,6.4,0.23 M375.18,330.91
	c0.57,0,1.13-0.13,1.63-0.4c0.49-0.27,0.73-0.5,0.75-0.7l-7.85-46.9c0-0.68-0.35-1.3-0.93-1.66c-0.89-0.35-1.85-0.5-2.8-0.44
	c-0.91-0.09-1.83,0.11-2.64,0.55c-0.55,0.43-0.98,1.01-1.23,1.66l-0.44,1.33c-0.11,0.56-0.46,1.05-0.96,1.33
	c-0.71,0.28-1.47,0.39-2.22,0.35h-11.46c-0.76,0.04-1.52-0.08-2.22-0.35c-0.5-0.28-0.85-0.76-0.96-1.33l-0.44-1.33l0,0
	c-0.24-0.66-0.66-1.23-1.22-1.66c-0.8-0.44-1.72-0.63-2.64-0.55c-0.96-0.06-1.91,0.09-2.8,0.44c-0.58,0.36-0.93,0.98-0.93,1.66
	l-7.85,46.9c0,0.2,0.26,0.43,0.75,0.7c0.5,0.26,1.06,0.4,1.63,0.4c0.65-0.02,1.28-0.25,1.8-0.66c0.73-0.69,1.15-1.65,1.16-2.65
	v-0.23c0.05-0.49,0.33-0.93,0.76-1.17c0.54-0.22,1.11-0.34,1.69-0.34h10.82c0.75-0.05,1.51,0.07,2.21,0.35
	c0.46,0.28,0.74,0.79,0.73,1.33l0.23,1.33v0.76c0.12,0.35,0.3,0.67,0.55,0.94c0.57,0.64,1.31,1.11,2.13,1.34
	c0.71,0.18,1.45,0.18,2.16,0c0.23-0.05,0.45-0.12,0.66-0.23v-2.86l0.24-1.33c-0.01-0.54,0.27-1.04,0.73-1.33
	c0.7-0.28,1.45-0.4,2.19-0.35h11.32c0.58,0,1.16,0.11,1.69,0.34c0.42,0.26,0.7,0.69,0.76,1.17v0.23c0.01,1,0.43,1.96,1.16,2.65
	c0.51,0.41,1.14,0.64,1.8,0.66 M349.79,319L349.79,319l-0.23,1.34c0,0.54-0.28,1.04-0.75,1.31c-0.7,0.28-1.44,0.4-2.19,0.37h-10.32
	c-0.55,0.04-1.11-0.06-1.62-0.27c-0.32-0.22-0.47-0.61-0.4-0.99l1.52-9.48l0.21-0.99c0.03-0.55,0.33-1.04,0.79-1.33
	c0.7-0.28,1.46-0.4,2.21-0.35h8.15c0.63-0.03,1.27,0.09,1.84,0.35c0.46,0.27,0.75,0.77,0.75,1.31l0.14,0.79L349.79,319z
	 M349.96,301.81l-0.23,1.3c0,0.54-0.28,1.04-0.75,1.31c-0.69,0.29-1.44,0.41-2.19,0.37h-8.26c-0.39-0.01-0.78-0.09-1.14-0.26
	c-0.32-0.22-0.47-0.61-0.4-0.99l1.69-10.82l0.27-1.28c0.04-0.54,0.33-1.03,0.79-1.31c0.54-0.23,1.13-0.35,1.72-0.35h5.39
	c0.75-0.05,1.51,0.07,2.21,0.37c0.46,0.28,0.73,0.78,0.73,1.31l0.23,1.31L349.96,301.81z M355.34,292.82L355.34,292.82l0.23-1.34
	c0-0.54,0.28-1.04,0.75-1.31c0.69-0.29,1.44-0.42,2.19-0.37h5.42c0.59,0,1.18,0.12,1.72,0.35c0.46,0.28,0.76,0.77,0.79,1.31
	l0.27,1.28l1.69,10.82c0.07,0.38-0.09,0.76-0.4,0.99c-0.36,0.16-0.75,0.25-1.14,0.26h-8.4c-0.75,0.04-1.5-0.08-2.19-0.37
	c-0.46-0.28-0.73-0.78-0.73-1.31l-0.23-1.34l0,0L355.34,292.82z M370.71,321.77c-0.51,0.22-1.06,0.31-1.62,0.27h-10.67
	c-0.75,0.04-1.5-0.09-2.19-0.37c-0.46-0.27-0.75-0.77-0.75-1.31l-0.23-1.34l0,0v-7.39l0,0l0.23-1.34c0-0.53,0.27-1.03,0.73-1.31
	c0.58-0.26,1.21-0.38,1.84-0.35h8.29c0.75-0.05,1.5,0.07,2.19,0.35c0.47,0.28,0.78,0.78,0.81,1.33l0.21,0.99l1.52,9.48
	c0.07,0.38-0.09,0.76-0.4,0.99 M422.51,397.55c0.14,6.65-5.07,12.18-11.72,12.43h-21.21c-7.02,0-14.11,4.77-17.37,8.12
	c-3.25-3.35-10.29-8.12-17.34-8.12h-21.24c-6.64-0.26-11.84-5.79-11.7-12.43V275.04h56.38v-4.57h-60.95v127.11
	c0,8.2,6.54,16.99,16.27,16.99h21.24c5.64,0,11.84,4.18,14.45,7.15l2.15,2.44l0.73,0.84l0.73-0.82l2.18-2.44
	c2.62-2.97,8.85-7.16,14.48-7.16h21.24c9.74,0,16.29-8.79,16.29-16.99v-13.71c-1.43-0.93-2.96-1.68-4.57-2.24L422.51,397.55z
	 M407.44,314.3c1.53,0.47,3.11,0.72,4.71,0.73c1.52,0,6-0.12,8.08-0.12c2.07,0,2.41-0.85,2.41-2.06s-2.29-1.94-3.86-2.15
	c-2.33-0.23-4.67-0.31-7.01-0.24c-1.36-0.12-2.7-0.45-3.96-0.99c-0.5-0.11-1.34,0.61-1.81,2.06c-0.4,1.11,0.18,2.33,1.29,2.73
	C407.33,314.27,407.39,314.29,407.44,314.3 M415.92,327.94c-0.65,0.17-1.33,0.17-1.98,0c-0.36-0.05-0.69-0.21-0.94-0.46l-0.35,38.93
	c-0.17,1.17,0.12,2.36,0.81,3.32c0.54,0.62,1.25,1.06,2.04,1.26c0.67,0.17,1.37,0.17,2.04,0c0.62-0.15,0.96-0.34,1.02-0.56v-45.48
	c-0.08,0.61-0.33,1.19-0.72,1.66c-0.53,0.59-1.22,1.02-1.98,1.23"/>
<path d="M814.18,546.64c-5.74-3.52-6.48-4.82-6.48-12.4V490.8c0-6.29-0.2-8.88-2.77-12.95c-7.22-11.47-19.43-17.93-30.47-17.93
	c-5.18,0-9.8,1.52-17.39,8.14c-5.73-6.09-9.98-8.14-14.98-8.14c-6.09,0-13.12,4.57-21,14.22c-6.47-9.09-17.04-14.35-28.19-14.03
	c-6.28,0-10.67,1.66-26.25,12.57c-5.27,3.39-9.75,7.87-13.13,13.13v-49.6c0-17.93-9.98-27.55-22.86-27.55
	c-9.63,0-21.09,6.09-34.59,20.71v0.18c11.66,5,12.39,8.32,12.39,16.27v14.77c-7.39-0.18-14.05,4.57-20.89,10.18
	c-0.87,0.72-1.66,1.43-2.47,2.15c-7.41-9.05-15.97-13.44-23.6-13.44c-3.34,0-8.14,0.93-13.71,8.14c-3.7-6.09-8.33-7.95-13.13-7.95
	c-6.43,0-13.38,3.46-23.36,17.14c-6.98-11.2-18.51-16.76-31.19-16.76c-12.45,0-26.28,6.4-40.33,22.66
	c-6.29-15.15-19.47-22.66-34.19-22.66c-12.27,0-25.9,6.25-39.74,21.99c-7.39-13.96-21.87-21.99-37.93-21.99
	c-6.66,0-15.91,3.89-24.96,11.64c-4.18,3.69-7.94,7.84-11.21,12.36c-6.09-15.91-18.28-24-33.52-24c-6.29,0-10.67,1.66-26.27,12.57
	c-5.09,3.31-9.45,7.62-12.81,12.68c-7.48-15.48-23.31-25.25-38.4-25.25c-6.84,0-15.72,4.07-23.48,10.16
	c-6.52,5.15-11.17,9.71-14.45,15.01l1.52-40.52c0.75-22.38-13.12-33.52-28.48-33.52c-12.94,0-24.59,7.77-36.8,22.93
	c-2.96-15.36-13.87-22.93-25.9-22.93c-14.05,0-26.62,7.21-39.94,29.77v0.18c15.34,1.11,19.23,4.8,19.41,15.72l0.37,25.51
	c-8.66,9.14-15.22,20.06-19.23,32l18.68-0.18h0.18l-0.75,29.77c-0.55,22.37,13.13,33.52,28.48,33.52c13.13,0,24.61-7.76,36.43-22.55
	c3.15,15.16,14.06,22.55,26.09,22.55c9.14,0,17.29-3.17,25.49-11.72c7.86,7.79,19.14,11.17,33.31,11.17
	c7.1,0,25.23-11.52,34.36-25.51c6.57,17.64,20.74,25.51,39.04,25.51c10.67,0,25.26-6.64,35.23-17.71c2.39,3.23,5.37,5.98,8.79,8.09
	c-7.41,3.7-14.06,9.98-25.52,30.89l0.18,0.37h7.39c21.45,0,26.27,8.32,36.81,8.32c3.14,0,12.94-2.96,25.52-10.91
	c13.06-8.3,20.19-15.79,23.85-28.52c5.59,6.09,13.71,9.48,23.85,9.48c4.57,0,11.84-3.14,17.95-7.77c4.43,5.36,9.42,7.77,14.41,7.77
	c5.7,0,12.3-3.05,18.47-9.28c5.59,5.94,13.71,9.28,23.69,9.28c4.57,0,11.84-3.14,17.93-7.77c4.45,5.36,9.43,7.77,14.43,7.77
	c6.64,0,14.49-4.04,21.45-12.65c4.3,8,12.74,12.89,21.82,12.65c10.06,0,21.33-7.12,29.65-21.23c6.86,16.2,19.81,21.23,33.03,21.23
	h0.18c3.14-0.37,9.07-3.52,15.34-8.32c4.07,4.98,9.81,8.32,15.24,8.32c8.26,0,16.36-5.53,22.61-13.71
	c7.62,9.4,18.91,13.71,32.49,13.71c10.15,0,23.77-5.97,33.64-16.01c0.86,6.2,2.49,12.28,4.83,18.09
	c15.72-1.3,29.96-7.39,38.47-16.08c4.25,8.14,13.5,14.05,21.64,14.05c14.23,0,22.73-8.7,33.52-25.71L814.18,546.64z M96.02,544.05
	v1.66c-14.25-0.55-16.76-4.45-17.02-14.25l-0.37-17.37l7.21-0.2l11.29,0.38L96.02,544.05z M88.99,475.07l-10-0.18l0.93-30.14v-1.68
	c14.23,0.56,16.76,4.25,17,14.25l0.38,17.57L88.99,475.07z"/>
<path d="M798.17,454.7c-0.08-5.89,4.64-10.73,10.53-10.8c5.89-0.08,10.73,4.64,10.8,10.53c0.08,5.89-4.64,10.73-10.53,10.8
	c-0.05,0-0.09,0-0.14,0c-5.79,0.1-10.56-4.51-10.66-10.3C798.17,454.86,798.17,454.78,798.17,454.7 M808.83,463.46
	c4.83,0.11,8.83-3.72,8.94-8.55s-3.72-8.83-8.55-8.94c-4.83-0.11-8.83,3.72-8.94,8.55c0,0.06,0,0.12,0,0.18
	c-0.17,4.67,3.48,8.59,8.15,8.76C808.57,463.46,808.7,463.46,808.83,463.46 M806.63,460.77h-1.83v-12.08h4.57
	c2.86,0,4.28,1.05,4.28,3.44c0.1,1.73-1.22,3.22-2.95,3.32c-0.07,0-0.14,0.01-0.2,0.01l3.46,5.32h-2.07l-3.18-5.23h-2.1
	L806.63,460.77z M808.8,453.99c1.52,0,2.96-0.11,2.96-1.98c0-1.52-1.37-1.77-2.64-1.77h-2.5v3.75H808.8z"/>
<path class="st0" d="M697.89,549.97c-7.95,0-17.75-3.14-18.86-26.63c25.9-6.66,39.39-15.71,39.39-19.05c0-20.52-10.91-32-25.16-32
	c-3.07,0.07-6.07,0.97-8.69,2.59c-7.1,4.41-13.86,9.37-20.2,14.81c-3.14,3.14-4.07,6.28-4.57,11.46c-0.77,7.8-1.14,15.64-1.11,23.48
	c0,27,12.19,40.14,32.18,40.14c8.69,0,24.59-7.95,31.07-17.39c-1.04-2.03-2.28-3.95-3.7-5.73
	C711.94,547.01,704.73,549.97,697.89,549.97 M680.87,486.35c1.07-0.37,2.2-0.56,3.34-0.55c7.95,0,14.43,7.62,14.43,22.37
	c-3.34,2.59-9.63,5.18-19.81,7.77c-0.19-9.9,0.49-19.81,2.03-29.59 M180.66,472.3c-4.82,0-10.67,3.69-16.09,7.76
	c-7.95,6.09-13.32,12.4-14.8,17.95c-1.66,6.46-2.03,14.98-2.03,27.43c0,27.55,11.64,39.39,33.84,39.39
	c6.46,0,24.38-14.05,27.43-26.82c1.46-7.06,2.14-14.25,2.03-21.45c0-10.91-0.91-21.44-2.21-24.59c-5-11.84-16.84-19.6-28.11-19.6
	 M187.74,551.14c-12.57,0-19.6-7.62-19.6-27.93c0-15.34,0.18-26.07,1.84-36.98c8.88,0,17.2,7.62,19.81,16.27
	c0.7,5.46,1.01,10.96,0.91,16.46c0,12.39-0.73,24.04-2.96,32.18 M131.06,539.42l-0.93-45.12l1.66-49.93
	c0.38-12.75-6.66-20.89-16.27-20.89c-5.36,0-12.94,4.25-19.05,10.91c8.32,1.52,12.19,5.91,12.39,14.98l0.75,37.35l-20.52,0.56
	l-22.86-0.38l1.52-42.53c0.37-12.75-6.66-20.89-16.27-20.89c-5.36,0-12.95,4.25-19.05,10.91c8.32,1.52,12.19,5.91,12.39,14.98
	l0.37,37.73c-4.75,4.72-9.08,9.86-12.94,15.34l0.18,0.37l12.75-0.18l-1.2,41.77c-0.37,12.75,6.66,20.89,16.27,20.89
	c5.36,0,12.95-4.25,19.05-10.91c-8.32-1.52-12.19-5.91-12.39-14.98l-0.73-37.35l19.98-0.32l23.48,0.75l-1.43,41.92
	c-0.38,12.75,6.66,20.89,16.27,20.89c4.98,0,11.64-3.5,17.57-9.25c-8.32-3.87-10.67-7.76-10.91-16.64 M795.49,540.91v-53.09
	c-1.86-7.62-13.32-15.53-21.45-15.53c-6.84,0-16.46,8.32-18.68,10.16c-3.5-6.66-8.32-10.35-13.32-10.35
	c-5.36,0-12.39,7.62-15.89,12.75c6.28,2.03,8.5,6.48,8.5,11.28v54c-0.09,5.19,0.59,10.37,2.03,15.36c5-0.2,15.36-4.57,19.98-9.63
	c-1.11-3.97-1.67-8.07-1.66-12.19v-51.41c0-2.79,0.75-3.9,1.52-4.07c8.5-0.93,18.86,5.55,18.86,11.28v49.93
	c0,8.32,7.02,15.34,13.5,15.34c6.84,0,14.61-6.48,15.91-9.61c-5.93-2.22-9.25-7.22-9.25-14.25 M263.14,550.04
	c-7.94,0-17.75-3.14-18.85-26.63c25.9-6.66,39.39-15.71,39.39-19.05c0-20.52-10.93-32-25.16-32c-3.08,0.07-6.08,0.96-8.69,2.59
	c-7.09,4.41-13.83,9.36-20.16,14.8c-3.15,3.14-4.07,6.28-4.57,11.46c-0.73,6.84-1.1,15.53-1.1,23.48c0,27,12.19,40.14,32.17,40.14
	c8.7,0,24.59-7.95,31.07-17.39c-1.06-2.06-2.34-4-3.81-5.79c-6.28,5.36-13.49,8.32-20.34,8.32 M246.1,486.35
	c1.07-0.37,2.19-0.56,3.32-0.55c7.95,0,14.43,7.62,14.43,22.37c-3.34,2.59-9.61,5.18-19.81,7.77c-0.18-9.9,0.5-19.81,2.04-29.59
	 M357.96,491.9c-2.58-11.09-15.89-19.6-30.14-19.6c-4.57,0-10.67,3.69-16.09,7.76c-7.95,6.09-13.71,13.13-14.43,16.47
	c-1.84,8.87-2.39,17.93-2.39,29.96c0,26.07,10.35,37.35,24.38,37.35c6.7-1.79,13.16-4.4,19.23-7.77v2.22c0,15.72-5.73,22-9.8,22
	c-5.55,0-14.43-5.55-19.98-5.55c-5.55,0-7.77,2.22-17.93,14.06l0.18,0.37c12.57-0.37,17.57,5.55,26.82,5.55
	c2.39,0,9.61-3.14,18.86-9.07c17.19-10.91,21.62-19.23,21.62-36.23c0-6.09-0.91-19.61-0.91-24.04c0-9.61-0.18-24.23,0.55-33.52
	 M338.12,550.47c-14.25,0.56-22.75-5.91-22.75-26.62c0-19.61,0.73-30.89,1.66-37.73c8.14,0,18.12,5,21.09,12.19
	c-0.93,10.91-0.93,21.45-0.93,30.32c0,9.61,0.55,16.09,0.93,21.82 M504.54,540.84v-50.28c-2.41-10.91-13.5-18.28-27-18.28
	c-7.39,0-19.98,6.28-30.47,16.46c1.07,2.16,2.37,4.21,3.87,6.09c7.41-5.55,13.32-8.69,18.28-8.69c7.02,0,14.98,6.48,14.98,14.25
	v9.42c-25.71,8.88-34.39,15.24-36.43,19.61c-1.89,4.18-2.84,8.73-2.77,13.32c0,13.5,8.32,22,22.38,22
	c4.57-1.52,9.61-3.89,17.93-9.43c2.77,5.73,8.32,9.43,12.57,9.43c6.84,0,14.61-6.48,15.91-9.61c-5.36-2.22-9.25-6.48-9.25-14.25
	 M484.2,549.19c-2.65,1.3-5.55,2-8.5,2.04c-6.66,0-10.91-4.25-10.91-13.87c0-10.36,1.66-12.95,19.41-19.05V549.19z M430.02,540.87
	v-50.28c-2.41-10.91-13.5-18.28-27-18.28c-7.39,0-19.96,6.28-30.47,16.46c1.08,2.16,2.38,4.2,3.89,6.09
	c7.39-5.55,13.32-8.69,18.28-8.69c7.02,0,14.98,6.48,14.98,14.25v9.42c-25.71,8.88-34.39,15.24-36.43,19.61
	c-1.89,4.18-2.83,8.73-2.77,13.32c0,13.5,8.32,22,22.38,22c4.57-1.52,9.61-3.89,17.93-9.43c2.77,5.73,8.32,9.43,12.57,9.43
	c6.84,0,14.61-6.48,15.91-9.61c-5.36-2.22-9.25-6.48-9.25-14.25 M409.69,549.22c-2.65,1.3-5.55,2-8.5,2.04
	c-6.66,0-10.91-4.25-10.91-13.87c0-10.36,1.66-12.95,19.41-19.05V549.22z M641.21,540.9V435.12c0-8.14-6.09-14.41-12.75-14.41
	c-3.7,0-9.8,3.32-14.98,7.21c4.24,1.26,7.12,5.19,7.02,9.61v37.16c-2.97-1.54-6.27-2.36-9.61-2.39c-4.57,0-10.67,3.69-16.09,7.76
	c-7.95,6.09-13.71,13.13-14.41,16.47c-1.84,9.5-2.64,19.17-2.41,28.84c0,27.73,11.09,39.39,25.9,39.39
	c1.84-0.37,8.14-3.52,17.75-9.43c2.96,5.73,8.69,9.43,12.95,9.43c6.84,0,14.6-6.48,15.89-9.61c-5.91-2.22-9.25-7.22-9.25-14.25
	 M620.52,549.22c-2.34,1.27-4.95,1.97-7.62,2.04c-9.25,0-14.61-6.09-14.61-28.11c-0.2-12.35,0.42-24.71,1.84-36.98
	c7,0,13.93,1.45,20.34,4.25L620.52,549.22z M561.35,471.74c-3.52,0-9.07,5.74-14.06,13.32h-0.24c-0.55-7.02-5.91-13.12-11.64-13.12
	c-4.57,0-11.47,4.8-16.84,12.57c4.91,1.36,8.31,5.82,8.32,10.91v53.62c-0.17,8.26,6.19,15.19,14.43,15.72
	c6.46,0,14.05-6.48,15.53-9.8c-5.73-2.77-8.87-6.09-8.87-13.87c0-22.38,0-34.04,0.18-42.91c0.18-5.91,1.3-7.22,3.14-7.22
	c2.41,0,5.55,1.52,12.19,8.15c4.98-5.07,9.57-10.52,13.71-16.29c-4.57-6.64-11.64-11.09-15.71-11.09"/>
</svg>
