<?xml version="1.0" encoding="utf-8"?>
<!-- Generator: Adobe Illustrator 23.1.1, SVG Export Plug-In . SVG Version: 6.00 Build 0)  -->
<svg version="1.1" id="레이어_1" xmlns="http://www.w3.org/2000/svg" xmlns:xlink="http://www.w3.org/1999/xlink" x="0px"
	 y="0px" viewBox="0 0 833 833" style="enable-background:new 0 0 833 833;" xml:space="preserve">
<style type="text/css">
	.st0{fill-rule:evenodd;clip-rule:evenodd;fill:#FFFFFF;}
</style>
<title>polo-ralph-lauren-seeklogo.com</title>
<polygon class="st0" points="606.46,830.78 608.46,830.78 608.46,802.65 606.46,802.65 606.46,801.18 614.11,801.18 614.35,801.18 
	626.99,822.46 626.99,802.65 624.69,802.65 624.69,801.18 630.92,801.18 630.92,802.65 628.92,802.65 628.92,832.24 626.99,832.24 
	610.39,804.3 610.39,830.78 612.7,830.78 612.7,832.24 606.46,832.24 "/>
<path class="st0" d="M259.07,830.78h2.26v-28.14h-2.26v-1.47h13.09c1.02,0.01,2.03,0.2,2.99,0.55c1.02,0.36,1.99,0.86,2.87,1.49
	c0.9,0.75,1.63,1.67,2.16,2.72c1.02,2.11,1.02,4.58,0,6.69c-0.53,1.04-1.27,1.96-2.16,2.72c-0.88,0.63-1.85,1.13-2.87,1.49
	c-0.79,0.28-1.61,0.45-2.45,0.52l0,0l9.29,13.4h2.35v1.46h-7.39l-10.29-14.86h-0.24v13.4h2.26v1.46h-9.61v-1.46V830.78z
	 M266.42,802.64v13.27H269c0.86-0.01,1.72-0.1,2.57-0.27c0.67-0.13,1.3-0.38,1.87-0.75c0.51-0.33,0.94-0.78,1.23-1.31
	c1.02-2.76,1.02-5.79,0-8.55c-0.28-0.54-0.7-1-1.21-1.34c-0.57-0.37-1.21-0.62-1.87-0.75c-0.84-0.17-1.7-0.26-2.57-0.27
	L266.42,802.64z"/>
<path class="st0" d="M541.05,830.78h2.26v-28.14h-2.26v-1.47h13.09c1.02,0.01,2.02,0.2,2.98,0.55c1.02,0.35,1.99,0.86,2.87,1.49
	c0.92,0.74,1.67,1.67,2.22,2.72c1.02,2.11,1.02,4.58,0,6.69c-0.55,1.05-1.3,1.97-2.22,2.72c-0.87,0.63-1.82,1.13-2.82,1.49
	c-0.79,0.28-1.6,0.45-2.44,0.52l0,0l9.28,13.4h2.36v1.46h-7.39l-10.29-14.86h-0.25v13.4h2.24v1.46h-9.6v-1.46L541.05,830.78z
	 M548.39,802.64v13.27h2.59c0.86-0.01,1.72-0.1,2.57-0.27c0.66-0.13,1.3-0.39,1.87-0.75c0.51-0.34,0.92-0.8,1.21-1.34
	c1.02-2.76,1.02-5.79,0-8.55c-0.28-0.54-0.7-1-1.21-1.34c-0.57-0.37-1.21-0.62-1.87-0.75c-0.84-0.17-1.7-0.26-2.57-0.27
	L548.39,802.64L548.39,802.64z"/>
<path class="st0" d="M358.67,830.78h2.26v-28.14h-2.26v-1.47h13.09c1.02,0.01,2.02,0.2,2.98,0.55c1.02,0.35,1.99,0.86,2.87,1.49
	c0.92,0.74,1.67,1.67,2.22,2.72c1.02,2.11,1.02,4.58,0,6.69c-0.55,1.05-1.3,1.97-2.22,2.72c-0.88,0.63-1.85,1.14-2.87,1.49
	c-0.95,0.35-1.96,0.53-2.98,0.54H366v13.4h2.26v1.46h-9.6v-1.46v0.01H358.67z M366,802.64v13.27h2.59c0.86-0.01,1.72-0.1,2.57-0.27
	c0.66-0.13,1.3-0.39,1.87-0.75c0.5-0.33,0.92-0.78,1.21-1.31c1.01-2.76,1.01-5.79,0-8.55c-0.28-0.54-0.7-1-1.21-1.34
	c-0.57-0.36-1.21-0.62-1.87-0.75c-0.84-0.17-1.7-0.26-2.57-0.27L366,802.64z"/>
<path class="st0" d="M449.01,801.18h9.65v1.47h-2.26v28.14h5.33c1.25,0.03,2.46-0.43,3.36-1.3c0.84-0.86,1.45-1.92,1.79-3.07
	c0.38-1.19,0.63-2.41,0.75-3.65c0.13-1.17,0.16-2.24,0.19-3h2.16v12.48h-20.97v-1.46h2.26v-28.14h-2.26L449.01,801.18L449.01,801.18
	z"/>
<path class="st0" d="M328.94,801.18h9.58v1.47h-2.26v28.14h5.31c1.25,0.04,2.46-0.43,3.36-1.3c0.84-0.86,1.46-1.92,1.8-3.07
	c0.37-1.19,0.62-2.41,0.75-3.65c0.12-1.17,0.16-2.24,0.18-3h2.16v12.48h-20.88v-1.46h2.26v-28.14h-2.26L328.94,801.18L328.94,801.18
	z"/>
<path class="st0" d="M530.69,824.33v-21.65h1.87v-1.47h-5.7v1.47h1.87v21.3c0.05,1.79-0.6,3.52-1.82,4.83
	c-1.06,1.1-2.48,1.79-4,1.95c-1.43,0.17-2.87-0.24-3.99-1.14c-1.25-1.13-1.91-2.78-1.8-4.46v-22.51h2.53v-1.47h-9.88v1.47h2.26
	v21.65c0.01,2.3,0.93,4.51,2.55,6.14c0.79,0.79,1.73,1.43,2.76,1.87c2.59,0.97,5.43,0.97,8.02,0c1.03-0.44,1.97-1.08,2.76-1.87
	c1.64-1.62,2.56-3.83,2.55-6.14L530.69,824.33z"/>
<path class="st0" d="M597.35,801.18v10.36h-1.74c-0.07-0.98-0.2-1.95-0.39-2.91c-0.2-1-0.52-1.96-0.95-2.88
	c-0.41-0.85-1.01-1.6-1.76-2.16c-0.84-0.6-1.84-0.9-2.87-0.88h-6.71v12.88h1.99c0.93,0.04,1.85-0.16,2.68-0.57
	c0.6-0.33,1.08-0.84,1.37-1.45c0.28-0.6,0.47-1.23,0.55-1.88c0.1-0.65,0.14-1.31,0.21-1.89h1.48v13.32h-1.48
	c-0.06-0.58-0.11-1.24-0.21-1.89c-0.09-0.65-0.27-1.29-0.55-1.88c-0.3-0.61-0.78-1.12-1.37-1.45c-0.83-0.42-1.76-0.61-2.68-0.57
	h-1.99v13.48h6.71c1.13,0.03,2.24-0.36,3.11-1.08c0.8-0.72,1.42-1.62,1.8-2.63c0.41-1.05,0.69-2.14,0.86-3.25
	c0.15-1,0.25-2.02,0.29-3.03h2.16v11.47H575.3v-1.46h2.54v-28.14h-2.54v-1.47L597.35,801.18z"/>
<polygon class="st0" points="394.87,802.65 394.87,814.98 406.39,814.98 406.39,802.65 404.12,802.65 404.12,801.18 414.01,801.18 
	414.01,802.65 411.46,802.65 411.46,830.78 414.01,830.78 414.01,832.24 404.12,832.24 404.12,830.78 406.39,830.78 406.39,816.44 
	394.87,816.44 394.87,830.78 397.13,830.78 397.13,832.24 387.25,832.24 387.25,830.78 389.79,830.78 389.79,802.65 387.25,802.65 
	387.25,801.18 397.13,801.18 397.13,802.65 "/>
<path class="st0" d="M490.83,801.18l-9.63,29.6h-2.41v1.46h6.82v-1.46h-2.67l3.43-10.54h9.01l3.42,10.54h-2.74v1.46h9.6v-1.46h-1.78
	l-9.63-29.6H490.83z M486.81,818.78l4.03-12.36l4.03,12.36H486.81z"/>
<path class="st0" d="M305.17,801.18l-9.63,29.6h-2.41v1.46h6.82v-1.46h-2.67l3.43-10.54h9.01l3.42,10.54h-2.75v1.46H320v-1.46h-1.78
	l-9.63-29.6H305.17z M301.18,818.78l4.03-12.36l4.03,12.36H301.18z"/>
<path class="st0" d="M406.86,112.11c-1.31,0.12-2.52-0.73-2.86-2c-0.6-1.58-0.26-2.38,1-3.41c3.14-2.57,6.61-4.7,9.98-6.99
	c9.8-6.7,19.77-13.11,29.69-19.6c10.15-6.65,20.14-13.5,29.98-20.56c8.78-6.29,17.57-12.62,26.23-19.24
	c4.19-3.25,8.33-6.49,12.37-9.91c2.3-1.81,4.3-3.98,5.91-6.43c0.81-1.34,0.91-2.66-0.27-5.36c-1.57-3.6-3.73-8.47-4.81-11.08
	c-0.27-0.69-0.44-1.42-0.5-2.16c-0.06-1.64,0.77-3.18,2.16-4.05c2.51-1.73,4.33-0.76,5.62,1.44c5.67,9.36,13.19,28.24,17.12,38.84
	c1.39,3.76-4.25,6.49-6.6,3.9s-4.09-8.33-5.96-11.79c-1.5-2.78-3.76-1.58-5.83-0.13c-5.54,3.87-10.96,7.9-16.35,11.98
	c-8.46,6.4-16.79,12.88-25.34,19.05c-9.8,7.06-19.72,13.95-29.78,20.68c-9.65,6.49-19.31,12.93-28.97,19.3
	c-3.25,2.16-8.8,7.58-12.78,7.58L406.86,112.11L406.86,112.11z M451.59,531.7c-0.35-0.06-0.67-0.19-0.96-0.39
	c-1.75-1.05-3.25-2.46-4.43-4.12c-1-1.45-2.16-2.78-3.44-3.98c-1.18-1.02-2.63-1.7-3.82-2.7c-0.27-0.24-0.46-0.56-0.53-0.91
	c-0.13-0.56-0.17-1.15-0.1-1.72c0.31-1.2-0.25-2.46-1.35-3.03c-1.76-1.14-3.79-1.59-4.85-3.49c-0.23-0.32-0.38-0.69-0.44-1.08
	c-0.23-1.18-0.44-2.1,0.5-2.93s1.9-0.49,1.58-1.57c-0.45-1.49-1.66-2.58-2.45-3.9c-1.9-3.25-3.96-6.02-4.75-9.74
	c-0.5-2.28-0.62-4.63-0.36-6.95c0.18-1.45,1.29-2.76,2.09-4.03c2.48-3.93,2.31-4.04,2.81-5.25c0.9-1.89,1.63-3.87,2.16-5.9
	c0.21-1.08,0.32-2.16,0.52-3.19c0.13-0.71-0.16-1.45,0-2.16c0.24-1,0.39-2.02,0.45-3.04c0.06-4.73-0.63-9.43-0.67-14.16
	c0-1.18,0.65-2.16,0.75-3.36c0.18-1.98-0.13-4.59,0.35-6.57c0.15-0.72,0.11-1.46-0.11-2.16c-0.71-2.4-1.61-4.5-1.3-6.98
	s2.16-4.61,2.64-7.08c0.08-0.41,0-0.83,0.09-1.23c0.38-1.64,0.49-3.33,0.34-5c-0.28-2.08-1.29-3-2.59-1.43
	c-0.41,0.54-0.7,1.17-0.84,1.83c-0.41,0.99-0.72,2.01-0.92,3.06c-0.23,3.17,0.41,6.34,0.42,9.54c-0.03,0.45-0.11,0.89-0.24,1.32
	c-0.1,0.52-0.49,0.97-0.54,1.49c-0.13,1.33,0.32,2.91-0.41,4.05c-1.08,1.68-2.72,1.47-4.33,0.26c-1.05-0.89-2.27-1.57-3.58-1.99
	c-2.95-0.89-5.73-2.26-8.24-4.04c-2.86-1.7-5.83-3.19-8.9-4.48c-0.55-0.23-1.06-0.54-1.52-0.92c-1.84-1.69-3.16-4.33-4.63-6.44
	c-1.24-1.75-1.78-2.16-2.09-2.62c-0.94-1.46-1.74-2.99-2.41-4.59c-1.22-2.62-2.78-4.06-4.64-6.3c-2.28-2.76-2.27-6.75-3.49-10.1
	c-0.12-0.32-0.43-0.56-0.5-0.89c-0.08-1.1-0.29-2.19-0.64-3.25c-0.22-0.64-0.52-1.25-0.88-1.83c-0.68-0.91-2.63-2.29-2.94-2.72
	c-0.43-0.54-0.8-1.13-1.08-1.75c-0.41-0.95-0.72-1.94-0.93-2.95c-0.18-0.87,0-1.78-0.29-2.61c-0.74-2.54-0.37-5.34-0.96-7.98
	c-0.21-1.26-0.21-2.54,0-3.8c0.14-0.64,0.16-1.29,0.05-1.94c-0.15-1.33-0.4-2.65-0.75-3.95c-0.21-0.78-0.92-1.39-1.08-2.16
	c-2.08-14.2-11.97-26.41-13.92-40.23c-0.22-1.84,0.03-3.7,0.71-5.41c0.3-0.86,0.52-1.75,0.63-2.65c0.24-2.63,0-2.66,0.18-3.87
	c0.28-1.48,1.08-2.81,2.54-1.82c0.65,0.45,1.21,1.02,1.63,1.69c2.16,3.25,1.87,3.44,2.71,4.63c0.66,0.93,1.42,1.77,2.28,2.51
	c0.53,0.44,1.15,0.94,1.69,0.71c0.92-0.39,0.57-1.69-0.1-2.92c-1.12-1.75-2.4-3.4-3.82-4.91c-0.21-0.28-0.29-0.65-0.52-0.91
	c-0.75-0.91-1.35-1.93-1.75-3.04c-3.92-9.3-4.15-19.61-5.41-29.56c-1-7.83-2.06-15.62-3.38-22.84c-0.26-2.13-1.12-4.15-2.48-5.82
	c-0.98-1.08-1.69-0.34-2.93,0.19c-3.56,1.54-6.89,3.68-8.54,7.22c-0.37,0.78-0.59,1.63-0.64,2.5c0.06,1.66,0.22,3.32,0.49,4.97
	c0.92,8.01,2.28,15.95,4.06,23.81c1.95,9.04,4.56,17.93,7.78,26.59c0.76,1.98,1.08,3.71,1.61,5.63c0.43,1.06,0.79,2.14,1.08,3.25
	c0.35,2.16,0.39,2.16,0.49,7.78c0,3.25-4.26,3.39-5.41,0.67c-0.61-1.5-0.35-2.31-0.66-3.9c-3.85-19.15-8.97-39.61-14.07-58.74
	c-0.31-1.16-0.08-2.62-1.15-3.25c-0.6-0.44-1.37-0.57-2.08-0.37c-1,0.35-2.09,0.38-3.11,0.09c-0.75-0.28-1.44-0.71-2.02-1.27
	c-0.86-0.59-1.35-1.58-1.3-2.62c0.16-0.82,0.76-1.48,1.56-1.73c1.54-0.66,2.93-1.62,4.08-2.82c0.44-0.41,0.87-0.76,1.33-1.15
	c0.53-0.45,1.11-0.85,1.72-1.19c0.8-0.42,1.71-0.61,2.5-1.08c1.52-0.73,2.6-2.13,2.94-3.78c0.15-1.59,0.07-3.19-0.25-4.75
	c-0.21-1.08-0.24-1.31-0.4-1.9s-0.54-0.48-0.7-1.58c-0.17-1.7-0.17-3.42,0-5.12c0.15-0.55,0.12-1.13-0.09-1.67
	c-0.12-0.54-0.34-0.08-0.62-1.5c-0.66-2.03-1.54-3.99-2.63-5.82c-0.69-1.2-0.54-0.54-0.74-0.87c-1.01-1.73-2.18-3.37-3.47-4.89
	c-0.6-0.61-1.26-1.15-1.96-1.63c-0.82-0.67-1.62-1.54-0.9-2.75c0.49-0.63,1.29-0.93,2.07-0.77c3.13,0.18,6.67,5.36,7.9,7.2
	c1.07,1.43,1.89,3.03,2.4,4.74c0.61,1.81,0.9,2.75,1.21,3.86c0.22,1.63,0.36,3.27,0.41,4.91c0.23,2.16,0.15-0.47,0.27,0.68
	s0.14,4.25,0.38,5.77c0.18,1.12,0.66,2.17,1.41,3.02c0.49,0.61-0.15,0.67,1.01,0.76c0.64-0.07,1.24-0.31,1.75-0.69
	c1.16-0.74,2.24-1.58,3.25-2.51c0.42-0.4,1.18-1.08,0.54-1.49c-0.42-0.16-0.89-0.16-1.31,0c-0.82,0.21-1.66,0.36-2.51,0.44
	c-1.84,0.12-1.98-1.9-1.93-3.49c0.11-0.84,0.06-1.7-0.14-2.52c-0.14-0.86-0.22-2.38-0.28-3.81c-0.17-3.82-0.64-5.18-3.37-8.71
	c-1.23-1.59-2.42-3.25-3.65-4.82c-0.83-1.34-1.89-2.53-3.14-3.5c-1.34-0.83-3.25-1.21-4.19-2.16c-1.83-1.85-0.71-4.44,0.21-6.49
	c0.56-1.42,1.32-2.75,2.24-3.96c1.33-1.9,2.85-3.66,4.52-5.26c0.78-0.84,1.65-1.61,2.58-2.29c4.33-2.86,4.33-2.86,4.7-3.03
	c1.9-0.6,3.71-1.43,5.41-2.47c1.81-1.32,3.77-2.97,4.09-5.22c0.12-0.79-0.49-1.73-1.35-1.48c-1.16,0.36-1.82,1.61-2.89,2.16
	c-1.55,0.82-3.41,0.79-4.92-0.09c-0.65-0.43-1.24-0.95-1.73-1.56c-1.42-1.82-3.3-3.25-4.86-4.96c-0.91-1.01-2.11-1.73-3-2.76
	c-0.53-0.64-1.03-1.31-1.49-2c-0.47-0.91-0.59-1.96-0.32-2.94c0.35-1.42,1.21-1.68,2.6-1.56c0.84,0.08,1.58,0.73,2.44,0.8
	c1.43,0.02,2.67-0.97,2.98-2.36c0.25-1.08,0-1.74,0.6-2.62c0.35-0.5,0.66-0.27,1.2-1.33c0.65-1.28-1.29-2.71-1.74-3.9
	c-0.23-0.59-0.36-1.2-0.4-1.83c-0.13-0.96-0.08-1.95,0.15-2.89c0.24-0.87,0.6-1.7,1.08-2.47c1.2-1.8,2.6-3.45,4.17-4.95
	c1.54-1.6,3.31-2.96,5.25-4.05c1.02-0.53,2.08-0.97,3.17-1.32c0.38-0.13,0.79-0.15,1.18-0.06c1.33,0.34,2.31,1.55,3.65,1.82
	s1.9-0.55,2.62-1.65c1.23-1.87,2.57-0.44,3.85,0.44c0.61,0.46,1.48,0.35,1.94-0.26c0.1-0.13,0.17-0.28,0.22-0.43
	c0.16-0.36-0.12-0.4,0-2.09c0-0.57,0.19-1.12,0.53-1.57c1.08-1.93,3.39-2.85,5.21-3.99c0.77-0.48,0.86-0.31,1.45-0.7
	c0.71-0.64,1.5-1.19,2.34-1.66c2.66-1.21,0.58-2.71-0.8-1.74c-0.36,0.29-0.77,0.52-1.2,0.68c-0.55,0.16-1.36-0.15-1.69,0.34
	c-0.32,0.49-0.15,0.81-0.41,1.02c-0.95,0.84-2.03,1.51-3.19,2c-1.7,0.62-3.3,1.49-4.74,2.59c-1.29,1.19-2.64,2.31-4.05,3.36
	c-1.29,0.81-4.1,0.55-2.87-2.16c0.3-0.68,0.67-1.34,1.08-1.96c1.53-2.16,0.82-5.59,0-7.91c-0.73-2.56-0.14-5.32,1.56-7.37
	c3.88-4.98,9.3-8.53,15.41-10.1c2.2-0.43,4.46-0.49,6.68-0.18c2.13,0.15,4.2,0.7,6.13,1.62c1.08,0.61,2.68,1.02,2.98,2.33
	c0.29,1.31,0.05,1.45-0.88,2.31c-0.42,0.4-0.74,0.89-0.93,1.43c0,1.75,1.99,2.36,3.46,2.08c0.9-0.3,1.82-0.51,2.76-0.64
	c1.18,0,2.29,0.65,1.69,2.24c-0.35,0.72-1.17,1.07-1.93,0.81c-0.83-0.13-1.08,0.76-1.79,0.94c-0.94,0.25-1.97,0-2.92,0.24
	s-1,0.54-2.72,1.08c-1.61,0.35-3.17,0.92-4.62,1.7c-2.78,1.82-0.89,3.77,1.44,2.71c0.78-0.46,1.62-0.82,2.49-1.08
	c1.7-0.42,3.57-1.08,5.24-1.66c0.81-0.29,1.19-0.17,2.16-0.58c1.19-0.48,2.75-1.4,3.86-0.65c1.79,1.19,0.9,3.25-0.41,4.49
	c-0.83,0.82-2.16,1.08-3.13,1.7c-0.48,0.21-0.91,0.52-1.27,0.9c-0.56,0.6-0.94,1.35-1.08,2.16c-0.18,1.17-0.12,2.37,0.18,3.52
	c0.13,0.54,0.67,0.82,0.92,1.32c0.92,1.87,2.33,3.45,4.09,4.57c1.14,0.66,2.43,1.04,3.74,1.08c1.13,0.24,2.3,0.13,3.36-0.32
	c1.29-0.5,2.92-1.42,3.96-1.36s0.87,0.25,1.42,0.54c0.63,0.39,1.19,0.91,1.62,1.52c0.71,0.8,1.09,1.83,1.08,2.9
	c-0.06,0.81,0,1.61,0.17,2.4c0.5,1.32,1.67,2.05,2.84,1.08c0.73-0.5,1.08-1.4,0.89-2.26c-0.43-1.81-0.62-2.93,0.81-4.26
	c0.75-0.71,2.06-0.73,3.55-0.41c2.16,0.45,4.65,1.86,6.49,2.42c4.42,1.32,7.05,3.47,10.67,6.01c1.08,0.75,1.95,1.73,3.04,2.45
	c2.67,1.76,5.52,3.11,8.32,4.64c0.89,0.51,1.73,1.09,2.52,1.74c0.63,0.47,1.21,1.02,1.71,1.62c0.43,0.49,0.73,1.09,0.87,1.73
	c0.37,2.98-1.59,2.84-4.1,3.12c-0.94,0.05-1.86,0.23-2.75,0.53c-0.93,0.31-1.79,0.78-2.57,1.37c-0.69,0.7-1.3,1.47-1.84,2.29
	c-0.86,1.26-1.87,2.43-2.99,3.47c-1.75,1.08-2.98,0.27-4.76-0.52c-2.23-0.98-4.72-2.41-5.83-4.73c-0.4-0.83-0.63-0.97-1.01-1.71
	c-0.68-1.32-2.16-1.78-1.72,0.32c0.43,1.05,0.94,2.07,1.5,3.05c0.16,0.51,0,1.08,0.16,1.61c0.13,0.56,0.29,1.12,0.48,1.67
	c0.41,0.97-0.1,2.42,0.82,2.93c0.63,0.35,0.74-0.09,1.71,0.14c1.53,0.37,2.44,0.74,2.85,2.27c0.44,1.7,0.21,1.93-1.26,2.97
	c-0.65,0.59-1.47,0.97-2.34,1.08c-2.86,0.61-4.59,2.87-7.3,3.63c-0.37,0.11-0.61,0.48-0.96,0.6c-0.57,0.17-1.21,0-1.76,0.25
	c-0.94,0.34-1.94,0.46-2.93,0.38c-1.08-0.11-1.93-0.57-2.82,0c-0.36,0.26-0.38,0.82-0.38,1.26c-0.02,2.23,0.2,4.46,0.66,6.65
	c0.1,1.16,0.29,2.31,0.56,3.44c0.75,1.93,2.34,3.57,2.92,5.55c0.58,1.98,0.98,4.26,2.41,5.63c0.66,0.62,1.31,0,1.82-0.64
	c1.94-2.75,4.78-4.75,8.02-5.66c2.35-0.67,4.79-1.01,7.23-1c1.69,0.05,2.53,1.82,3.93,2.66c1.71,1.02,3.25,0.98,3.89-1.08
	c0.4-1.39,0.51-2.92,1.01-4.33c0.38-1.29,1.38-2.31,2.66-2.72c0.86-0.25,1.76-0.3,2.64-0.14c0.66,0.1,0.68,0.19,1.08,0.65
	c1.3,1.3,0.93,2.34,0,3.76c-0.49,0.73-1.24,1.26-1.72,1.99c-0.46,0.74-0.83,1.54-1.08,2.38c-0.07,0.36-0.07,0.72,0,1.08
	c0.21,1.71,1.87,3.04,2.85,4.33c0.52,0.76,0.6,1.74,0.23,2.58c-0.92,2.4-1.6,4.46-0.94,7.05c0.51,1.99,1.87,3.64,2.38,5.59
	c0.3,1.19,0.65,2.61-0.39,3.38c-0.5,0.31-1.08,0.47-1.67,0.48c-5.64,0.41-11.32,0.28-16.92,1.08c-1.08,0.15-2.11,0.4-3.25,0.63
	c-1.42,0.29-2.92,0.06-4.33,0.45c-2.35,0.63-4.57,1.66-6.56,3.05c-1.45,1.08-3.07,1.9-4.81,2.41c-0.98,0.34-1.53,0.73-2.49,1.08
	c-1.46,0.74-2.83,1.64-4.09,2.68c-2.01,1.46-1.99,1.61-3.25,1.95s-3.1,0.11-3.53-1.39c-0.39-1.54-0.48-3.14-0.25-4.71
	c0.17-0.86,0.54-1.68,1.08-2.37c0.91-1.46,2.31-2.56,3.95-3.1c0.52-0.15,1.08,0,1.61-0.16c1.28-0.34,3.7-1.08,4.17-2.35
	c0.16-0.5,0.13-1.04-0.09-1.52c-0.57-1.37-1.98-1.15-3.25-1.43c-1.76-0.37-3.56-0.25-5.28-0.64c-0.35-0.09-0.75,0.11-1.08,0
	c-0.94-0.37-1.79-0.96-2.47-1.71c-0.75-0.81-1.44-1.68-2.07-2.59c-1.29-1.76-2.93-3.53-2.1-5.76c0.18-0.47,0.59-0.81,1.08-0.92
	c0.97-0.22,2.02,0,3-0.24c0.8-0.15,1.51-0.62,1.97-1.3c1.08-1.61,1.68-3.25,3.53-4.08c0.45-0.18,0.94-0.2,1.41-0.08
	c1.69,0.4,3.15,1.29,4.41,1.31c0.7,0,0.96-0.76,0.63-1.36c-1.23-1.88-2.69-3.61-4.33-5.15c-0.38-0.44-0.65-0.95-0.79-1.52
	c-0.16-0.61-0.2-1.25-0.1-1.87c0.19-1.36,0.19-3,0.47-4.33c0.16-0.84,0.38-1.27,0.58-2.16c0.24-1.4,0.24-2.82,0-4.22
	c0-0.28-0.14-0.64-0.4-0.74c-1.15-0.47-1.98,0.69-2.94,1.36s-1.14,0.75-1.61,0.82c-1.15,0.19-2.32,0.25-3.49,0.17
	c-1.22-0.09-3.03-0.57-4.08,0.09c-0.18,0.11-0.27,0.27-0.06,0.49c0.75,0.79,1.82,0.75,2.86,0.96c0.82,0.08,1.61,0.3,2.35,0.65
	c1.06,0.41,1.95,1.18,2.52,2.16c1.17,1.98,1.24,1.95,1.46,2.72c0.49,1.35,0.68,2.8,0.54,4.23c-0.06,0.95-0.44,1.85-1.08,2.54
	c-1.2,1.7-2.36,3.7-4.43,4.03c-7.87,1.2-7.96,0.7-10.26,0.47c-2.92-0.31-3.08-1.99-3.9-4.6c-0.27-0.87,0-1.83-0.22-2.7
	c-0.33-1.45-0.76-2.87-1.31-4.25c-0.44-1.01-1.47-1.92-2.73-3.84c-0.38-0.74-0.49-1.6-0.3-2.41c0.15-1.15,0.7-2.9-0.68-2.93
	s-1.59,2.42-1.36,3.66c0.34,1.21,0.76,2.4,1.27,3.55c0.17,0.49,0.19,0.81,0.38,1.3c0.18,0.49,0.83,1.08,1.02,1.8
	c0.39,1.31,0.92,2.24,1.28,3.55s0.16,3.36,0.55,4.76c0.39,1.41,0.3,2.65,0.67,3.97c0.58,2.05,0.36,4.18,0.95,6.28
	c0.3,1.08,0.54,1.78,0.84,2.88c0.15,0.55-0.05,1.17,0.16,1.69c0.62,1.42,0.42,3.31,0.8,4.9c0.29,1.22,0.44,3.25,0.95,0.75
	c0.18-1.11,0.23-2.24,0.14-3.36c-0.15-3.07,1.39-2.05,2.24,0c0.17,0.4,0,0.89,0.15,1.31c0.5,1.57,0.92,3.18,1.26,4.79
	c0.28,1.5,0.67,2.97,1.16,4.42c0.2,0.52,0.35,1.05,0.47,1.59c0.17,1.81,0.5,3.6,0.98,5.35c0.22,0.59,0.38,1.21,0.48,1.83
	c0.14,1.85,0.4,3.69,0.76,5.51c0.65,2.24,0.48,4.98,1.08,7.2c0.27,1.01,0.43,2.16,0.79,3.17c0.27,1.3,1.55,2.14,2.86,1.87
	c0.04-0.01,0.08-0.02,0.12-0.03c1.5-0.26,1.75-1.08,2.46-2.48c1.02-2.05,1.86-4.2,2.75-6.32c0.4-0.83,0.72-1.7,0.95-2.6
	c0.79-2.3,2.67-4.06,5.02-4.7c1.29-0.32,1.84-2.16,2.34-3.33c0.34-0.71,0.81-1.34,1.39-1.86c1-1.05,2.23-1.86,3.59-2.36
	c1.09-0.27,2.22-0.33,3.33-0.17c0.61,0.1,1.23,0.07,1.82-0.1c0.96-0.13,1.9-0.34,2.82-0.62c3.25-1.45,6.39-0.96,9.87-1.52
	c0.6-0.1,1.08-0.58,1.66-0.71c0.63-0.15,1.27-0.26,1.92-0.32c2.8-0.48,5.64-0.65,8.47-0.53c1.28,0.05,2.43,0.77,3.05,1.88
	c0.45,0.58,0.77,1.24,0.95,1.95c0.37,1.67,0.19,3.42-0.51,4.99c-0.52,1.08-2.07,1.62-2.39,2.82c-0.4,1.47,1.95,1.62,3.08,1.95
	c1.02,0.22,2.02,0.52,2.99,0.92c0.52,0.24,0.99,0.55,1.42,0.92c0.26,0.25,0.46,0.58,0.55,0.93c0.16,0.45,0.19,0.94,0.08,1.41
	c-0.79,2.27-3.56,2.16-5.67,2.72s-4.46,1.2-6.69,1.89c-0.81,0.25-1.72,0-2.52,0.29c-1.9,0.62-4.21,3.08-2.8,4.96
	c2.02,2.72,4.33-2.57,5.86-3.51c2.52-1.53,6.85-3.44,9.28-0.53c0.26,0.27,0.44,0.61,0.52,0.97c0.19,1.41,0.19,2.85,0,4.26
	c-0.14,1.08-0.36,1.96-0.53,3.04c-0.1,0.61,0.08,1.23,0,1.85s-1.28,6.18,0.82,4.6c1.16-0.89,0.9-1.67,1.08-3.11
	c0.16-1.08,0.31-2.16,0.44-3.25c0.11-0.89-0.23-1.82-0.06-2.7c0.16-0.88,0.64-2.58,1.5-2.88c0.63-0.31,1.36-0.35,2.02-0.11
	c1.7,0.92,2.08,1.97,2.62,3.9c0.29,1.27,0.35,2.58,0.19,3.87c-0.15,0.92-0.36,1.83-0.62,2.73c-0.12,0.66-0.84,1.45-0.45,2
	c0.15,0.22,0.5-0.16,0.73-0.29c1.27-0.76,2.09-1.15,3.25,0c0.21,0.16,0.37,0.38,0.45,0.63c0.19,0.97,0.24,1.96,0.16,2.94
	c-0.06,0.64-0.18,1.26-0.37,1.87c-0.18,0.76-0.65,1.14-2.16,5.41c-0.43,1.22-1.57,3.59-0.34,4.51c0.96,0.73,1.47-0.09,1.75-1.08
	c0.28-1,0.52-1.59,0.79-2.51c0.38-1.31-0.09-2.34,1.44-2.65c1.7-0.35,2.77,1.29,3.12,2.8c0.34,1.65,0.44,3.34,0.27,5.02
	c-0.1,1.16-0.54,2.33-0.75,3.51s0.82,3.38-0.89,5.07c-0.7,0.77-1.18,1.7-1.39,2.72c-0.77,2.74,0,5.5-0.82,7.97s-2.35,4.33-3.25,6.65
	c-0.81,2.16-1.34,4.42-1.58,6.72c-0.05,0.47-0.38,0.87-0.47,1.33c-1.08,5.61-1.81,7.14-4.84,11.91c-0.85,1.29-1.49,2.71-1.87,4.2
	c-0.14,0.35-0.12,0.75,0.05,1.08c1.08,1.44,2.81-0.1,4.16,0.95c1.34,1.05,0.84,2.08,0.15,3.33c-0.53,0.96-2.32,1.59-2.25,2.68
	c0.05,0.87,1.19,0.21,1.89,0c0.27-0.1,0.64-0.21,0.88,0c0.92,0.66,0.54,1.97,0.48,3.02c-0.07,1.28,0,2.57,0.21,3.83
	c0.22,1.27,1.08,4.11,2.76,2.72c0.12-0.16,0.17-0.37,0.13-0.56c-0.17-1.63-1.41-4.22,0-5.41c0.33-0.19,0.73-0.21,1.08-0.06
	c1.71,0.63,3.02,2.03,3.54,3.78c0.23,0.72,0.4,1.47,0.5,2.22c0.38,1.78,0.47,3.6,0.28,5.41c-0.3,1.9-1.36,3.6-2.92,4.72
	c-0.38,0.34-0.81,0.63-1.28,0.86c-0.46,0.2-0.95,0.32-1.45,0.38c-1.17,0.06-2.32,0.38-3.34,0.95c-0.37,0.18-0.79,0.2-1.17,0.05
	c-1.18-0.34-2.24-1.01-3.05-1.93c-0.7-0.9-0.93-2.1-1.57-3.03c-0.35-0.47-0.79-0.87-1.3-1.17c-1.4-0.85-2.36-2.25-2.66-3.85
	c-0.27-0.83-0.71-1.6-1.29-2.26c-1.16-1.5-2.2-3.09-3.1-4.76c-0.14-0.28-0.09-0.62-0.21-0.91c-0.83-2.07-1.94-4.16-1.79-6.49
	c0.06-1.01-0.89-1.23-1.52-2.03c-1.26-1.63-3.04-2.91-3.8-4.82c-0.48-1.25-0.81-2.56-0.97-3.89c-0.55-4.18-0.43-8.41-0.75-12.61
	c0-0.29-0.24-0.55-0.27-0.83c-0.24-2.59-1.17-5.07-2.68-7.18c-0.6-0.67-1.04-1.47-1.29-2.34c-0.45-2.16-0.74-3.96-2.16-5.7
	c-0.39-0.47-0.77-0.81-1.08-1.31c-2.16-3.08-5.25-5.51-7.76-8.3c-1.61-2.08-2.8-4.45-3.53-6.98c-0.14-0.4-0.16-0.83-0.06-1.24
	c0.29-1.08,1.18-1.79,1.7-2.79c0.38-0.71,0.06-1.72-0.79-1.37c-1.26,0.35-2.39,1.07-3.25,2.06c-0.71,1.08-0.94,1.08-0.84,1.86
	c0.15,1.2,1.08,1.6,1.69,2.64c0.7,1.26,3.25,3.74,1.23,4.76c-2.59,1.33-4.96-0.32-6.95-2.05c-0.9-0.81-1.66-1.76-2.24-2.81
	c-0.41-0.6-0.73-1.26-0.95-1.96c-0.31-0.87-0.43-1.79-0.37-2.71c0.21-0.96,0.21-1.94,0-2.9c-0.63-1.68-2.06-2.92-2.55-4.65
	c-0.5-1.73-0.86-3.5-1.28-5.1c-0.29-1.08-0.13-1.93-0.7-2.91c-0.55-0.68-1.21-1.27-1.95-1.75c-1.08-0.79-2.6-1.32-2.91,0
	c-0.05,0.87,0.17,1.73,0.63,2.47c0.59,1.33,1.09,2.7,1.49,4.1c0.22,0.88,0.81,1.62,1.08,2.5s0.32,2.16,0.7,3.12
	c0.52,1.33,0.93,2.7,1.22,4.1c0.34,1.2,0.77,2.36,1.28,3.5c0.37,0.68,0.38,1.08,0.7,1.8c0.64,1.25,1.42,2.42,2.33,3.5
	c0.5,0.62,1.07,1.18,1.7,1.67c1.08,0.89,2.36,1.51,3.72,1.81c1.84,0.39,2.67,0.43,3.97,1.75c0.72,0.69,1.4,1.41,2.03,2.16
	c0.88,1.08,1.85,2.09,2.76,3.13c1.08,1.27,2.5,1.86,3.52,3.17c0.65,0.72,1.1,1.6,1.29,2.55c0.37,1.83,0.47,3.7,0.29,5.56
	c-0.35,2.53-1.22,5.2-0.21,7.58c1.02,2.38,2.35,4.63,3.38,7c0.64,1.15,1.16,2.36,1.57,3.62c0.24,1.89,0.36,3.78,0.38,5.68
	c0,0.22,0.24,0.39,0.27,0.61c0.02,1.93,0.17,3.86,0.45,5.77c0.4,1.62-0.12,3.17-0.14,4.74c0.14,1.16,0.6,2.27,1.32,3.19
	c1.59,2.57,3.25,5.1,5.05,7.58c0.58,0.81,1.16,1.71,1.75,2.53c0.34,0.45,1.16,1.42,1.8,2.35c1.14,1.63,2.45,3.13,3.91,4.47
	c0.25,0.25,0.38,0.62,0.64,0.87c2.09,2.02,3.94,4.28,5.51,6.72c0.53,1.01,0.95,2.07,1.24,3.17c0.26,1.61,0.35,3.24,0.26,4.87
	c-0.13,0.74-0.41,1.44-0.82,2.07c-0.55,0.98-2.68,2.51-1.93,3.42s2.36,0.28,3.17-0.68c0.86-1.19,1.34-2.61,1.39-4.08
	c0.18-1.66-0.36-3.34-0.18-5c0.15-1.46,1.46-2.51,2.92-2.36c0.56,0.06,1.09,0.3,1.51,0.68c0.62,0.55,0.56,1.31,0.84,2.1
	c0.22,0.61,0.75,1.08,0.93,1.72s0,1.34,0.18,1.99c0.16,0.71,0.41,1.39,0.73,2.05c0.26,0.85,0.46,1.72,0.61,2.6
	c0.78,2,1.05,4.17,0.79,6.3c-0.18,1.06-0.61,2.06-1.24,2.93c-1.16,1.56-2.33,3.13-3.51,4.63c-0.41,0.47-0.68,1.06-0.78,1.68
	c-0.16,1.82,0.1,3.7-0.56,5.41c-0.55,1.44-1.52,2.58-1.56,4.12c-0.04,1.55,0.81,2.79,1.15,4.2c0.05,0.21,0.24,0.39,0.27,0.61
	c0.26,2.07,0.89,4.26,0.41,6.41c-0.2,1.13-0.57,2.22-1.08,3.25c-1.72,3.17-2.02,3.64-3.06,5.28c-2.1,3.13-4.02,6.38-5.74,9.74
	l-0.62,1.33c-1.53,3.77-3.58,7.3-6.08,10.5c-0.47,0.6-0.92,1.23-1.32,1.88c-0.55,0.67-0.96,1.44-1.23,2.26
	c-0.16,1.31-0.4,2.61-0.71,3.9c-0.88,2.49-2.86,4.68-3.56,7.21c-0.14,0.52,0.06,1.08-0.06,1.62c-0.39,1.35-0.65,2.74-0.79,4.13
	c-0.05,0.65-0.45,1.23-0.52,1.87c-0.1,1.09-0.27,2.18-0.52,3.25c-0.12,0.43-0.2,0.87-0.24,1.32c-0.14,1.25-0.08,2.52,0.19,3.76
	c0.58,1.47,1.31,2.87,2.16,4.2c0.28,0.55,0.61,0.61,0.4,6.18c-0.08,2.05-2.53,3.73-3.32,5.65c-0.61,1.45-0.69,2.1,0.89,2.6
	c0.53,0.16,1.08-0.09,1.69,0c0.76,0.09,1.44,0.52,1.86,1.17c1.6,2.35-2.16,4.33-3.71,5.69c-0.41,0.37-1.08,1.08-0.91,1.65
	c0.07,0.28,0.23,0.52,0.45,0.7c0.09,0.07,0.21,0.07,0.3,0c0.53-0.38,1-0.79,1.45-1.14c0.94-1,2.43-1.27,3.66-0.66
	c1.46,0.69,2.41,2.16,3.57,3.25c1.37,1.34,3.25,2.58,4.39,4.18c0.3,0.43,0.51,0.92,0.62,1.43c0.18,0.69,0.21,1.41,0.11,2.11
	c-0.31,0.94-0.67,1.85-1.08,2.75c-0.54,1.74-0.88,4.08-2.62,4.87c-0.7,0.22-1.44,0.28-2.16,0.16L451.59,531.7z M520.97,427.07
	c-0.48-0.03-0.95-0.09-1.42-0.18c-0.8-0.12-1.79-0.41-1.55-1.29c0.27-0.87,0.99-1.52,1.87-1.72c0.86-0.18,1.76-0.18,2.62,0
	c0.49,0.09,0.99,0.06,1.46-0.09c1.08-0.4,3.78-3.43,3.79-0.69c-0.02,0.49-0.15,0.98-0.39,1.41c-0.32,0.65-0.81,1.2-1.43,1.58
	c-0.76,0.47-1.61,0.75-2.5,0.82c-0.81,0.15-1.63,0.21-2.46,0.17L520.97,427.07z M371.65,229.94c0.41-0.42,0.93-0.77,1.08-1.08
	c0.35-0.45,1.83-2.16,2.38-3.04c1.65-2.58,3.12-5.22,4.7-7.84c0.49-0.8,1.05-1.55,1.68-2.25c0.77-0.84,1.82-1.21,2.47,0.66
	c0.26,0.77-0.66,1.72-1.08,2.34c-2.06,2.81-2.91,3.74-5.61,7.36c-1.17,1.56-2.34,3.89-4.11,4.81c-0.97,0.51-3.37,0.89-1.52-1
	L371.65,229.94z M402.25,198.8c-1.08-0.19-1.44-0.42-1.67-1.52c-0.08-1.05,0.31-2.09,1.08-2.81c0.45-0.5,1.08-1.08,1.81-0.87
	c0.6,0.25,1.04,0.78,1.19,1.41c0.37,1.24-0.14,2.58-1.26,3.25c-0.34,0.25-0.74,0.56-1.14,0.49L402.25,198.8z M352.37,496.2
	c-0.44,0-0.79-0.41-1.2-0.52c-2-0.72-3.96-1.57-5.84-2.55c-0.83-0.34-0.92-0.17-1.46-0.57c-1.02-0.76-0.57-2.34,0-3.25
	c1.78-2.87,1.08-5.5,0.48-8.66c-0.25-1.26,0.31-2.38,0.35-3.67c0-1.81-0.35-3.58-0.36-5.41c0.04-2.24,0.28-4.48,0.73-6.68
	c0.83-4.73,3.25-8.39,5.03-12.76c0.84-2.1,1.8-4.19,2.76-6.23c1.07-2.54,1.86-5.18,2.35-7.89c0.23-0.89,0.6-1.75,1.08-2.53
	c2.29-4.09,2.53-10.64,3.51-15.07c0.64-2.87,3.07-4.82,3.45-7.81c0.28-2.36,0.39-4.55,0.71-6.91c0-0.45-0.09-0.93,0-1.39
	c0.19-0.97,1.08-1.08,1.74-0.41c0.53,0.56,1.03,1.16,1.49,1.79c0.69,0.98,1.48,1.88,2.36,2.68c0.95,0.73,2.39,0.89,2.29-0.95
	c-0.1-1.84-1.5-3.18-2.33-4.68c-1.53-2.75-2.87-5.63-4.33-8.42c-0.55-1.08-0.27-1.19-0.71-1.97c-4.81-8.4-8.32-21.08-7.4-30.57
	c0.24-2.46,1.73-4.74,3.25-6.72c0.55-0.75,1.89-1.46,1.96-2.42c0.13-0.87,0.05-1.75-0.22-2.59c-0.27-1.16-0.83-2.25-1.08-3.41
	c-0.48-2.05-1.62-4.82-0.57-6.72s2.06-2.82,2.5-5.05c0.18-0.92,1.08-2.01,2.01-1.08c1.18,1.08,1.37,2.78,2.08,4.23
	c2.95,5.97,6.31,12.09,7.25,18.97c0.34,2.42-0.3,4.92,0.24,7.32c0.68,3.03,0.76,6.05,1.55,9.03c0.42,1.57,1.75,4.09-0.47,4.62
	c-0.78,0.18-0.83,0-1.08-0.11c-2.27-1.58-3.16-4.71-4.56-6.97c-0.39-0.67-0.73-1.37-1.03-2.09c-0.35-0.73-0.77-1.22-0.65-1.99
	c0.29-1.8,1-3.78,0-5.41c-0.63-1.08-1.94-1.85-2.16-0.34c-0.23,1.52,0.64,3.34,0.35,4.99c-0.25,1.35-1.67,1.47-2.92,1.08
	c-0.7-0.21-1.08-1.08-1.7-1.22c-0.34,0-0.62,0.37-0.6,0.7c0.08,1.12,0.43,2.21,1.02,3.17c1.54,2.46,4.15,4.15,5.66,6.62
	c0.81,1.32,1.39,2.85,2.09,4.22c0.47,0.94,0.27,1.08,0.73,1.74c0.68,1.08,1.32,2.98,2.84,2.44c0.57-0.19,1.21-1.28,1.46-1.37
	c1.87-0.71,2.88-0.06,4.03,1.39c1.5,1.92,1.41,2.01,1.65,2.73c0.87,2.62,1.24,5.36,1.97,8c0.27,1.23,0.7,2.43,1.27,3.56
	c0.36,0.68,0.65,1.38,0.88,2.11c0.59,1.33,1.28,2.61,2.06,3.83c0.6,1.08,1.31,2.11,2.11,3.05c2.54,2.84,4.79,5.92,6.71,9.21
	c0.39,0.64,0.72,1.32,0.96,2.02c0.2,0.4,0.22,0.86,0.05,1.28c-0.44,0.69-1.16,0.47-1.87,0.12c-2.48-1.21-5.54-2.37-7.58-4.26
	c-1.22-1.08-1.44-3-2.39-4.33s-1.9-2.45-3.12-1c-0.71,0.86-0.44,2.24-0.08,3.25c1.08,2.8,3.47,4.33,6.12,5.28s6.57,1.34,8.47,3.67
	c0.47,0.59,0.38,1.45-0.21,1.92c-0.14,0.11-0.3,0.2-0.47,0.25c-0.86,0.21-1.78,0-2.61,0.22s-1.44,0.65-1.08,1.56
	s0.88,1.39,1.94,1.02c1.94-0.66,3.72-2.38,5.83-2.39c0.21,0.01,0.4,0.13,0.51,0.31c0.62,1.28-0.49,3.19-1.39,4.09
	c-7.62,7.54-15.72,14.58-24.25,21.08c-5.83,4.47-11.48,9.33-12.87,17.07c-0.82,4.55-0.22,8.95-0.36,13.5
	c0.06,2.06-0.48,4.09-1.55,5.86c-0.56,0.84-1.46,1.37-1.86,2.31c-0.4,0.93,0.08,2.35-0.45,3.36c-1.09,1.73-3.01,2.76-5.05,2.73
	L352.37,496.2z M507.14,554.22c-0.54,0.06-1.08,0.06-1.62,0c-2.96-0.57-5.29-2.86-5.91-5.81c-0.31-1.73,0.95-3.03,1.61-4.58
	c0.22-0.5,0.37-1.03,0.45-1.57c0.09-0.53,0.09-1.07,0-1.6c-0.4-2-1.29-3.32-1.14-5.41c0.06-1.01-0.08-2.01,0-3.01
	c0.13-1.69,0.15-3.37,0.43-5.04c0.48-2.91,2.93-5.41,4.43-7.93c0.82-1.62,1.41-3.34,1.75-5.12c0.4-1.46,0.6-1.4,0.66-1.96
	c0.34-2.79,1.21-5.51,1.27-8.32c0-2.16-0.43-3.36-0.35-5.07c0.19-1.38,0.72-2.7,1.53-3.83c0.28-0.36,0.31-0.4,0.75-0.49
	c1.74-0.26,3.44-0.78,5.03-1.54c0.95-0.45,1.72-1.21,2.16-2.16c0.66-1.73-0.44-2.35-1.83-2.6s-3.25,0-3.98-0.64
	c-1.08-0.91-0.89-2.76-0.82-4.12c0.08-1.8,0.47-2.16,0.47-2.95c0-1.75-0.4-3.49-0.36-5.23c0.1-3.8,0.14-8.12,1.55-11.66
	c0.87-2.16,1.95-4.07,2.16-6.35c0.16-2.11-2.16-4.24-0.21-5.96c0.32-0.28,0.9-0.22,1.21-0.53c0.88-0.94,1.4-2.15,1.47-3.43
	c0.35-1.23,0.59-2.48,0.74-3.74c0.03-1.3-0.03-2.61-0.21-3.9c-0.17-1.1-0.43-2.19-0.79-3.25c-0.27-0.86-0.76-1.41-1.08-2.41
	c-0.79-2.15-1.73-4.24-2.8-6.26c-0.12-0.28-0.12-0.59,0-0.87c0.26-0.56,0.95-0.86,1.08-1.36c0.62-2.41-3.64-4.56-4.98-6.01
	c-0.63-0.58-1.15-1.27-1.54-2.03c-1.08-2.72-0.97-5.9-0.77-8.78c0.07-0.98,0.33-1.94,0.78-2.82c0.75-1.45,1.58-2.85,2.48-4.21
	c0.14-0.23,0.12-0.54,0.28-0.73c1.27-1.2,2.38-2.55,3.32-4.02c0.33-0.59,0.46-1.28,0.36-1.95c0-1.34-0.3-2.75,0.34-3.95
	s1.95-1.96,2.53-3.15c0.35-0.73,0.62-1.49,0.8-2.27c0.19-0.84,0-0.89,0.24-1.33c0.59-0.98,0.91-2.1,0.91-3.25
	c0.06-3.41,0.43-7.23-0.1-10.67c-0.26-2.36-1.28-4.57-2.89-6.31c-0.8-0.7-1.47-1.55-1.97-2.49c-0.43-0.86-0.74-1.78-0.92-2.73
	c-0.23-2.23,0-4.16-0.42-6.15c-0.39-1.7-1.45-3.84-2.9-1.31c-0.24,0.43-0.38,0.91-0.39,1.41c0,1.89,0.26,3.8,0.23,5.69
	c0,1.43-0.13,2.86-0.39,4.26c-0.35,1.67-2.16,3.05-1.92,4.71c0.07,1.05,0.39,2.07,0.93,2.97c1.22,2.49,2.16,4.54,2,7.24
	c-0.07,1.31-0.26,2.61-0.57,3.89c-0.13,0.58-0.57,1.08-0.68,1.66c-0.38,2.01-1.74,3.95-2.47,5.83c-0.35,0.89-0.51,1.68-0.79,2.6
	c-0.49,1.53-1.47,6.78-4.1,5.24c-0.99-0.63-1.69-1.63-1.94-2.77c-0.63-2.26-1.08-4.52-1.74-6.76c-0.37-1.22-0.71-2.28-1.08-3.5
	c-0.24-0.74-0.52-0.61-0.84-1.42c-0.66-1.62-1.41-3.21-2.25-4.74c-1.08-1.95-2.39-3.92-3.4-5.91c-0.32-0.63-0.43-1.34-0.73-1.97
	c-0.6-1.31-1.08-1.71-0.86-3.06c0.02-0.64,0.38-1.22,0.94-1.54c0.95-0.63,1.93-1.2,2.93-1.72c0.89-0.71,1.51-1.71,1.74-2.82
	c0.08-1.24,0.08-2.48,0-3.71c-0.09-3.03-0.08-6.09-0.4-9.12c-0.08-0.77-1.08-1.19-1.33-1.94s0.15-1.44-0.11-2.08
	c-0.77-1.82-0.67-2.37,0.92-3.5c0.97-0.47,1.89-1.05,2.73-1.73c1.14-1.28,0.82-1.49,1.32-2.22c0.24-0.34,0.73-0.43,0.98-0.76
	c0.49-0.58,0.9-1.22,1.21-1.92c0.78-1.83,1.41-3.72,1.87-5.65c0.32-1.19,1.19-2.35,0.96-3.58c-0.26-1.45-1.02-2.79-1.22-4.25
	c-0.34-2.41,0.17-5.03-0.62-7.37c-0.37-1.28-0.98-2.48-1.81-3.53c-0.54-0.64-0.86-1.43-1.34-2.09c-0.61-0.72-1.15-1.5-1.61-2.32
	c-0.36-0.63-0.64-1.3-0.81-2c-0.14-0.81-0.16-1.23,0.47-1.76c0.26-0.17,0.59-0.19,0.88-0.06c1.07,0.58,2.18,1.09,3.32,1.53
	c0.51,0.14,0.91,0.58,1.43,0.69c2.11,0.48,4.19,1.16,6.33,1.52c1.3,0.23,1.33,0,1.94,0.21c0.94,0.34,1.57,0.51,2.51,0.8
	c6.32,1.97,11.16,6.32,15.78,10.91c1.63,1.61,3.17,3.32,4.61,5.1c0.32,0.4,0.43,0.29,3.34,3.73c5.93,7.04,10.93,13.74,14.53,21.12
	c3.37,6.86,5.31,14.34,5.68,21.98c0.69,12.43-5.41,27.18-10.82,38.23c-2.9,5.66-5.17,11.62-6.76,17.77
	c-0.36,1.48-0.48,2.25-0.74,3.74c-0.91,5.28-1.29,9.09-3.58,13.99c-0.55,1.2-0.85,2.5-0.88,3.82c-0.1,3.38-1.16,3.94-2.33,6.99
	c-0.26,0.66,0,0.71-0.14,1.7c-0.11,0.64-0.58,1.18-0.68,1.82c-0.25,2.77-0.83,5.5-1.73,8.13c-0.2,0.73-0.7,1.35-1.37,1.69
	c-0.66,0.57-1.66,0.5-2.23-0.15c-0.18-0.21-0.3-0.46-0.36-0.72c-0.43-1.54-0.13-3.08-0.63-4.6c-0.15-0.44-0.54-0.77-0.68-1.2
	c-0.5-1.57,0.27-2.66,0.48-4.21c0.06-1.6-0.03-3.19-0.26-4.77c0.01-0.53-0.01-1.06-0.08-1.59c-0.16-0.84-0.78-1.6-1.47-0.8
	c-0.49,0.55-0.4,1.42-0.55,2.16c-0.19,0.71-0.33,1.43-0.42,2.16c-0.19,3.55-1.47,6.87-1.15,10.44c0.3,1.41,0.74,2.78,1.3,4.1
	c0.17,0.6,0.65,1.08,0.87,1.65c0.1,0.67,0.24,1.33,0.41,1.99c1.55,3.41,1.08,3.58,3.95,1.08c0.98-0.88,2.23-1.41,2.85,0.67
	c0.26,1.14,0.32,2.32,0.18,3.49c0.07,0.96-0.09,1.92-0.47,2.8c-1.15,2.71-3.46,4.63-4.87,7.2c-0.43,0.79-0.15,0.89-0.37,1.72
	c-0.5,1.87-1.08,3.78-1.4,5.7c-0.11,0.61-0.56,1.08-0.68,1.73c-0.38,1.94-1.08,4.02-1.54,5.94c-1.35,5.63-3.66,11.36-4.04,17.1
	c-0.06,3.59-0.95,7.11-2.6,10.29c-0.41,0.95-0.76,1.93-1.03,2.93c-1.08,4.21,0.78,2.59-2.16,6.75c-1.81,2.1-2.06,5.12-0.63,7.49
	c0.83,1.69,2.44,2.95,3.18,4.7c0.95,2.24,0,3.05-2.23,3.47c-1.25,0.17-2.51,0.26-3.78,0.25L507.14,554.22z M490.77,451.4
	c-1.2,0.1-2.38-0.37-3.17-1.28c-0.56-0.58-0.78-0.78-0.87-1.2c-0.53-2.67-0.44-5.41-0.81-8.05c-0.26-1.92-0.41-3.84-0.68-5.76
	c-0.08-0.48-0.24-0.44-0.29-1.08c-0.21-2.96-0.6-5.91-1.16-8.82c-0.47-2.16-1.08-4.45-0.75-6.69c0.31-1.87,2.72-2.7,4.33-3.58
	c1.08-0.56,0.94-0.75,1.65-1.01c1.4-0.52,2.47-1.32,3.93-0.6c0.38,0.18,0.73,0.42,1.03,0.7c1.73,1.76,2.55,4.77,4.67,6.1
	c1,0.63,1.83,0.56,2.06-0.63s-0.65-2.09-1.37-3.05c-1.03-1.37-2.78-3.43-1.99-5.26c0.21-0.46,0.54-0.86,0.96-1.15
	c0.51-0.36,1.22-0.38,1.75-0.73s1.08-1.14,1.69-1.55c0.25-0.13,0.54-0.13,0.79,0c0.62,0.24,1.1,0.73,1.33,1.35
	c0.6,2.8,0.29,2.85,0.61,4.33c0.4,1.83,0.66,3.6,1.08,5.41c0.17,0.8,0.83,1.45,1.08,2.25c0.23,0.91,0.38,1.83,0.45,2.76
	c0.28,1.63,0.36,3.29,0.26,4.95c-0.26,1.36-0.71,2.68-1.33,3.92c-2.2,5.58-5.28,10.76-9.12,15.36c-1.82,2.03-3.31,3.36-6.04,3.41
	L490.77,451.4z M494.73,429.98c-0.92-0.22-1.82-0.52-2.68-0.91c-1.19-0.62-1.96-1.81-2.05-3.15c-0.3-1.79-0.63-6.28,1.6-6.78
	c1.36-0.31,2.59,1.08,3.51,2.05c1.52,1.63,3.47,3.76,3.25,6.06c-0.18,1.57-0.9,1.73-2.29,2.38c-0.4,0.2-0.85,0.32-1.3,0.35H494.73z
	 M492.56,436.34c-1,0-1.99-0.84-1.29-1.82c0.7-0.97,2.84-1.56,3.55-0.06c0.1,0.19-0.08,0.48-0.25,0.62
	C493.97,435.59,493.35,436.36,492.56,436.34L492.56,436.34z M503.99,404.35c-1.1,0.04-2.02-0.82-2.06-1.92
	c-0.02-0.45,0.12-0.9,0.39-1.26c0.55-0.77,1.57-1.08,2.27-1.72c0.55-0.52,1.04-1.1,1.47-1.72c2.81-3.86,5.04-7.65,5.65-12.54
	c0.08-0.61,0.47-1.08,0.53-1.73c0.1-0.94-0.18-1.9-0.08-2.85c0.22-2.8-0.03-5.62-0.75-8.35c-0.43-1.87-0.61-3.79-0.53-5.7
	c0-2.05,2.24-4.49,3.95-2.53c1.18,1.36,0.4,3.39,0.81,5.14s0.93,1.69,1.08,2.87c0.43,2.96,0.59,5.96,0.47,8.95
	c-0.25,1.89-0.77,3.74-1.56,5.48c-0.56,1.55-1.85,2.91-2.23,4.51c-0.47,2.58-1.27,5.08-2.38,7.46c-0.11,0.18,0,0.44-0.13,0.63
	C509.47,401.54,507.01,404.4,503.99,404.35L503.99,404.35z M493.02,409.93c-2.27-0.29-4.58,0.52-6.79,0
	c-1.62-0.37-2.05-2.68-2.64-4.06c-0.44-1.03-0.27-2.16-0.64-3.25c-1.01-2.91-1.69-5.92-2.77-8.81c-0.7-1.84-1.32-3.65-2.16-5.41
	c-0.74-1.61-1.41-3.25-2.26-4.82c-1.95-3.64-5.57-6.25-6.94-10.21c-0.15-0.4-0.17-0.83-0.06-1.23c0.57-1.87,2.73-2.16,4.42-1.97
	c2.11,0.39,3.94,1.69,5,3.56c1.16,1.96,1.98,4.11,2.42,6.35c0.54,2.16,0.8,4.33,1.34,6.49c0.46,1.7,1.44,3.21,2.79,4.33
	c0.5,0.41,0.95,0.51,1.27-0.06c1.19-2.16,0.26-5.15-0.52-7.39c-0.63-1.49-1.43-2.9-2.38-4.2c-0.74-1.08-1.4-2.35-2.11-3.51
	c-0.26-0.4-0.16-0.95-0.39-1.37c-1.2-2.24-2.01-4.77-1.15-7.19c0.56-1.56,0.84-1.45,1.16-1.7c0.65-0.54,1.36-0.99,2.11-1.36
	c1.32-0.61,2.95-0.84,3.55,0.7c0.15,0.4,0,0.89,0.23,1.3c0.36,0.66,0.68,1.33,0.95,2.02c0.14,0.68,0.08,1.41,0.26,2.07
	c0.44,1.57,0.86,3.08,1.33,4.64c0.72,2.16,1.55,4.27,2.49,6.34c1.08,2.59,2,5.25,2.74,7.96c0.21,0.8,0.93,1.47,1.03,1.96
	c0.35,1.56,0.85,3.08,1.47,4.55c0.51,1.32,0.71,2.09,1.08,3.41c0.91,3.08,1.63,7.38-0.82,9.74c-0.63,0.49-1.38,0.8-2.16,0.91
	c-0.6,0.15-1.23,0.19-1.85,0.13L493.02,409.93z M473.74,408.56c-1.52-0.1-2.16-0.62-1.93-2.07c0.17-1.08,1.3-1.74,1.86-2.73
	c0.66-1.16,0.79-2.59,1.81-3.47c0.8-0.61,1.91-0.61,2.71,0c1.59,1.41,3.13,3.25,2.16,5.41c-0.44,1.08-0.65,0.93-0.81,1.08
	c-0.41,0.44-0.88,0.8-1.41,1.08c-1.38,0.66-2.92,0.91-4.44,0.74L473.74,408.56z M472.66,415.26c-1.07-0.04-2.06-0.59-2.66-1.47
	c-0.31-0.51-0.4-1.13-0.25-1.71c0.15-0.75,0.66-1.38,1.36-1.69c1.7-0.8,3.64-0.91,5.41-0.3c1.68,0.76,1.96,1.08,1.79,2.95
	c-0.24,2.52-3.72,2.31-5.63,2.22L472.66,415.26z M570.83,332.78c-3.49-0.69-6.09-4.26-9.04-6.03c-3.52-2.09-7.68-3.56-10.92-6.08
	c-0.47-0.36-0.87-0.82-1.16-1.34c-0.54-0.88-1.01-1.82-1.39-2.78c-0.25-0.58-0.44-1.19-0.56-1.82c-0.22-0.91-0.27-1.86-0.14-2.79
	c0.18-1.1,1.06-1.94,2.16-2.08c1.8-0.22,3.61-0.26,5.41-0.13c3-0.09,5.99,0.28,8.88,1.08c1.55,0.44,2.92,1.35,3.94,2.6
	c1.24,1.5,2.05,3.65,3.73,4.66c1.49,0.91,3.25,1.27,4.78,2.16c1.73,1.28,2.71,3.33,2.63,5.48c-0.09,1.11-0.35,2.21-0.76,3.25
	c-0.18,0.58-0.47,1.13-0.86,1.6c-0.63,0.93-1.54,1.63-2.61,1.99c-1.32,0.4-2.72,0.49-4.08,0.26L570.83,332.78z M570.53,327.01
	c-0.47,0.08-0.88-0.34-1.32-0.5c-1.34-0.36-2.59-0.98-3.69-1.83c-1.3-1.41-2.75-2.68-4.33-3.78c-1.05-0.57-2.16-1.03-3.31-1.37
	c-1.78-0.66-4.03-0.86-2.31-2.89c0.28-0.31,0.49-0.68,0.6-1.08c0.07-0.4,0.05-0.82-0.06-1.21c-0.05-0.3-0.39-0.5-0.14-0.69
	c0.8-0.39,1.74-0.39,2.54,0c1.12,0.25,2.07,0.97,2.61,1.98c0.29,0.84,0,1.32,0.73,1.82c0.94,0.65,2.16,0.77,3.07,1.52
	c0.62,0.54,0.36,1.49,0.74,2.22c0.22,0.34,0.51,0.63,0.86,0.83c1.51,0.74,2.96,1.6,4.33,2.58c1.08,0.93,1.53,2.1-0.31,2.36
	L570.53,327.01z M546.72,322.68c-1.8,0-2.47-1.46-3.36-2.9s-2.05-2.39-2.75-3.79c-0.28-0.56-0.31-1.2-0.1-1.79
	c0.98-2.4,4.44-2.82,5.61-0.45c0.68,1.37,0.77,2.77,1.6,4.07c0.45,0.71,0.21,0.82,0.73,1.98
	C549.4,321.97,548.9,322.69,546.72,322.68z M443.78,324.96c-1.84-0.45-2.65-2.46-3.58-4.05c-0.48-0.82-0.81-1.72-0.98-2.65
	c-0.21-1.12-0.18-2.27,0.09-3.38c0.12-0.49,0.14-1.08,0.6-1.48c0.98-0.79,1.87-0.36,2.51,0.67c1.02,1.63,2.26,3.25,3.16,4.97
	c0.64,1.69,0.6,3.56-0.11,5.23C445.16,325,444.55,325.14,443.78,324.96z M460.55,367.88c-0.58-0.03-1.12-0.27-1.54-0.67
	c-2.98-2.18-5.52-4.91-7.47-8.04c-0.94-1.58-2.44-3.01-3.02-4.76c-0.35-1.08,0.34-1.93-0.36-2.82c-0.69-0.9-1.78-1.5-2.09-2.67
	c-0.11-0.41-0.14-0.84-0.06-1.26c0.16-0.89,0.67-1.4,0.67-1.88c0-1.23-0.83-2.16-1.08-3.4c-0.24-0.78-0.29-1.6-0.13-2.4
	c0.76-2.1,2.48-1.35,3.77-0.22c0.55,0.4,0.98,0.94,1.24,1.57c0.25,0.71,0.28,1.5,0.57,2.16s0.52,0.47,0.69,1.35
	c0.25,2.08,0.61,4.15,1.08,6.19c0.53,1.83,1.36,3.56,2.45,5.12c0.31,0.48,0.68,0.93,1.08,1.33c2.07,2.05,4.86,3.37,6.49,5.75
	c1.08,1.58,1.08,3.68-0.96,4.49c-0.47,0.16-0.97,0.2-1.46,0.12L460.55,367.88z M483.2,360.13c-0.5-0.15-0.63-0.22-0.7-0.65
	c-0.49-2.81-1.01-5.57-1.59-8.4c-0.35-1.66-1.37-3-2.09-4.52c-0.72-1.85-1.59-3.63-2.6-5.34c-1.02-1.44-2.59-2.58-3.16-4.23
	c-0.4-1.16,0.13-2.38,0.36-3.59c0.27-1.5,0.16-3.17,1.68-3.82c0.64-0.25,1.35-0.23,1.97,0.06c0.5,0.28,0.95,0.65,1.33,1.08
	c0.15,0.13,0.28,0.3,0.38,0.48c1.01,2.07,1.85,4.22,2.5,6.43c0.26,0.56,0.63,1.07,1.08,1.48c1.53,1.76,2.66,3.83,3.31,6.07
	c0.35,1.26,0.41,2.47,0.66,3.74c0.47,2.03,0.56,4.12,0.25,6.18c-0.19,1.73-0.86,3.38-1.93,4.75c-0.4,0.36-0.96,0.47-1.46,0.28H483.2
	z M488.61,350.81c-0.46-0.3-0.83-0.71-1.08-1.2c-0.61-1.61-0.85-3.33-0.69-5.04c0.02-0.36,0.18-0.71,0.43-0.96
	c1.16-1.08,2.42-0.82,2.79,0.64c0.43,1.55,0.62,3.16,0.56,4.77c-0.04,0.72-0.45,1.37-1.08,1.71
	C489.27,350.92,488.92,350.95,488.61,350.81L488.61,350.81z M489.48,359.8c-1.93-0.47-1.87-3.25-1.78-5.01
	c0-1.01,0.21-2.23,1.29-2.41c1.43-0.24,2.35,1.17,2.73,2.74c0.3,1.07,0.25,2.2-0.13,3.25c-0.54,1.01-1.08,1.66-2.11,1.4
	L489.48,359.8z M491.03,336.57c-0.18-0.04-0.34-0.14-0.45-0.29c-1.08-1.21-1.49-1.73-0.4-3.25c0.7-0.98,1.27-2.05,1.69-3.18
	c0.44-0.83,0.63-1.77,0.55-2.71c-0.11-0.54-0.6-0.96-0.69-1.5c-0.18-0.94-0.23-1.91-0.15-2.87c0-0.57,0.49-1.08,0.53-1.65
	c0.2-3.98-0.01-7.97-0.63-11.91c-0.19-1.48-0.97-2.78-1.31-4.25c-0.08-0.34-0.2-0.67-0.36-0.98c-0.17-0.37-0.54-0.79-0.84-1.27
	c-0.52-0.79-1.08-1.81-0.41-2.4c0.23-0.22,0.65-0.15,0.96-0.06c0.58,0.22,1.1,0.55,1.54,0.98c1.67,1.56,2.93,3.49,3.69,5.64
	c0.54,1.33,0.98,2.69,1.3,4.09c0.47,2.03,0.87,3.99,1.4,6.02c0.48,1.82,0.79,1.72,0.89,2.35c0.56,3.18,0.78,6.41,0.67,9.63
	c-0.16,1.06-0.53,2.08-1.08,3c-0.97,1.72-2.57,3-4.46,3.56c-0.67,0.24-0.93,0.75-1.42,0.92c-0.32,0.12-0.67,0.15-1.01,0.1
	L491.03,336.57z M483.25,332.24c-1.43-0.1-1.49-1.18-2.1-2.35c-0.18-0.35-0.57-0.54-0.75-0.89c-1.08-2.23-3.59-3.1-2.85-5.81
	c0.41-1.52,1.44-2.72,1.7-4.26c0.21-1.17-0.17-2.37,0-3.54c0.19-1.61,0.41-3.1,0.76-4.67s2.16-2.67,2.48-4.33
	c0.22-1.15-0.71-2.01-1.17-3.08c-0.25-0.7-0.41-1.43-0.5-2.16c-0.12-0.79-0.29-1.71,0.23-2.11c0.4-0.45,1.08-0.49,1.53-0.09
	c0.15,0.13,0.25,0.29,0.31,0.48c0.69,1.2,0.79,2.64,1.44,3.86s1.61,1.84,2.01,3.05c0.34,1.03,0.26,2.11,0.63,3.13
	c0.38,1.12,0.85,2.2,1.41,3.25c0.58,1.08,0.76,1.02,0.84,1.42c0.51,3.05,0.75,6.15,0.71,9.24c-0.07,1.06-0.27,2.11-0.61,3.12
	c-0.47,2.39-2.03,4.41-4.21,5.49c-0.59,0.23-1.22,0.31-1.84,0.23L483.25,332.24z M539.14,324.35c-0.78-0.06-1.52-0.32-2.16-0.76
	c-0.98-0.59-1.9-1.29-2.74-2.08c-1.24-1.22-2.05-2.72-1.17-4.28s1.73-1.65,3.59-1.29c2.42,0.48,5.16,2.54,5.77,5.05
	c0.44,1.84,0.6,2.46-1.17,3.19c-0.66,0.26-1.39,0.31-2.08,0.15h-0.04V324.35z M456.35,515.25c-1.71-0.12-2.86-0.76-3.04-2.61
	c-0.35-3.94-0.28-7.91,0.23-11.84c0.09-0.75-0.11-1.52,0-2.24c0.29-1.5,0.57-2.97,1.01-4.45c0.98-3.45-0.78-7.18-2.09-10.28
	c-0.61-1.43-1.19-2.77-1.76-4.22c-0.81-1.65-1.47-3.37-1.97-5.14c-0.36-1.81-0.86-3.96-0.3-5.71c0.89-2.88,2.65-5.41,5.05-7.24
	c1.49-1.14,3.45-1.61,3.79,0.76c0.29,2.1-0.56,4.33,0.17,6.31c0.47,1.3,1.59,2.6,3.08,5.78c0.36,0.89,0.44,1.86,0.23,2.79
	c-0.36,2.16-0.71,2.09-0.8,3.9c-0.1,2.03,1.99,2.92,3.16,4.44s0.87,4.13,0.87,6.07c0.03,1.2-0.17,2.39-0.58,3.51
	c-0.43,0.9-0.81,1.83-1.14,2.78c-0.15,0.78-0.18,1.8,0.58,1.97c1.08,0.25,1.26-1.69,1.59-2.45c0.64-1.41,1.72-2.57,2.34-3.98
	c0.52-1.07,0.83-2.24,0.9-3.43c0.02-0.85-0.1-1.7-0.36-2.51c-0.57-1.72-1.88-2.59-2.99-4c-0.46-0.65-0.79-1.39-0.96-2.16
	c-0.14-0.46-0.16-0.94-0.08-1.41c0.21-1,0.45-1.73,0.63-2.73c0.13-0.73,0.56-1.22,0.36-1.93c-0.96-3.36-0.36-6.83-1.53-10.02
	c-0.56-1.54-1.49-2.9-1.94-4.46c-0.24-0.87,0-1.82-0.22-2.68c-0.63-2.33-1.96,0.38-3.25,0.74s-1.84,0.26-2.26-0.98
	c-0.17-0.66-0.2-1.35-0.11-2.02c0.11-2.06,1.25-3.93,3.02-4.98c1.27-0.88,3.12-1.86,3.32-3.45c0.3-2.23-0.39-4.02,1.28-5.65
	c0.87-0.86,2.09,0.11,2.58,1.08c0.17,0.36,0.96,12.07,1.16,13.2c0.14,0.86,0.41,3.07,0.93,6.05c0.21,1.08,0.6,2.16,0.8,3.34
	c0.84,4.6,1.56,9.15,2.26,13.77c0.24,1.56,0.65,1.46,1.08,3.5c0.73,3.15,1.02,6.39,0.89,9.62c-0.16,1.94-2.16,3.25-3.25,4.87
	c-0.71,1.16-0.42,2.32-0.57,3.66c-0.15,1.35-0.49,2.66-1.03,3.91c-0.29,0.9-0.78,1.72-1.43,2.4c-2.15,2.7-4.49,5.23-7.01,7.58
	c-0.79,0.53-1.76,0.71-2.68,0.5L456.35,515.25z M468.41,524.72c-2.6-0.67-1.96-2.16-2.46-4.65c-0.26-1.33-1.61-2.03-2.02-3.25
	c-0.9-2.8-0.5-5.1,2.33-6.35c0.32-0.14,0.68-0.16,1.02-0.05c1.64,0.62,2.97,1.86,3.68,3.46c0.19,0.38,0.18,0.83,0.37,1.21
	c0.95,1.54,1.49,3.3,1.58,5.11c-0.02,0.75-0.2,1.48-0.51,2.16c-0.46,1.1-1.38,1.93-2.51,2.29c-0.47,0.16-0.98,0.2-1.47,0.13
	L468.41,524.72L468.41,524.72z M457.25,536.95c-1.72-0.47-2.7-1.43-1.84-3.25c0.6-1.22,1.59-2.16,2.29-3.25
	c0.14-0.25,0.23-0.52,0.27-0.8c0.16-1.87,0.58-3.71,1.26-5.47c0.34-0.88,0.37-1.86,0.09-2.76c-0.18-1.15-0.52-1.9,0.53-2.32
	c1.23-0.35,2.56-0.12,3.59,0.63c0.31,0.17,0.54,0.46,0.62,0.8c0.27,2.03-0.54,4.25,0.95,5.69c0.92,0.9,2.45,0.61,2.76,1.98
	c0.26,1.08-0.45,1.96-1.17,2.8c-1.39,1.67-2.94,3.19-4.62,4.56c-0.7,0.59-1.52,1.01-2.41,1.22c-0.75,0.24-1.54,0.29-2.32,0.16
	V536.95z M369.51,555.16c-3.33-1.53-6.36-3.65-8.95-6.25c-0.95-0.89-0.7-1.66-0.54-2.92c0.09-0.56,0.06-1.12-0.09-1.67
	c-0.24-0.84-0.66-1.63-1.23-2.29c-0.18-0.21-0.23-0.31-1.27-0.34c-1.33,0-2.74,0.52-4.05,0.56s-2.71-0.11-3.51-1.34
	c-0.29-0.59-0.45-1.24-0.48-1.91c-0.1-0.56-0.13-1.14-0.1-1.71c0.31-6.56-0.22-13.14-1.57-19.57c-0.47-2.46-0.57-4.97-1.01-7.42
	c-0.58-3.25-1.47-6.43-2.16-9.69c-0.56-2.48-0.68-2.55-0.42-3.63c0.22-0.9,1.01-0.98,1.86-0.76c0.81,0.26,1.58,0.62,2.29,1.08
	c1.58,0.84,3.24,1.5,4.97,1.98c1.47,0.39,2.6,1.55,2.95,3.03c0.51,4.44,0.74,8.92,1.08,13.37c0.05,1.62,0.23,3.24,0.56,4.83
	c0.41,1.34,0.89,2.65,1.44,3.94c0.92,2.51,3.31,3.93,4.72,6.15c0.93,1.48,0.37,3.16,0.71,4.83c0.1,0.41,0.29,0.8,0.54,1.14
	c0.38,0.52,1.41,1.21,2.16,2.16c0.35,0.41,0.23,0.49,1.01,1.79c0.37,0.66,0.84,1.26,1.4,1.76c0.62,0.65,1.46,1.04,2.36,1.08
	c1.74,0,2.62-1.8,4.16-2.46c1.24-0.45,2.57-0.56,3.86-0.34c1.02,0.05,1.92,0.7,2.27,1.67c0.3,0.69,0.3,1.47,0,2.16
	c-1.39,2.24-3.25,4.12-4.84,6.27c-1.24,1.74-0.84,2-1.98,3.44c-1.76,2.16-3.62,2.16-6.13,1.16L369.51,555.16z M382.43,563.63
	c-2.48-0.75-5.1-1.71-6.74-3.67c-1.65-1.96-0.83-3.25,0.71-5.3c0.81-1.13,1.68-2.21,2.61-3.25c1.01-1.15,2.14-2.19,3.38-3.1
	c1.98-1.32,3.49-1.19,4.92,0.39c0.97,1.25,1.56,2.75,1.7,4.33c0.19,1.12,0.25,2.26,0.17,3.4c-0.06,1.08-0.5,2.02-0.61,3.04
	c-0.01,1.15-0.28,2.28-0.78,3.31c-1.27,1.98-3.49,1.42-5.41,0.84L382.43,563.63L382.43,563.63z M422.95,587.59
	c-1.65-3.11,0.5-6.82,1.08-10.03c0.09-0.9,0.7-1.66,1.55-1.96c0.93-0.48,2.02-0.5,2.97-0.06c2.16,1.33,2.72,3.5,5.41,2.33
	c0.8-0.35,2.37-1.69,1.19-2.38c-1.48-0.87-3.46-0.67-4.91-1.63s-3.41-2.4-2.31-4.33c0.98-1.66,2.73-2.5,4.11-3.84
	c1.35-1.41,1.91-3.4,1.5-5.3c-0.47-1.96-1.55-5.09-0.37-6.94c0.45-0.7,0.78-1.48,0.96-2.29c0.34-1.56,0.25-3.06,1.47-4.16
	c2.28-2.05,2.9-4.12,4.04-6.94c0.77-1.92,2.42-3.49,3.18-5.41c0.53-1.33,0.47-2.77,1.39-3.89c1.32-1.62,2.88-0.47,4.07,0.81
	c0.6,0.77,1.25,1.49,1.95,2.16c1.28,0.95,2.99,1.61,3.37,3.25c0.14,0.46,0.17,0.94,0.08,1.41c-0.26,0.82-0.62,1.6-1.08,2.32
	c-1.36,2.27-3.17,4.33-3.95,6.91c-0.52,1.39-0.86,2.85-1.01,4.33c-0.1,2.08,0.28,4.16,0.26,6.23c0,1.84-0.8,2.53-2.47,3.47
	c-1.93,0.92-3.54,2.39-4.62,4.24c-0.45,0.83-1.26,1.81-0.93,2.71c1.08,3.06,3.84,6.63,2.52,9.94c-0.76,1.9-3.59,2.8-5.29,3.68
	c-1.21,0.63-2.49,1.41-3.68,2.05c-1.9,1.03-3.8,2.16-5.73,3.15c-1.68,0.88-3.59,2.16-4.72,0.08L422.95,587.59z M439.5,554.76
	c-0.46-0.29-0.81-0.72-1-1.23c-0.31-1.28,0.39-1.59,1.63-1.92c0.78-0.24,1.59-0.32,2.4-0.25c0.74,0.06,1.32,0.67,1.34,1.42
	c0.02,0.59-0.21,1.16-0.64,1.57C441.94,555.78,441.01,555.88,439.5,554.76z M498.02,565.2c-0.87,0.02-1.68-0.48-2.03-1.28
	c-0.18-0.42-0.2-0.89-0.08-1.33c0.32-1.2,0.98-2.28,1.36-3.46c0.6-1.86,0.15-1.99,1.01-4.33c0.45-1.22,2.23-1.08,3.34-0.52
	c1.36,0.67,2.45,1.69,3.95,1.87c2,0.25,4.26-0.7,4.89,1.47c0.55,1.89-0.29,3.9-2.01,4.85c-1.7,0.92-3.52,1.59-5.41,1.98
	c-0.55,0.17-1.11,0.3-1.68,0.4c-1.11,0.23-2.25,0.33-3.39,0.3L498.02,565.2z M377.08,394.18c-0.25-0.67-0.43-1.36-0.54-2.07
	c-0.36-1.81,1.08-3.98,2.55-2.07c0.69,1.15,0.82,2.55,0.38,3.81C379.01,395.62,378.14,396.64,377.08,394.18L377.08,394.18z
	 M379.24,436.53c0.9-1.99,1.81-3.98,2.67-6c0.18-0.34,0.29-0.7,0.32-1.08c-0.03-1.13-0.17-2.25-0.42-3.36
	c-0.26-1.88,1.37-2.54,2.91-1.82c1.73,0.82,1.6,1.47,1.66,3.42c0.01,0.22-0.04,0.43-0.13,0.63c-1.67,3.25-2.99,6.67-5.31,9.46
	c-2.09,2.5-2.94,1.62-1.63-1.26L379.24,436.53z M351.4,490.32c-0.5-0.07-0.98-0.26-1.4-0.54c-0.86-0.44-1.66-1.3-0.58-1.72
	c1.07-0.42,2.16-0.17,2.85-1.29c0.52-0.81,0.93-1.68,1.23-2.6c0.28-1.39,0.37-1.36,0.62-2.8s0-2.97,0.22-4.33
	c0.47-3,2.29-2.24,1.98,0.64s0.68,5.8-0.86,8.53c-1.08,1.86-1.79,3.83-4.06,4.15L351.4,490.32z M355.91,463.16
	c-1.2-0.02-2.36-0.48-3.25-1.29c-0.22-0.2-0.37-0.47-0.44-0.76c-0.06-0.63,0.17-1.26,0.62-1.71c1.45-1.81,1.86-0.97,3.02,0.65
	c0.7,0.98,0.82,0.9,1.29,1.16s1.63,0.26,1.52,0.73C358.39,463.02,356.89,463.21,355.91,463.16L355.91,463.16z M326.89,254.88
	c-0.04-0.46,0.07-0.91,0.31-1.3c2.38-3.74,4.33-6.28,4.85-7.26c0.29-0.54,0.54-1.11,0.75-1.69c0.19-0.65,0.14-1.4-0.89-1.57
	c-1.03-0.17-1.39,0.34-1.93,1.01c-1.69,2.11-2.64,4.78-4.25,6.94c-0.66,0.89-0.75,0.86-1.19,1.08c-1.12,0.65-2.48,0.71-3.66,0.18
	c-1.88-1.03-5.15-3.84-3.86-6.1c1.29-2.26,2.97,0.63,4.63,0.82c1.48,0.17,2.47-1.34,3.25-2.53c0.71-1.1,1.25-2.31,1.58-3.57
	c0.19-0.91,0.17-1.99-0.69-2.16c-1.3-0.22-1.83,1.01-2.98,1.7c-1.15,0.69-2.71,0.21-4.15,0.45c-1.9,0.31-1.98,1.75-3.18,3.14
	c-0.76,0.84-1.95,1.16-3.03,0.81c-0.55-0.16-1.01-0.56-1.24-1.08c-0.93-1.89,1.19-4.55,2.07-6.14c0.44-0.65,0.71-1.39,0.81-2.16
	c0.21-1.6,0.6-3.17,1.15-4.69c0.84-1.98,2.91-2.62,4.77-3.67c1.67-0.95,2.72-2.75,4.06-4.11c1.74-1.75,3.89-3.02,5.62-4.77
	c0.8-0.81,1.29-1.97,2.16-2.74c0.58-0.5,1.41-0.58,2.08-0.21c0.47,0.24,0.9,0.55,1.28,0.93c2.78,2.99,4.82,6.58,5.96,10.5
	c0.6,2.59,1.08,1.94,1.28,3.64c0.28,2.12,0.39,4.27,0.34,6.41c0.01,1.56-0.39,3.1-1.16,4.46c-1.15,2.51-3.98,7.3-7.32,9.74
	c-0.41,0.29-0.31,0.4-2.84,2.59c-0.54,0.47-1.34,1.08-1.97,1.61c-0.87,0.71-2.45,1.7-2.57-0.29L326.89,254.88z M396.1,172.82
	c-0.63,0.02-1.22-0.3-1.56-0.83c-0.95-1.83-0.6-4.33-0.41-6.33c0.06-0.79,0.28-1.56,0.65-2.26c0.51-0.96,1.43-0.77,2.07-0.05
	c0.27,0.45,0.47,0.93,0.6,1.44c0.99,2.1,2.24,4.06,3.73,5.83c0.24,0.36,0.26,0.81,0.05,1.19c-0.29,0.54-0.44,0.49-0.68,0.51
	C399.09,172.6,397.6,172.77,396.1,172.82z M344.67,157.25c-1.46-0.36-2.59-1.53-2.9-3.01c-0.41-1.94,0.13-2.34,2.11-2.01
	c1.2,0.19,2.12,1.17,2.23,2.38C346.51,156.39,346.54,157.65,344.67,157.25z M343.43,162.87c-1.7-0.23-3.7-1.08-2.82-3.03
	c0.6-1.35,2.84-1.08,3.98-0.45c0.42,0.23,0.72,0.62,0.83,1.08c0.29,1.58-0.25,2.66-1.99,2.44V162.87z M371.92,181.03
	c-0.77-0.15-1.46-0.58-1.94-1.2c-1.37-1.49-1.08-2.34,0-3.89c0.92-1.3,1.98-2.49,3.15-3.56c0.8-0.89,1.72-1.67,2.73-2.32
	c1.08-0.62,2.32-0.95,3.25,0c0.41,0.44,0.39,0.5,0.41,0.81c0.28,2.85-0.62,5.69-2.5,7.86c-0.63,1.01-1.58,1.77-2.71,2.16
	c-0.76,0.2-1.54,0.25-2.32,0.16L371.92,181.03z M430.99,202.45c-4.21-0.71-4.86-5.56-6.15-8.93c-0.17-0.34-0.17-0.74,0-1.08
	c0.64-1.23,1.56-2.28,2.7-3.07c3.33-2.31,7.11-3.85,10.66-5.82c0.16-0.09,0.27-0.26,0.44-0.32c2.42-1.03,4.82-2.29,7.32-3.16
	c1.55-0.54,5.78-0.24,5.15-2.7c-0.42-1.65-2.73-1.86-1.58-3.81c0.41-0.66,0.92-1.25,1.5-1.75c0.64-0.58,1.37-1.04,2.16-1.39
	c2.68-1.08,5.62-1.41,8.36-2.45c1.65-0.63,3.25-2,4.92-0.86c0.59,0.47,1.11,1.02,1.56,1.62c0.28,0.32,0.51,0.69,0.67,1.08
	c2.05,4.99,3.55,10.2,2.28,15.56c-0.11,0.8-0.44,1.55-0.97,2.16c-1.55,2.07-3.92,1.98-6.35,2.66c-1.5,0.34-2.97,0.78-4.41,1.31
	c-1.42,0.6-2.4,1.9-3.71,2.74c-0.31,0.21-0.74,0.18-1.08,0.37c-2.11,1.15-4.28,2.2-6.49,3.12c-2.41,1.01-4.78,2.37-7.33,2.93
	c-1.59,0.35-3.25,0.11-4.84,0.41c-0.91,0.31-1.79,0.69-2.64,1.14c-0.67,0.2-1.38,0.28-2.08,0.24L430.99,202.45z M389.47,118.79
	c-0.69,0-1.08-0.12-1.31-0.78c-0.23-0.66,0.58-0.97,1.08-1.28s1.24-0.38,1.71-0.62c1.22-0.61,1.78-1.5,3-0.98
	c0.29,0.14,0.49,0.43,0.51,0.76c0.03,0.36-0.1,0.71-0.34,0.97c-0.66,0.81-1.55,1.4-2.55,1.69c-0.71,0.19-1.44,0.27-2.16,0.24H389.47
	z M379.45,187.66c-0.74-0.09-1.44-0.39-2-0.88c-2.81-1.86-5.29-4.24-8.06-6.16c-1.55-0.91-2.93-2.08-4.09-3.45
	c-0.54-0.69-0.91-1.49-1.08-2.35c-0.26-0.82-0.12-0.9-0.37-1.16c-2.16-2.24-4.54-4.41-6.49-6.82c-0.74-0.93-0.76-1.16-1.15-1.62
	c-1.14-1.54-1.88-3.33-2.16-5.22c-0.24-1.17-0.3-2.37-0.19-3.56c0.02-2.92,0.92-5.77,2.6-8.17c1.56-2.53,4.1-4.29,7.01-4.86
	c1.28,0.05,2.57,0.01,3.84-0.13c0.8-0.12,1.21-1.18,1.72-0.45c0.32,0.47-0.22,1.22,0.1,1.7c0.91,1.41,3.02,0,4.33-0.49
	c0.5-0.2,1.08-0.02,1.39,0.42c0.81,1.02,1.19,2.64,2.29,3.39c2.51,1.7,4.6,1.49,5.99,4.43c0.75,1.61,1.08,3.12,2.27,4.39
	c0.26,0.25,0.6,0.4,0.96,0.42c1.2,0.11,2.41,0.04,3.59-0.19c2.01-0.58,3.71-1.94,4.72-3.78c0.66-1.15,1.54-2.17,2.58-3
	c0.66-0.48,1.45-0.81,2.09-0.34c0.43,0.34,0.27,0.92,0,1.39s-0.88,1.17-1.08,1.66c-0.46,0.84-0.75,1.77-0.84,2.73
	c-0.1,1.64-0.02,3.28,0.26,4.9c0.14,0.82,0.25,0.81,2.03,3.59c0.7,1.08,1.7,2.03,2.47,3.1c0.59,0.78,1.1,1.61,1.53,2.48
	c0.82,1.57,0.34,3.43,0.96,5.04c0.33,0.63,1.09,0.88,1.73,0.57c0.65-0.26,1.1-0.87,1.15-1.57c0.15-1.41,0.68-2.76,1.53-3.9
	c0.75-0.94,0.91-0.83,0.92-1.02c0.01-0.54-0.12-1.08-0.38-1.56c-0.51-1.17-0.47-1.45,1.53-1.01c1.4,0.28,2.85,0.12,4.16-0.44
	c3.36-1.3,5.47-3.34,6.23-6.91c0.29-1.22,0.37-2.48,0.24-3.72c-0.15-0.71-0.21-1.44-0.19-2.16c0.17-1.55,1.21-2.34,2.4-1.08
	c0.38,0.39,0.67,0.85,0.86,1.36c0.22,0.56,0.35,1.15,0.4,1.75c0.03,2.45-0.21,4.9-0.71,7.3c-0.41,2.62-1.53,5.07-3.25,7.09
	c-0.34,0.58-1.08,0.79-1.68,0.47c-1.75-0.75-4.49-2.57-6.04-0.75c-1.05,1.43-1.67,3.14-1.79,4.91c-0.11,0.61-0.09,1.19-0.22,1.79
	c-0.13,0.6-0.66,1.43-0.81,2.16c-0.38,1.99-1.48,3.93-3.62,3.92c-0.7-0.05-1.39-0.23-2.03-0.52c-0.57-0.24-1.12-0.51-1.66-0.82
	c-1.1-0.8-2.05-1.79-2.78-2.93c-0.86-1.08-1.08-1.49-2.35-0.97c-1.61,0.76-2.8,2.2-3.25,3.93c-0.22,0.66-0.15,1.42-0.32,2.11
	c-0.07,0.42-0.21,0.82-0.43,1.18c-0.08,0.08-0.21,0.08-0.29,0l0,0c-0.45-0.62-0.26-1.36-0.51-2.08c-0.24-0.95-0.93-1.71-1.85-2.03
	c-0.4-0.12-0.82-0.1-1.2,0.06c-1.32,0.46-2.55,1.16-3.62,2.06c-1.88,1.58-1.67,1.81-4.08,4.21c-0.77,1.01-1.98,1.58-3.25,1.53
	L379.45,187.66z M383.86,136.79c-0.61-0.07-1.23-0.11-1.84-0.1c-0.89,0.05-1.31,0.31-1.56-0.61c-0.06-0.28,0.18-0.54,0.31-0.79
	c1.72-3.34,1.7-3.39,1.95-3.56c0.53-0.42,1.3-0.32,1.72,0.21c0.11,0.14,0.19,0.31,0.23,0.49c0.43,1.21,0.5,2.53,0.19,3.78
	C384.73,136.63,384.3,136.88,383.86,136.79L383.86,136.79z M411.12,289.55c-0.83-0.17-0.66-1.08-0.98-1.86
	c-1.08-2.64-2.05-5.34-3.05-8.02c-0.6-1.61-0.3-1.71-0.77-2.89c-0.63-1.21-1.1-2.5-1.39-3.83c-0.06-0.62-0.21-1.39,0.28-1.72
	c0.49-0.34,1.3,0.41,1.7,1.19c0.37,0.68,0.65,1.41,0.83,2.16c0.17,0.91,0.11,1.86,0.3,2.76c0.29,0.86,0.65,1.69,1.08,2.49
	c0.23,0.63,0.17,1.35,0.41,1.99c0.79,2.16,2.05,4.18,2.8,6.33c0.24,0.49,0.04,1.09-0.46,1.33c-0.23,0.11-0.5,0.13-0.75,0.05
	L411.12,289.55z M397.93,249.5c-0.65-1.6-0.87-3.34-0.63-5.05c-0.01-0.37,0.04-0.73,0.15-1.08c0.38-0.81,0.96-0.39,1.42,0.18
	c0.28,0.35,0.66,0.69,0.73,1.02c0.34,1.42,0.45,2.88,0.34,4.33c-0.19,1.66-1.19,2.16-2,0.63L397.93,249.5z M467.32,301.14
	c-0.18,0-0.44-0.09-0.52-0.27s0.31-0.98,0.73-1.61c0.52-0.81,1.22-1.62,1.4-1.99c0.59-1.4,1.39-2.71,2.38-3.86
	c0.19-0.28,0.57-0.35,0.84-0.16l0.01,0.01c0.38,0.26,0.4,0.56,0.24,1c-0.4,1.08-0.97,2.38-1.59,3.66c-0.41,0.95-1.01,1.81-1.76,2.52
	c-0.34,0.3-0.74,0.52-1.17,0.64C467.7,301.13,467.51,301.16,467.32,301.14L467.32,301.14z M376.41,242.3c-1.56-0.87-1-2.02,0-3.25
	c2.91-3.29,5.5-6.85,7.74-10.63c0.95-1.75,1.87-3.53,2.88-5.25c0.87-1.6,1.56-3.3,2.06-5.05c0.61-1.71,1.48-1.54,2-0.23
	c0.01,0.93-0.13,1.85-0.41,2.73c-0.27,1.08-0.83,1.8-1.16,2.84c-1.1,3.01-2.55,5.88-4.33,8.54c-1.42,2.25-2.85,4.56-4.33,6.73
	c-0.8,1.47-2,2.69-3.46,3.52c-0.3,0.19-0.67,0.23-1,0.1L376.41,242.3z M366.58,247.71c-1.61-0.32-0.49-1.61,0.35-2.57
	c0.6-0.83,1.44-1.46,2.41-1.79c1.76-0.39,2.95-0.17,2.77,1.83c-0.08,1.15-0.94,2.09-2.08,2.27
	C368.91,247.81,367.73,247.89,366.58,247.71L366.58,247.71z M361.32,241.58c-0.4,0-0.92,0-1.17-0.32c-0.63-0.77,0.13-1.62,0.73-2.23
	c1.57-1.8,3.31-3.45,5.21-4.91c2.11-1.45,2.41,0.75,1.56,2.24c-1.2,2.15-3.04,3.88-5.25,4.97
	C362.06,241.5,361.69,241.59,361.32,241.58L361.32,241.58z M359.93,232.23c1.63-3.06,4.76-4.82,7.58-6.68
	c1.92-1.24,2.64-0.96,1.33,1.21c-1.38,2.08-3.04,3.97-4.94,5.61c-0.53,0.48-1.11,0.9-1.73,1.26c-1.3,0.48-3.37,0.64-2.28-1.4
	L359.93,232.23L359.93,232.23z M355.19,223.03c0.38-1.59,1.09-3.09,2.09-4.38c1.08-1.15,1.92-1.75,3.4-1.08
	c0.81,0.33,1.53,0.85,2.1,1.52c1.08,1.4-1.57,1.34-2.63,1.67c-1.76,0.54-2.67,1.79-3.72,3.12c-0.2,0.36-0.46,0.68-0.75,0.97
	c-1.63,1.23-0.73-1.14-0.49-1.83V223.03z M366.88,212.52c-0.95-0.04-1.86-0.42-2.54-1.08c-1.18-1.09-2.17-2.37-2.92-3.79
	c-0.35-0.49-0.38-1.13-0.09-1.65c0.84-1.42,2.21-2.45,3.81-2.85c0.41-0.11,0.84-0.14,1.26-0.08c0.94,0.3,1.86,0.66,2.76,1.08
	c0.82,0.27,2.39,0.05,2.24,1.08c-0.23,1.54-0.39,2.9-0.62,4.43c-0.1,0.68-0.09,0.79-0.86,1.53c-0.76,0.87-1.88,1.35-3.04,1.3V212.52
	z M372.39,220.4c-1.37-0.05-0.25-1.99,0.28-2.81c0.67-1.08,2.99-3.96,3.6-1.57C376.84,218.18,374.42,220.5,372.39,220.4z
	 M378.82,207.91c0.42-0.85,1.02-1.59,1.78-2.16c1.02-0.82,2.02-0.36,1.72,1.08c-0.29,0.94-0.85,1.78-1.62,2.39
	c-1.16,0.98-2.61,0.47-1.87-1.3v-0.01H378.82z M385.71,202.5c-1.21-0.1-2.77-1.16-2.16-2.52c0.36-0.81,1.24-1.79,2.16-1.61
	c1.32,0.27,1.97,0.87,1.99,2.16c0.02,1.3-0.73,2.06-1.94,1.95L385.71,202.5z M385.26,214.25c-0.71,0.09-1.19-0.78-1.44-1.46
	c-0.34-0.93,0.73-3,1.82-4.26c2.16-2.51,1.66-0.36,1.72,0.79C387.48,211.33,387.45,213.99,385.26,214.25L385.26,214.25z
	 M383.73,194.04c-1.15-0.24-1.44-1.08-0.58-2.03c0.73-0.79,2.1,0.34,1.88,1.2c-0.06,0.55-0.56,0.94-1.1,0.88
	C383.86,194.08,383.8,194.07,383.73,194.04L383.73,194.04z M377.81,194.59c-0.62-0.07-1.19-0.35-1.61-0.81
	c-1.95-1.64-4.21-2.86-6.66-3.58c-0.6-0.14-1.08-0.67-1.66-0.83c-2.74-0.65-5.37-1.67-7.84-3.02c-0.29-0.21-0.47-0.53-0.51-0.89
	c-0.28-2.94,4.64-0.06,5.41,0.35c2.46,1.39,5.1,2.49,7.58,3.93c1.53,0.9,3.53,1.56,4.91,2.75c0.45,0.39,0.82,0.86,1.08,1.39
	c0.17,0.34-0.34,0.8-0.7,0.73h0V194.59z M346.1,170.08c-2.81-0.4,0.64-3.25,1.86-2.85c0.6,0.18,0.57,0.35,0.6,0.54
	c-0.03,1.3-1.11,2.34-2.41,2.31C346.13,170.08,346.11,170.08,346.1,170.08z M448.51,222.3c-1.87-0.44-3.4-2.16-5.3-2.39
	c-3.51-0.31-7.06-0.13-10.52,0.53c-2.07,0.35-3.62,2.02-5.65,2.61c-0.64,0.19-1.08-0.13-0.94-0.77c0.38-1.35,2.48-1.87,3.69-2.38
	c0.68-0.26,1.33-0.6,1.94-1.01c0.66-0.47,1.24-1.04,1.72-1.7c1.36-1.74,1.61-2.36,3.78-1.81c1.11,0.37,2.26,0.6,3.43,0.67
	c2.46,0,4.92-0.13,7.36-0.39c0.56-0.08,1.11-0.27,1.6-0.55c1.08-0.6,7.17-3.45,5.41,0c-1.26,2.13-2.73,4.13-4.39,5.96
	c-0.76,0.95-1.02,1.5-2.16,1.24L448.51,222.3z M411.86,155.3c-0.36-0.86-0.47-1.8-0.31-2.72c0.11-0.79,0.84-1.34,1.62-1.23
	c0.34,0.05,0.66,0.22,0.89,0.48c0.42,0.34,1.01,0.75,1.01,1.33c-0.12,0.87-0.46,1.69-0.98,2.39
	C412.85,157.51,412.37,156.82,411.86,155.3z M413.22,146.2c0.05-0.37,0.15-0.74,0.29-1.08c0.15-0.37,0.39-0.7,0.69-0.95
	c0.79-0.66,1.75-0.38,1.42,1.08c-0.09,0.44-0.24,0.87-0.45,1.27c-0.66,1.17-2.16,1.43-1.95-0.34V146.2z M377.89,331.5
	c0.03-0.55-0.01-1.1-0.11-1.63c-0.26-0.66-0.63-1.27-1.08-1.82c-1.28-1.73-2.82-3.52-3.15-5.57c-0.25-1-0.1-2.05,0.41-2.94
	c0.96-1.37,2.49,0.43,3.51,2.16c0.52,0.77,0.97,1.58,1.35,2.42c0.34,1.18,0.92,2.16,1.26,3.32c0.29,1.01,0.34,2.07,0.16,3.11
	c-0.18,0.88-0.5,1.73-0.95,2.51c-1.59,2.8-1.27,1.08-1.44-1.52L377.89,331.5z M450.56,449.83c-0.47,0-0.62-0.41-0.48-1
	c0.39-0.94,0.85-1.84,1.4-2.7c0.38-0.87,0.69-1.76,0.94-2.67c-0.15-1.18-0.15-2.37,0-3.55c0.19-1.88,1.74-3.25,2.35-5.05
	c0.43-1.19,0.73-2.42,0.89-3.67c0.14-1.23,0.3-2.16,0.52-3.42c0.08-0.47-0.09-0.94,0-1.4c0.18-0.88,0.69-1.69,0.79-2.59
	c0.12-0.99,0.07-2-0.15-2.98c-0.22-0.87-1.26-1.79-1.08-2.66c0.36-1.71,1.02-2.75,0.39-4.39c-0.53-1.3-1.22-2.54-2.05-3.68
	c-1.16-1.85-1.28-2.16,0.36-3.6c0.8-0.67,1.68-1.24,2.5-1.88c2.37-1.64,4.5-3.6,6.34-5.81c0.57-0.65,1.05-1.38,1.42-2.16
	c0.75-1.34,1.48-3.85,3.11-3.67c1.62,0.18,0.64,2.07,0,3.31c-0.27,0.62-0.67,1.18-1.18,1.62c-1.67,1.54-1.87,1.31-2.61,2.16
	c-1.08,1.26-0.8,2.82-1.02,4.39s-1.59,0.93-2.8,1.32c-2.16,0.73-2.06,1.42-1.71,3.67c0.13,0.9,0.54,0.74,1.03,1.96
	c0.58,1.54,1.08,3.11,1.48,4.7c0.23,0.87,0.78,1.62,0.97,2.5c0.38,1.66,0.17,2.35,0.67,3.97c0.64,2.08-0.77,3.59-1.32,5.5
	c-0.27,0.9,0.13,0.95-0.12,2.32c-0.25,1.36-0.55,2.37-0.88,3.67c-0.36,1.43-1.03,2.76-1.97,3.9c-1.19,1.46-3,2.54-3.93,4.21
	c0.02,0.64,0.01,1.29-0.05,1.93c-0.18,1.4-1.18,2.16-1.99,3.25c-0.49,0.66-0.94,2.49-1.75,2.46L450.56,449.83z M443.62,410.31
	c-1.87-0.23-1.83-1.22-1.39-2.29c0.14-0.43,0.32-0.84,0.55-1.23c1.22-1.98,2.16-4.1,3.46-6.05c0.3-0.48,0.83-0.8,1.15-1.28
	c1.08-1.66,0.92-3.4,1.34-5.31c0.48-2.24,2.63-3.25,3.59-0.58c0.31,0.98,0.37,2.02,0.16,3.03c-0.17,1.36-0.53,2.68-1.08,3.93
	c-0.41,1.04-1.02,1.99-1.79,2.79c-0.95,1.08-2.27,1.88-3.07,3.1c-0.8,1.21-1.22,4.11-2.9,3.91L443.62,410.31z M419.74,425.93
	c-0.7-0.56-1.35-1.24-2.02-1.86c-0.08-0.08-0.1-0.19-0.17-0.26s-0.11,0-0.14,0c-2.47-2.48-5.36-4.54-7.51-7.3
	c-0.88-1.08-1.58-2.38-2.35-3.58c-0.5-0.75-0.96-1.53-1.37-2.34c-0.48-0.97-1.55-1.69-1.76-2.76c-0.6-3.07,0.08-6.55-1.08-9.5
	c-0.54-1.44-1.08-2.59-1.53-4.09c-0.17-0.63-1.54-3.68-0.19-3.36c1.6,0.38,2.54,2.06,3.06,3.57c0.29,0.88,0,1.86,0.22,2.76
	c0.44,1.86,0.82,3.31,1.35,5.1c0.38,1.28,1.48,2.23,2.03,3.44c0.45,1.01,0.4,2.24,0.79,3.25c1.16,2.76,2.89,5.24,5.08,7.27
	c3.18,3.18,3,3.39,3.5,3.66c1.46,0.78,2.61-0.56,2.24-1.92c-0.49-1.76-1.75-2.46-1.08-4.21c0.19-0.79,0.59-1.52,1.16-2.1
	c0.93-0.96,2.13-1.61,3.44-1.87c0.81-0.25,1.53-0.78,2.34-1.08c0.39-0.17,0.8-0.29,1.21-0.38c2.76-0.5,5.49-1.78,6.49-4.47
	c0.27-0.71,0.13-1.54,0.35-2.26c0.52-1.85,0.5-2.7,2.06-4.08c1.03-0.92,2.24-1.94,2.25-3.4c0-2.88-0.89-6.16,0.3-8.89
	c0.3-0.71,0.68-1.38,1.14-2c1.14-1.47,2.24-3.25,4.09-3.64c0.93-0.17,0.9,1.36,0.63,2.49c-0.22,0.97-0.53,1.91-0.92,2.82
	c-1.19,2.4-2.98,5.15-3.25,7.9c-0.05,0.54-0.48,1.02-0.54,1.57c-0.16,1.67-0.4,3.33-0.74,4.97c-0.51,2.57-1.08,4.91-3.16,6.36
	c-1.08,0.76-1.35,0.15-2.44,0.6c-1.68,0.68-2.65,2.45-3.87,3.74c-0.4,0.42-0.89,0.74-1.43,0.93c-0.62,0.22-1.32,0-1.92,0.26
	c-0.93,0.25-1.78,0.72-2.49,1.37c-0.8,0.54-1.33,1.39-1.46,2.35c0,3.2,0.23,6.39,0.69,9.56c0.23,2.62-0.82,3.1-3.1,1.3
	L419.74,425.93z M410.48,391.46c-2.05-0.35-1.74-2.61-1.59-4.48c0.21-1.22,0.57-2.4,1.08-3.53c0.41-1.59,1.28-3.02,2.51-4.1
	c1.22-0.94,2.67-1.23,3.07,0.41c0.56,2.24-2.37,3.55-2.86,5.65c-0.36,1.54-0.17,3.25-0.83,4.68c-0.44,0.94-0.39,1.54-1.35,1.37
	L410.48,391.46z M387.41,382.65c-0.99-0.3-1.81-0.99-2.26-1.92c-0.39-0.49-0.57-1.11-0.52-1.73c0.11-0.84,0.89-1.43,1.73-1.32
	c0.12,0.02,0.23,0.04,0.34,0.09c0.93,0.28,1.68,0.96,2.06,1.86c0.27,0.84,0.49,2.23-0.42,2.77
	C388.06,382.58,387.74,382.67,387.41,382.65z M417.35,374.04c-0.45-0.06-0.82-0.4-0.92-0.84c-0.06-0.46,0.09-0.93,0.42-1.27
	c0.42-0.43,1.1-0.44,1.53-0.02c0.01,0.01,0.01,0.01,0.02,0.02c0.39,0.35,0.75,1.08,0.31,1.57
	C418.38,373.91,417.86,374.11,417.35,374.04L417.35,374.04z M423.01,370.28c-0.69-0.24-1.63-0.89-1.6-1.71
	c0.03-0.24,0.14-0.46,0.29-0.64c1.44-1.56,2.79-3.19,4.05-4.9c1.14-1.71,2.45-3.3,3.91-4.75c0.48-0.45,0.51-1.08,0.77-1.67
	c0.69-1.88,0.93-3.91,0.68-5.9c-0.13-2.16,0.93-4.26,1.45-6.41c0.15-0.66,0.5-1.66,1.2-1.65c1.01,0,0.95,0.71,0.8,1.72
	s-0.7,1.52-0.41,2.39c0.59,1.51,0.65,3.17,0.17,4.72c-0.27,1.4-0.36,2.66-0.64,4.04s-1.44,2.29-1.73,3.65
	c-0.1,0.44,0.15,0.95,0,1.39c-0.82,2.29-2.59,3.64-4.71,4.91c-1.76,1.08-2.03,3.47-3.76,4.65
	C423.36,370.24,423.18,370.3,423.01,370.28L423.01,370.28z M386.61,364.56c-1.08-0.22-1.37-0.76-1.31-1.44
	c0.17-0.81,0.49-1.58,0.93-2.27c0.76-1.4,1.7-1.47,2.51-0.14c0.46,0.94,0.36,2.05-0.25,2.9
	C388.12,364.28,387.38,364.66,386.61,364.56z M385.33,372.57c-0.26-0.03-0.49-0.19-0.61-0.42c-0.43-0.83-0.68-1.74-0.74-2.67
	c-0.13-0.86,0.4-1.68,1.24-1.89c1.2-0.3,1.66,0.42,1.81,1.57c0.03,1.08-0.31,2.13-0.95,3C385.92,372.4,385.64,372.56,385.33,372.57z
	 M391.44,356.67c-2.16-0.32-1.81-1.67-0.88-2.97c0.44-0.6,0.93-1.16,1.47-1.67c0.8-0.77,1.82-1.27,2.63-2.02
	c0.81-0.76,1.43-2.16,2.35-3.02s1.08-0.55,1.43-1.35c0.9-1.99,1.08-3.95,2.84-5.34c1.96-1.58,4.45-2.5,6.39-4.09
	c0.7-0.66,1.34-1.39,1.92-2.16c1.73-2.11,3.91-3.82,6.39-4.98c1.44-0.67,2.75-1.43,4.13-2.23c0.43-0.22,0.83-0.5,1.19-0.83
	c0.63-0.52,1.11-1.19,1.4-1.96c0.42-1.28,1-2.51,1.73-3.64c0.73-0.92,1.68-1.63,2.41-2.52c0.43-0.43,0.8-0.91,1.08-1.45
	c0.7-1.19,1.31-2.44,1.82-3.72c0.5-1.08,0.93-2.06,1.45-3.07c0.16-0.32,0.34-0.74,0.67-0.83c0.79-0.24,1.18,0.86,1.15,1.52
	c-0.06,0.45-0.17,0.89-0.34,1.32c-0.19,0.71-0.25,1.43-0.4,2.16c-0.39,1.5-1,2.94-1.8,4.28c-0.12,0.22-2.7,2.16-2.81,2.66
	c0,0.08-0.15,0-0.19,0.1c-3.25,4.83-3.11,4.96-4.21,6.15c-1.5,1.65-3.26,3.03-5.22,4.09c-6.49,3.44-7.98,3.54-12.52,10.01
	c-1.61,2.31-4.46,3.41-6.49,5.34c-1.72,1.65-2.42,3.96-3.6,6.04c-0.95,1.67-1.95,4.44-3.98,4.13L391.44,356.67z M416.93,319.22
	c-1.01,0.08-1.52-0.93-1.31-1.95c0.31-1.86,0.83-3.68,1.57-5.41c0.47-0.95,0.88-1.92,1.23-2.91c0.45-1.93-0.83-4.09-1.24-6.01
	c-0.13-0.64,0.09-1.33-0.17-1.92c-0.38-0.92-0.84-1.81-1.39-2.65c-0.41-0.59-0.86-1.16-1.33-1.7c-0.62-0.66-0.76-1.63-0.37-2.44
	c0.27-0.31,0.67-0.47,1.08-0.42c0.54,0.14,1.02,0.43,1.41,0.83c1.49,1.29,2.56,3,3.08,4.9c0.48,1.42,0.87,2.57,1.21,4.03
	c0.18,0.9,0.18,1.82,0,2.72c-0.08,0.66-0.38,1.29-0.43,1.96c-0.08,0.96,0.25,1.96,0.08,2.92c-0.32,1.85-0.62,1.79-0.77,2.98
	c-0.24,1.89-0.58,4.91-2.7,5.07L416.93,319.22L416.93,319.22z M437.39,483.3c-1.63-0.18-4.43,1.08-5.07-0.49
	c-0.89-2.16,2.28-1.42,3.84-2.16c2.27-1.01,2.47-3.69,2.97-6.06c0.17-0.84,0.74-2.66,1.81-1.81c0.21,0.14,0.34,0.37,0.37,0.62
	c-0.11,1.38-0.38,2.74-0.79,4.06c-0.31,1.26-0.08,2.53-0.5,3.72c-0.35,1.17-1.41,2-2.63,2.07L437.39,483.3L437.39,483.3z"/>
<path class="st0" d="M388.69,631.74c6.97,0.03,13.81,1.81,19.92,5.17c6.36,3.52,11.92,8.31,16.35,14.07
	c4.86,6.29,8.6,13.36,11.07,20.91c5.43,16.65,5.43,34.59,0,51.24c-2.47,7.56-6.21,14.63-11.07,20.92
	c-4.44,5.76-10,10.54-16.35,14.07c-6.1,3.37-12.95,5.15-19.92,5.17c-7.03-0.02-13.93-1.8-20.1-5.16
	c-6.39-3.52-11.99-8.3-16.45-14.07c-4.88-6.28-8.64-13.36-11.11-20.92c-5.44-16.65-5.44-34.59,0-51.24
	c2.47-7.56,6.23-14.63,11.11-20.91c4.46-5.77,10.06-10.56,16.45-14.07C374.75,633.55,381.66,631.77,388.69,631.74z M401.38,643
	c3.42,3.46,5.34,8.13,5.33,12.99v82.84c-0.01,4.9-1.92,9.61-5.33,13.14c-3.33,3.52-7.97,5.51-12.82,5.51
	c-4.85-0.02-9.49-2.01-12.85-5.51c-3.45-3.51-5.39-8.22-5.41-13.14v-82.86c-0.03-10.09,8.12-18.29,18.21-18.32
	c4.82-0.01,9.43,1.92,12.82,5.35L401.38,643L401.38,643z"/>
<path class="st0" d="M605.51,631.74c6.96,0.03,13.81,1.81,19.9,5.17c6.36,3.52,11.92,8.31,16.35,14.07
	c4.86,6.29,8.6,13.36,11.07,20.91c5.43,16.65,5.43,34.59,0,51.24c-2.47,7.56-6.21,14.63-11.07,20.92
	c-4.43,5.76-10,10.55-16.35,14.07c-6.1,3.37-12.94,5.15-19.9,5.17c-7.03-0.02-13.94-1.8-20.11-5.16
	c-6.39-3.52-11.99-8.31-16.45-14.07c-4.87-6.29-8.63-13.36-11.11-20.92c-5.44-16.65-5.44-34.59,0-51.24
	c2.48-7.55,6.24-14.63,11.11-20.91c4.46-5.77,10.06-10.56,16.45-14.07C591.57,633.55,598.48,631.77,605.51,631.74z M618.2,643
	c3.42,3.46,5.33,8.13,5.33,12.99v82.84c-0.01,4.9-1.92,9.61-5.33,13.14c-3.33,3.52-7.97,5.51-12.82,5.51
	c-4.85-0.02-9.49-2.01-12.85-5.51c-3.45-3.51-5.39-8.22-5.41-13.14v-82.86c-0.02-10.08,8.12-18.28,18.21-18.32
	c4.82-0.01,9.44,1.92,12.83,5.35L618.2,643L618.2,643z"/>
<path class="st0" d="M451.29,633.39h50.96v6.91h-12.71v114.55h23.31c9.57,0,15.26-7.33,18.64-16.24c3.58-9.45,4.52-20.67,4.65-26.66
	h5.79v49.79h-90.65v-6.91H464V640.29h-12.71V633.39z"/>
<path class="st0" d="M233.08,754.84h12.71V640.29h-12.71v-6.91h59.73c5.17,0,10.29,1.03,15.07,3.02c4.16,1.74,7.96,4.22,11.22,7.32
	c1.59,1.52,3.04,3.19,4.33,4.98c1.27,1.78,2.36,3.68,3.25,5.68c3.72,8.24,3.72,17.68,0,25.91c-1.82,3.98-4.39,7.57-7.58,10.57
	c-3.27,3.08-7.07,5.55-11.22,7.28c-4.78,1.98-9.9,3.01-15.07,3.01h-21.47v53.67h12.71v6.91h-50.96L233.08,754.84L233.08,754.84z
	 M300.18,658.15c-0.6-3.08-1.67-6.05-3.19-8.8c-1.45-2.63-3.52-4.86-6.03-6.49c-2.8-1.73-6.03-2.61-9.32-2.54h-10.29v53.97h10.29
	c3.17,0.05,6.28-0.84,8.94-2.55c2.47-1.67,4.51-3.89,5.96-6.49c1.53-2.71,2.66-5.63,3.36-8.66c0.71-3.02,1.1-6.11,1.15-9.21
	C301.1,664.28,300.81,661.18,300.18,658.15L300.18,658.15z"/>
</svg>
