<?xml version="1.0" encoding="utf-8"?>
<!-- Generator: Adobe Illustrator 23.1.1, SVG Export Plug-In . SVG Version: 6.00 Build 0)  -->
<svg version="1.1" id="레이어_2" xmlns="http://www.w3.org/2000/svg" xmlns:xlink="http://www.w3.org/1999/xlink" x="0px"
	 y="0px" viewBox="0 0 833 833" style="enable-background:new 0 0 833 833;" xml:space="preserve">
<style type="text/css">
	.st0{fill:#FFFFFF;}
</style>
<g>
	<path class="st0" d="M717.57,518.69c-3.23-0.86-6.56-1.48-9.68-2.64c-10.02-3.68-15.87-11.57-15.97-22.22
		c-0.2-20.06-0.08-40.12-0.1-60.17c0-0.44,0.1-0.87,0.17-1.51c6.17,0,12.29,0,18.95,0c0,1.13,0,2.31,0,3.48
		c0,17.82-0.01,35.64,0,53.46c0,8.84,3.2,12.24,12.08,12.46c2.64,0.07,5.39-0.38,7.94-1.11c3.16-0.9,5-3.34,5.48-6.61
		c0.25-1.76,0.32-3.57,0.32-5.36c0.03-17.37,0.01-34.74,0.01-52.1c0-1.33,0-2.65,0-4.2c6.5,0,12.7,0,19.24,0c0,1.31,0,2.52,0,3.72
		c0,18.04,0,36.07,0,54.12c0,16.63-7.54,25.4-24.09,28.12c-0.54,0.08-1.03,0.37-1.54,0.56C726.1,518.69,721.83,518.69,717.57,518.69
		z"/>
	<path class="st0" d="M789.69,518.69c-4.47-0.99-8.95-1.87-13.38-2.99c-2.26-0.56-4.43-1.54-6.92-2.44c1.04-4.92,2.04-9.7,3.12-14.7
		c4.84,1.01,9.46,2.38,14.17,2.89c5.31,0.56,10.74,0.66,16.08,0.41c4.13-0.2,5.61-2.16,5.98-6.3c0.13-1.34,0.18-2.69,0.13-4.03
		c-0.17-4.78-1.28-6.4-5.88-7.74c-4.51-1.31-9.15-2.21-13.69-3.48c-3.02-0.85-5.99-1.87-8.87-3.1c-4.65-1.97-7.99-5.51-8.37-10.54
		c-0.54-7.09-1-14.34-0.1-21.33c1.06-8.25,6.79-12.5,16.69-13.93c12.48-1.79,24.84-0.56,37.51,2.04
		c-0.59,5.26-1.18,10.43-1.82,16.04c-4.48-0.58-8.74-1.34-13.04-1.65c-4.92-0.35-9.87-0.52-14.79-0.38
		c-4.51,0.13-6.08,2.04-6.27,6.6c-0.34,7.96,0.37,8.95,8.01,11.02c4.54,1.23,9.11,2.4,13.65,3.64c8.29,2.24,14.93,6.2,16.21,15.68
		c0,5.16,0,10.3,0,15.46c-0.2,0.51-0.51,1-0.58,1.52c-1.18,8.42-6.08,13.45-14.18,15.52c-2.69,0.69-5.44,1.2-8.16,1.78
		C800.02,518.69,794.85,518.69,789.69,518.69z"/>
	<path class="st0" d="M805.2,518.69c2.72-0.59,5.47-1.09,8.16-1.78c8.11-2.07,13-7.12,14.18-15.52c0.07-0.52,0.38-1.01,0.58-1.52
		c0,6.27,0,12.55,0,18.83C820.46,518.69,812.84,518.69,805.2,518.69z"/>
	<path class="st0" d="M409.06,315.39c0,19.98,0,39.54,0,59.46c-47.86,0-95.52,0-143.94,0c28.55,27.98,56.53,55.43,84.13,82.5
		c0-15.38,0-31.97,0-48.73c20.17,0,39.89,0,59.81,0c0,36.4,0,72.66,0,109.41c-1.35,0-2.65,0-3.93,0c-28.08,0-56.18-0.03-84.26,0.06
		c-2.57,0.01-4.36-0.76-6.15-2.57c-35-35.28-70.06-70.51-105.12-105.76c-0.7-0.7-1.45-1.37-2.4-2.26c-1.03,0.97-2,1.83-2.92,2.76
		c-35.1,35.2-70.17,70.4-105.33,105.54c-1.13,1.11-2.99,2.11-4.51,2.11c-28.87,0.13-57.74,0.1-86.61,0.08
		c-0.65,0-1.28-0.06-2.45-0.11c0.94-1.04,1.55-1.78,2.23-2.44c65.9-66.11,131.79-132.23,197.77-198.29c1.1-1.1,3.09-1.87,4.65-1.87
		c65.27-0.1,130.54-0.08,195.81-0.07C406.8,315.21,407.79,315.32,409.06,315.39z"/>
	<path class="st0" d="M5.18,430.18c0-38.75,0-76.6,0-114.71c37.86,0,75.64,0,114.3,0C81.27,353.82,43.52,391.71,5.18,430.18z"/>
	<path class="st0" d="M575.11,491.13c0,9.18,0,17.52,0,26.07c-6.48,0-12.62,0-19.02,0c0-28.19,0-56.44,0-85
		c0.68-0.07,1.52-0.24,2.37-0.24c11.45-0.01,22.89-0.1,34.34,0.07c3.55,0.06,7.18,0.54,10.64,1.37c9.02,2.19,14.17,7.77,15.07,17.09
		c0.65,6.65,0.86,13.45,0.32,20.1c-1.03,12.77-8.6,19.64-22.29,20.48C589.63,491.48,582.65,491.13,575.11,491.13z M575.23,474.36
		c6.4,0,12.45,0.27,18.45-0.1c3.75-0.23,5.71-2.54,5.89-6.19c0.21-4.24,0.17-8.51-0.01-12.76c-0.13-3-1.95-5.47-4.86-5.64
		c-6.41-0.38-12.87-0.11-19.47-0.11C575.23,457.76,575.23,466.02,575.23,474.36z"/>
	<path class="st0" d="M587.89,385.48c0-9.56,0-18.04,0-26.66c6.01,0,11.7,0,17.73,0c0.07,1.1,0.2,2.17,0.2,3.23
		c0.01,11.21-0.08,22.41,0.08,33.62c0.04,2.71-0.92,3.62-3.43,4.16c-12.48,2.71-24.99,4.75-37.68,1.79
		c-11.69-2.72-18.85-10.47-19.38-22.34c-0.61-13.53-0.59-27.12-0.01-40.66c0.49-11.59,7.26-18.83,18.34-22.19
		c9.32-2.82,31.7-0.97,39.91,1.55c-0.73,5.34-1.48,10.73-2.24,16.3c-5.86-0.54-11.53-1.18-17.2-1.51c-3.9-0.23-7.89-0.39-11.73,0.14
		c-5.05,0.7-7.78,3.89-7.87,8.99c-0.18,11.32-0.21,22.64,0.03,33.95c0.11,5.53,3.58,9.11,9.02,9.54
		C578.19,385.76,582.77,385.48,587.89,385.48z"/>
	<path class="st0" d="M514.26,401.6c-6.57,0-12.6,0-19.16,0c0-4.33-0.25-8.67,0.06-12.96c0.58-7.8-1.2-14.86-4.5-21.96
		c-7.16-15.42-13.69-31.14-20.47-46.73c-0.48-1.1-0.89-2.23-1.45-3.68c6.41,0,12.46-0.1,18.5,0.11c0.87,0.03,2.06,1.42,2.48,2.45
		c4.57,11.07,9.01,22.17,13.49,33.28c0.41,1,0.87,1.97,1.56,3.5c4.96-12.28,9.81-23.92,14.32-35.69c1.13-2.95,2.52-3.88,5.58-3.72
		c5.15,0.27,10.3,0.07,16,0.07c-0.52,1.34-0.89,2.33-1.3,3.3c-7.85,18.06-15.77,36.09-23.51,54.19c-0.97,2.28-1.45,4.92-1.52,7.42
		C514.12,387.85,514.26,394.56,514.26,401.6z"/>
	<path class="st0" d="M630.78,432.03c6.3,0,12.33,0,18.78,0c0,22.65,0,45.21,0,68.24c11.43,0,22.46,0,33.69,0
		c0,5.89,0,11.32,0,16.93c-17.51,0-34.86,0-52.47,0C630.78,488.9,630.78,460.62,630.78,432.03z"/>
	<path class="st0" d="M544.85,517.39c-7.03,0-13.43,0.07-19.82-0.08c-0.94-0.03-2.24-0.97-2.73-1.85
		c-7.65-13.29-15.24-26.62-22.71-40.01c-0.51-0.92-0.45-2.61,0.06-3.55c6.87-12.7,13.84-25.35,20.86-37.96
		c0.47-0.83,1.51-1.89,2.31-1.9c6.58-0.16,13.18-0.08,20.23-0.08c-0.75,1.42-1.27,2.5-1.85,3.52c-6.77,11.86-13.5,23.74-20.37,35.55
		c-1.14,1.97-1.21,3.43-0.01,5.43c7.44,12.38,14.73,24.84,22.08,37.29C543.49,514.74,544.02,515.82,544.85,517.39z"/>
	<path class="st0" d="M477.16,432.07c6.34,0,12.48,0,18.81,0c0,28.43,0,56.71,0,85.15c-6.3,0-12.43,0-18.81,0
		C477.16,488.91,477.16,460.65,477.16,432.07z"/>
</g>
</svg>
