<?xml version="1.0" encoding="utf-8"?>
<!-- Generator: Adobe Illustrator 23.1.1, SVG Export Plug-In . SVG Version: 6.00 Build 0)  -->
<svg version="1.1" id="레이어_2" xmlns="http://www.w3.org/2000/svg" xmlns:xlink="http://www.w3.org/1999/xlink" x="0px"
	 y="0px" viewBox="0 0 833 833" style="enable-background:new 0 0 833 833;" xml:space="preserve">
<style type="text/css">
	.st0{fill:#FFFFFF;}
</style>
<g>
	<path class="st0" d="M48.97,672.63c-4.5,0-8.5-0.75-12.02-2.23c-3.51-1.48-6.48-3.53-8.91-6.13c-2.43-2.62-4.27-5.73-5.55-9.34
		c-1.26-3.63-1.89-7.61-1.89-11.97c0-4.26,0.63-8.21,1.89-11.84c1.27-3.62,3.12-6.73,5.55-9.34c2.43-2.61,5.4-4.65,8.91-6.14
		c3.52-1.48,7.52-2.23,12.02-2.23c4.48,0,8.49,0.75,12,2.23c3.51,1.49,6.48,3.54,8.91,6.14c2.43,2.61,4.28,5.72,5.55,9.34
		c1.27,3.63,1.9,7.57,1.9,11.84c0,4.36-0.63,8.34-1.9,11.97c-1.27,3.61-3.12,6.72-5.55,9.34c-2.43,2.6-5.4,4.65-8.91,6.13
		C57.46,671.88,53.45,672.63,48.97,672.63z M48.97,662.85c2.74,0,5.13-0.58,7.16-1.75c2.03-1.16,3.7-2.68,5-4.56
		c1.3-1.88,2.27-4,2.88-6.35c0.61-2.36,0.92-4.77,0.92-7.24c0-2.38-0.31-4.77-0.92-7.16c-0.61-2.39-1.58-4.51-2.88-6.36
		c-1.3-1.85-2.98-3.35-5-4.51c-2.03-1.16-4.42-1.74-7.16-1.74c-2.76,0-5.15,0.58-7.17,1.74c-2.03,1.16-3.7,2.66-5,4.51
		c-1.3,1.85-2.27,3.96-2.87,6.36c-0.63,2.39-0.94,4.78-0.94,7.16c0,2.47,0.31,4.88,0.94,7.24c0.61,2.35,1.57,4.47,2.87,6.35
		c1.3,1.88,2.97,3.41,5,4.56C43.82,662.27,46.21,662.85,48.97,662.85z"/>
	<path class="st0" d="M87.65,614.94h11.74v8.25l0.21,0.22c1.89-3.11,4.35-5.55,7.39-7.33c3.05-1.78,6.41-2.66,10.1-2.66
		c6.15,0,11.01,1.59,14.56,4.78c3.55,3.18,5.33,7.97,5.33,14.34v38.57h-12.39V635.8c-0.15-4.42-1.08-7.62-2.82-9.62
		c-1.74-2-4.45-2.99-8.15-2.99c-2.1,0-3.99,0.38-5.65,1.14c-1.67,0.76-3.08,1.82-4.24,3.17c-1.15,1.33-2.06,2.91-2.71,4.72
		c-0.65,1.81-0.98,3.73-0.98,5.76v33.14H87.65V614.94z"/>
	<path class="st0" d="M188.26,603.27c1.33-4.29,3.33-8.03,5.99-11.24c2.66-3.2,6-5.69,10.05-7.48c4.03-1.8,8.67-2.7,13.91-2.7
		c4,0,7.8,0.63,11.43,1.88c3.63,1.24,6.8,3.03,9.55,5.37c2.74,2.33,4.93,5.2,6.55,8.61c1.62,3.42,2.43,7.24,2.43,11.49
		c0,4.41-0.7,8.19-2.12,11.36c-1.42,3.16-3.29,5.97-5.62,8.43c-2.33,2.45-4.98,4.68-7.93,6.67c-2.95,2-5.93,3.98-8.92,5.93
		c-3,1.96-5.91,4.06-8.73,6.3c-2.84,2.25-5.33,4.87-7.5,7.87h41.32V671h-64.16c0-5.08,0.72-9.49,2.18-13.23
		c1.46-3.74,3.43-7.09,5.93-10.05c2.5-2.95,5.44-5.69,8.81-8.17c3.37-2.51,6.93-5.04,10.68-7.62c1.91-1.33,3.95-2.68,6.11-4.06
		c2.16-1.37,4.14-2.89,5.93-4.56c1.79-1.66,3.29-3.53,4.49-5.61c1.2-2.08,1.81-4.46,1.81-7.13c0-4.23-1.23-7.55-3.68-9.92
		c-2.46-2.38-5.6-3.56-9.42-3.56c-2.58,0-4.77,0.61-6.56,1.81c-1.79,1.2-3.23,2.79-4.31,4.74c-1.08,1.96-1.85,4.12-2.31,6.5
		c-0.46,2.37-0.68,4.72-0.68,7.05h-16.98C186.34,612.2,186.92,607.56,188.26,603.27z"/>
	<path class="st0" d="M278.4,651.77V671h-19.6v-19.23H278.4z"/>
	<path class="st0" d="M339.25,670.31c-4.24,1.79-8.54,2.69-12.86,2.69c-6.82,0-12.96-1.19-18.41-3.56
		c-5.46-2.37-10.05-5.64-13.79-9.8c-3.75-4.15-6.63-9.05-8.63-14.67c-1.99-5.62-2.99-11.67-2.99-18.16c0-6.65,1-12.84,2.99-18.54
		c2-5.7,4.87-10.67,8.63-14.92c3.74-4.24,8.33-7.57,13.79-9.98c5.45-2.42,11.59-3.63,18.41-3.63c4.57,0,9.01,0.69,13.29,2.06
		c4.29,1.38,8.16,3.39,11.62,6.06c3.45,2.67,6.3,5.95,8.55,9.86c2.25,3.92,3.61,8.41,4.13,13.48h-18.72
		c-1.17-4.99-3.42-8.73-6.75-11.23c-3.33-2.49-7.37-3.74-12.11-3.74c-4.41,0-8.15,0.86-11.24,2.56c-3.07,1.7-5.57,3.99-7.48,6.86
		c-1.92,2.87-3.31,6.14-4.19,9.81c-0.87,3.66-1.3,7.44-1.3,11.36c0,3.74,0.44,7.39,1.3,10.93c0.88,3.54,2.27,6.72,4.19,9.55
		c1.91,2.83,4.41,5.09,7.48,6.8c3.09,1.71,6.83,2.56,11.24,2.56c6.49,0,11.5-1.64,15.04-4.93c3.53-3.29,5.6-8.05,6.18-14.3h-19.72
		v-14.6h37.45V671h-12.48l-2-10.12C347.36,665.38,343.49,668.52,339.25,670.31z"/>
	<path class="st0" d="M431.87,581.85L465.21,671h-20.36l-6.74-19.85h-33.33L397.8,671h-19.73l33.71-89.14H431.87z M433,636.55
		l-11.24-32.71h-0.25l-11.61,32.71H433z"/>
	<path class="st0" d="M460.72,598.34v-16.49h73.03v16.49h-26.72V671h-19.6v-72.66H460.72z"/>
	<path class="st0" d="M569.83,581.85v34.21h36.07v-34.21h19.61V671H605.9v-38.45h-36.07V671h-19.61v-89.14H569.83z"/>
	<path class="st0" d="M715.64,581.85v16.49h-47.07v19.09h43.19v15.24h-43.19v21.84h48.06V671h-67.66v-89.14H715.64z"/>
	<path class="st0" d="M784.18,581.85c4,0,7.59,0.66,10.8,1.95c3.2,1.28,5.95,3.05,8.24,5.3c2.29,2.25,4.03,4.85,5.24,7.8
		c1.2,2.95,1.81,6.14,1.81,9.54c0,5.25-1.1,9.79-3.3,13.62c-2.2,3.83-5.81,6.74-10.8,8.74v0.24c2.42,0.67,4.42,1.69,6,3.06
		c1.58,1.38,2.87,3,3.87,4.87c1,1.87,1.73,3.93,2.18,6.18c0.46,2.25,0.78,4.5,0.94,6.75c0.08,1.41,0.16,3.08,0.25,4.98
		c0.08,1.92,0.23,3.87,0.43,5.87c0.21,2,0.54,3.89,1.01,5.68c0.45,1.78,1.14,3.31,2.05,4.55h-19.59c-1.08-2.83-1.75-6.19-2.01-10.12
		c-0.24-3.9-0.61-7.65-1.11-11.23c-0.67-4.66-2.09-8.07-4.26-10.23c-2.16-2.16-5.69-3.25-10.61-3.25h-19.59V671h-19.61v-89.14
		H784.18z M777.19,622.18c4.49,0,7.86-1,10.11-3c2.25-1.99,3.37-5.25,3.37-9.73c0-4.33-1.12-7.47-3.37-9.42
		c-2.25-1.96-5.62-2.94-10.11-2.94h-21.47v25.09H777.19z"/>
</g>
<g>
	<path class="st0" d="M377.95,258.12l0.34,0.01c12.41,0,20.2-5.22,20.82-13.98c0.23-3.43-0.82-6.48-3.04-8.86
		c-4.08-4.38-10.83-5.08-14.52-5.1c-9.43,0.01-20.62,3.7-21.14,14.07c-0.16,3.39,0.94,6.43,3.19,8.79
		C367.94,257.59,375.08,258.11,377.95,258.12"/>
	<path class="st0" d="M819.76,398.47c-0.44-1.16-1.48-2.77-3.9-3.85c-5.56-2.47-26.89-2.48-31.03,6.71
		c-10.14,22.51-37.44,73.88-72.13,64.32c-25.36-6.98-31.41-40.69-31.86-68.67c41.53-14.11,68.1-34.6,78.99-60.95
		c5.34-12.91,8.86-33.1,1.22-47.5c-4.13-7.8-10.84-12.75-19.93-14.71c-44.49-9.5-75.96,36.22-90.59,82.28
		c-9.94,33.59-38.44,92.42-72.56,107.35c-10.28,4.5-20.36,4.42-30-0.25c-35.54-17.22-26.74-81.6-23.19-100.92
		c1.47-8.02,3.2-16.6,5.14-25.54c17.44-0.48,34.46-1.82,51.93-4.09c5.21-0.68,11.05-4.01,14.19-8.08c1.89-2.46,2.72-5.06,2.4-7.51
		c-0.43-3.47-3.28-8.97-17.33-7.26c-14.77,1.85-30.12,3.03-45.69,3.49c9.02-35.61,19.78-65.38,32.86-90.93l1.67-3.32
		c5.05-10.11,20.4-40.84,32.44-38.41c2.5,0.51,4.31,1.79,5.71,4.04c5.14,8.29,3.83,26.99-3.9,55.61l-0.67,2.49
		c-0.47,1.81-0.2,3.76,0.73,5.33c1.13,1.92,3.13,3.25,5.96,3.98c6.78,1.73,23.64,0.29,25.94-8.57c0.43-1.64,0.9-3.42,1.42-5.3
		c6.08-22.55,16.26-60.3-10.95-73.9c-18.63-9.29-42.95-2.23-57.39,9.56c-25.56,20.9-39.07,56.29-49.92,84.71
		c-7.31,19.12-12.8,38.23-17.24,54.65c-14.25-0.49-28.84-1.6-43.4-3.28c-5.98-0.77-15.79,3.71-19.73,8.97
		c-2.71,3.62-2.01,6.69-1.35,8.22c2.06,4.75,8.22,5.45,10.25,5.69c16.84,1.94,32.63,3.16,48.13,3.74l-1.7,6.63
		c-1.67,6.5-3.34,13.01-5.06,19.5c-5.82,22.05-35.31,84.24-70.45,100.24c-10.43,4.75-20.5,4.82-29.96,0.24
		c-32.19-15.61-29.37-70.65-22.63-100.69c3.1-13.75,6.25-25.47,9.61-37.88c0.49-1.88,0.24-3.91-0.73-5.59
		c-1.27-2.2-3.62-3.76-6.99-4.66c-6.99-1.87-24.67-1.41-27.2,7.92c-1.18,4.41-2.32,8.87-3.47,13.33l-0.26,0.98
		c-2.19,8.58-4.46,17.45-7.05,25.91c-8.15,26.52-36.16,86.09-70.71,101.02c-10.21,4.39-20.23,4.29-29.76-0.34
		c-37.37-18.12-25.25-87.93-22.44-101.74c26.94-132.44,77.27-187.72,77.68-188.16c1.86-1.8,2.59-4.16,1.98-6.49
		c-0.76-2.83-3.2-4.81-7.27-5.89c-5.93-1.6-17.84-1.57-24.57,5.2c-11.22,11.29-50.38,58.28-83.06,188.93
		C166,378.8,151,409.14,134.61,430.53c-11.51,15.02-41.13,48.06-67.31,30.62c-17.23-11.46-17.53-41.02-17.73-60.59l-0.02-0.64
		c-0.01-1.8-0.7-3.4-1.99-4.62c-2.12-2.02-5.72-2.89-10.89-2.72c-4.87,0.05-10.14,0.9-14.09,2.27c-7.7,2.67-9.27,6.77-9.24,9.74
		c0.36,34.49,5.21,67.87,37.86,78.54c6.8,2.23,14.32,3.36,22.32,3.36c16.15,0,34.46-4.68,50.24-12.84
		c17.19-8.91,32.93-22.87,46.9-41.56c8.55,37.11,32.55,56.3,68.2,54.18c34.14-1.99,65.44-20.86,90.88-54.65
		c8.45,37.37,32.38,56.67,68.31,54.65c34.14-1.99,65.45-20.86,90.88-54.65c8.44,37.42,32.44,56.77,68.29,54.65
		c33.63-1.97,64.56-20.32,89.8-53.21c4.17,19.7,12.93,34.22,26.12,43.23c21.01,14.36,51.39,11.45,72.8,3.94
		c30.68-10.75,55.45-36.68,73.63-77.06C820.28,401.64,820.34,399.98,819.76,398.47 M727.65,333.96
		c-7.12,17.18-22.49,31.2-45.7,41.74c6.96-47.62,35.02-83.29,45.08-83.29c1.7,0,2.76,0.54,3.66,1.87
		C735.43,301.3,732.11,323.19,727.65,333.96 M283.84,167.61"/>
</g>
</svg>
